<svg xmlns="http://www.w3.org/2000/svg" width="110" height="40" viewBox="0 0 110 40">
  <g fill="#140056" fill-rule="evenodd">
    <path d="M28.6641472,27.767027 C28.6718075,29.2383784 27.7596755,30.5745946 26.0946377,31.5302703 L11.6334868,39.8324324 C10.9402226,40.2308108 9.98924151,39.7875676 9.98924151,38.8518919 L9.98924151,29.2551351 L23.1169396,21.7183784 C23.2668642,21.6324324 23.3894302,21.4221622 23.3894302,21.2513514 L23.3894302,17.1632432 C23.3894302,16.6464865 23.0195434,16.4362162 22.567034,16.6962162 L10.8116377,23.4448649 C10.4466755,23.6540541 9.98924151,23.3940541 9.98924151,22.9772973 L9.98924151,16.2243243 C9.98924151,15.8389189 10.1966189,15.4832432 10.5336755,15.2897297 L24.9948264,6.98756757 C26.9974679,5.83783784 26.9383736,4.33675676 24.9674679,3.21243243 C22.5812604,1.85135135 18.5644868,1.85081081 16.1957887,3.21081081 L2.28071321,11.2016216 L2.28071321,33.8745946 L1.70782642,34.2037838 C0.980090566,34.5940541 0.0920339623,34.0637838 0.0920339623,33.252973 L0.0920339623,10.5794595 C0.0920339623,10.1940541 0.299411321,9.83837838 0.636467925,9.64486486 L15.0959774,1.34162162 C18.1612226,-0.418378378 22.9779585,-0.418918919 26.0612604,1.34 C27.7317698,2.29243243 28.6564868,3.62540541 28.6641472,5.09351351 L28.6641472,5.09351351 L28.6641472,5.09351351 L28.6641472,5.09351351 L28.6641472,5.09405405 C28.6641472,5.14324324 28.6641472,27.767027 28.6641472,27.767027 L28.6641472,27.767027 Z"/>
    <polygon points="5.17 12.849 18.759 5.048 17.202 4.379 3.802 12.072 3.802 33.791 5.17 34.378"/>
    <polygon points="22.522 6.663 20.965 5.995 7.101 13.954 7.101 35.207 8.469 35.794 8.469 14.731"/>
    <path d="M43.6582031 27L43.6582031 21.5117188 49.390625 21.5117188 49.390625 19.0996094 43.6582031 19.0996094 43.6582031 15.4277344 49.9375 15.4277344 49.9375 12.9082031 40.7089844 12.9082031 40.7089844 27 43.6582031 27zM51.8765625 27L54.7183594 27 54.7183594 12.1171875 51.8765625 12.1171875 51.8765625 27zM61.8429687 27.234375C58.5324218 27.234375 56.5402343 25.1347656 56.5402343 21.609375 56.5402343 18.1230469 58.5617187 15.9941406 61.8429687 15.9941406 65.1242187 15.9941406 67.1457031 18.1132812 67.1457031 21.609375 67.1457031 25.1347656 65.1535156 27.234375 61.8429687 27.234375zM61.8429687 24.9101562C63.3566406 24.9101562 64.2257812 23.6992187 64.2257812 21.609375 64.2257812 19.5390625 63.346875 18.3183594 61.8429687 18.3183594 60.3292968 18.3183594 59.4601562 19.5390625 59.4601562 21.609375 59.4601562 23.7089844 60.3195312 24.9101562 61.8429687 24.9101562zM98.5390624 20.0273438C98.3046874 17.5761719 96.595703 15.9941406 93.7441405 15.9941406 90.3749999 15.9941406 88.4804686 18.015625 88.4804686 21.5898438 88.4804686 25.203125 90.3847655 27.234375 93.7441405 27.234375 96.5468749 27.234375 98.3046874 25.6816406 98.5390624 23.2695312L95.8828124 23.2695312C95.6679686 24.3339844 94.9062499 24.9003906 93.7441405 24.9003906 92.220703 24.9003906 91.3515624 23.7382812 91.3515624 21.5898438 91.3515624 19.4707031 92.2109374 18.328125 93.7441405 18.328125 94.955078 18.328125 95.6874999 19.0019531 95.8828124 20.0273438L98.5390624 20.0273438zM104.814062 18.171875C103.495703 18.171875 102.567969 19.0898438 102.470312 20.4863281L107.060156 20.4863281C107.001562 19.0605469 106.142187 18.171875 104.814062 18.171875zM107.11875 23.9335937L109.765234 23.9335937C109.335547 25.9648437 107.480078 27.234375 104.843359 27.234375 101.562109 27.234375 99.6285155 25.1640625 99.6285155 21.6679688 99.6285155 18.1621094 101.601172 15.9941406 104.804297 15.9941406 107.978125 15.9941406 109.853125 18.015625 109.853125 21.4335938L109.853125 22.3027344 102.460547 22.3027344 102.460547 22.4492188C102.499609 24.0507812 103.437109 25.046875 104.921484 25.046875 106.044531 25.046875 106.816015 24.6464844 107.11875 23.9335937zM68.8601562 27L71.7019531 27 71.7019531 21.0332031C71.7019531 19.5195312 72.7664062 18.6015625 74.3191406 18.6015625 74.7781249 18.6015625 75.4421874 18.6894531 75.6667968 18.7773438L75.6667968 16.1894531C75.4226562 16.1015625 74.9441406 16.0527344 74.5535156 16.0527344 73.1863281 16.0527344 72.0730468 16.8730469 71.7898437 17.9472656L71.6140624 17.9472656 71.6140624 16.2285156 68.8601562 16.2285156 68.8601562 27zM77.0589843 27L79.9007812 27 79.9007812 20.7890625C79.9007812 19.3730469 80.711328 18.4453125 82.0296874 18.4453125 83.3773437 18.4453125 84.0121093 19.2265625 84.0121093 20.7109375L84.0121093 27 86.8539062 27 86.8539062 20.0371094C86.8539062 17.4589844 85.5648437 15.9941406 83.1722655 15.9941406 81.5804687 15.9941406 80.4867187 16.7460938 79.9886718 17.9570312L79.8128905 17.9570312 79.8128905 16.2285156 77.0589843 16.2285156 77.0589843 27z"/>
  </g>
</svg>
