<svg xmlns="http://www.w3.org/2000/svg" width="29" height="40" viewBox="0 0 29 40">
  <g fill="#140056" fill-rule="evenodd">
    <path d="M28.6641472,27.767027 C28.6718075,29.2383784 27.7596755,30.5745946 26.0946377,31.5302703 L11.6334868,39.8324324 C10.9402226,40.2308108 9.98924151,39.7875676 9.98924151,38.8518919 L9.98924151,29.2551351 L23.1169396,21.7183784 C23.2668642,21.6324324 23.3894302,21.4221622 23.3894302,21.2513514 L23.3894302,17.1632432 C23.3894302,16.6464865 23.0195434,16.4362162 22.567034,16.6962162 L10.8116377,23.4448649 C10.4466755,23.6540541 9.98924151,23.3940541 9.98924151,22.9772973 L9.98924151,16.2243243 C9.98924151,15.8389189 10.1966189,15.4832432 10.5336755,15.2897297 L24.9948264,6.98756757 C26.9974679,5.83783784 26.9383736,4.33675676 24.9674679,3.21243243 C22.5812604,1.85135135 18.5644868,1.85081081 16.1957887,3.21081081 L2.28071321,11.2016216 L2.28071321,33.8745946 L1.70782642,34.2037838 C0.980090566,34.5940541 0.0920339623,34.0637838 0.0920339623,33.252973 L0.0920339623,10.5794595 C0.0920339623,10.1940541 0.299411321,9.83837838 0.636467925,9.64486486 L15.0959774,1.34162162 C18.1612226,-0.418378378 22.9779585,-0.418918919 26.0612604,1.34 C27.7317698,2.29243243 28.6564868,3.62540541 28.6641472,5.09351351 L28.6641472,5.09405405 C28.6641472,5.14324324 28.6641472,27.767027 28.6641472,27.767027 Z"/>
    <polygon points="5.17 12.849 18.759 5.048 17.202 4.379 3.802 12.072 3.802 33.791 5.17 34.378"/>
    <polygon points="22.522 6.663 20.965 5.995 7.101 13.954 7.101 35.207 8.469 35.794 8.469 14.731"/>
  </g>
</svg>
