<svg xmlns="http://www.w3.org/2000/svg" width="324" height="77" viewBox="0 0 324 77">
  <defs>
    <linearGradient id="highlight-a" x1="0%" y1="28.406%" y2="79.889%">
      <stop offset="0%" stop-color="#FFFFE4"/>
      <stop offset="51.159%" stop-color="#FFEDA3"/>
      <stop offset="100%" stop-color="#FFFFE4"/>
    </linearGradient>
  </defs>
  <path fill="url(#highlight-a)" fill-rule="evenodd" d="M84.496,76.148 C84.401,76.204 84.203,75.982 84.057,75.658 C83.903,75.314 83.667,75.066 83.492,75.066 C83.255,75.066 83.236,75.016 83.402,74.831 C83.562,74.651 83.556,74.58 83.378,74.524 C83.196,74.467 83.204,74.387 83.416,74.147 C83.62,73.914 83.631,73.825 83.46,73.771 C83.337,73.733 83.236,73.628 83.236,73.538 C83.425,73.177 83.469,73.06 83.582,73.06 C83.731,73.06 83.735,72.97 83.595,72.726 C83.441,72.458 83.458,72.392 83.685,72.392 C83.134,72.535 83.052,72.634 82.937,72.673 C82.799,72.721 82.763,72.619 82.831,72.376 C82.888,72.172 82.861,72.046 82.771,72.095 C81.967,71.963 82.051,71.912 82.654,71.816 C83.129,71.74 83.416,71.606 83.416,71.459 C83.416,71.329 83.572,71.223 83.764,71.223 C83.955,71.223 84.222,71.076 84.357,70.896 C84.599,70.575 85.511,70.136 85.807,70.199 C85.891,70.216 86.415,70.124 86.972,69.993 C87.6763324,69.8373574 88.3882981,69.7185296 89.105,69.637 C89.721,69.572 90.27,69.451 90.325,69.368 C91.033,69.212 91.694,68.988 92.285,68.716 C92.877,68.445 93.497,68.221 93.663,68.219 C94.138,67.956 94.097,67.881 93.986,67.881 C93.737,67.881 93.826,67.134 94.077,67.117 C94.176,67.111 94.61,67.011 95.042,66.897 C95.474,66.781 96.024,66.732 96.265,66.789 C96.505,66.845 96.958,66.817 97.271,66.727 C97.584,66.637 98.29,66.482 98.84,66.381 C100.35,66.106 101.155,65.876 101.155,65.721 C101.155,65.559 91.963,65.671 89.687,65.861 C88.488,65.961 88.031,65.933 87.537,65.733 C87.192,65.593 86.869,65.468 86.82,65.454 C86.77,65.441 86.495,65.339 86.207,65.229 C85.245,65.186 82.86,65.259 80.1,65.292 C77.341,65.325 74.72,65.427 74.277,65.518 C73.834,65.61 72.505,65.772 71.324,65.878 C70.143,65.986 69.022,66.15 68.834,66.244 C68.645,66.338 68.097,66.38 67.616,66.337 C67.134,66.293 66.697,66.324 66.644,66.404 C66.214,66.632 66.154,66.696 66.079,66.678 C65.781,66.605 64.243,66.908 64.243,67.041 C64.243,67.204 62.889,67.475 62.377,67.415 C62.189,67.392 61.883,67.525 61.698,67.711 C61.513,67.896 61.224,68.057 61.055,68.068 C60.886,68.078 60.265,68.104 59.673,68.124 C59.083,68.144 58.276,68.246 57.882,68.352 C57.487,68.459 56.86,68.588 56.488,68.639 C56.116,68.691 55.855,68.799 55.908,68.879 C56.075,69.131 55.677,69.197 52.564,69.433 C52.312,69.702 52.165,69.817 51.968,69.871 C51.6835637,69.9664508 51.4116173,70.0957093 51.158,70.256 C50.832,70.463 50.153,70.574 48.738,70.651 C47.657,70.71 46.586,70.751 46.358,70.741 C46.13,70.731 45.696,70.843 45.393,70.989 C44.578,70.887 43.947,70.681 44.085,70.891 C42.617,70.371 38.058,70.741 37.582,71.344 C37.435,71.531 37.419,71.657 37.538,71.694 C37.723,71.981 37.61,72.007 37.473,71.958 C36.93,72.309 38.003,72.271 38.583,71.994 C38.849,71.867 39.43,71.708 39.873,71.64 C40.317,71.573 40.821,71.493 40.993,71.463 C41.307,71.783 41.53,71.83 42.068,71.791 C42.338,72.001 42.236,72.139 42.285,72.214 C42.391,72.374 41.389,72.536 39.45,72.671 C38.36,72.746 38.005,72.716 37.885,72.539 C37.722,72.825 36.645,72.775 36.259,72.45 C35.931,72.427 35.35,72.444 34.453,72.375 C33.64,72.311 32.37,72.218 31.631,72.168 C30.891,72.118 30.022,71.988 29.698,71.881 C29.375,71.775 28.909,71.723 28.664,71.767 C28.211,71.398 27.356,71.214 26.345,71.17 C25.748,71.144 25.625,71.079 25.609,70.78 C25.591,70.46 25.715,70.408 26.773,70.293 C27.425,70.223 28.159,70.181 28.405,70.201 C27.553,69.579 26.75,69.402 25.18,69.295 C24.342,69.238 23.133,69.068 22.492,68.918 C21.019,68.573 15.907,68.546 15.684,68.883 C15.034,68.799 11.736,68.742 11.849,68.91 C11.953,69.069 11.927,69.071 9.583,69.138 C7.928,69.185 7.23,69.242 4.753,69.533 C3.623,69.665 2.963,69.589 2.317,69.253 C2.047,69.111 2.105,69.031 2.757,68.648 C3.281,68.338 3.923,68.157 4.891,68.043 C6.544,67.848 8.121,67.603 9.257,67.363 C9.937,67.22 10.072,67.132 10.001,66.878 C9.95,66.696 9.811,66.604 9.663,66.658 C9.412,66.46 9.552,66.376 9.725,66.375 C9.6,66.108 9.581,66.047 9.72,66.046 C9.84,66.044 9.892,65.93 9.834,65.791 C9.762,65.616 9.941,65.453 10.422,65.253 L11.114,64.967 L9.364,64.867 C8.42400965,64.811605 7.48262035,64.7832599 6.541,64.782 C5.951,64.792 5.47,64.79 5.47,64.778 C5.47,64.767 5.63,64.584 5.828,64.372 C6.025,64.16 6.186,64.038 6.186,64.1 C6.812,63.831 7.591,63.633 8.322,63.528 C9.052,63.422 9.969,63.23 10.36,63.102 C10.8009231,62.9644202 11.2576242,62.8837666 11.719,62.862 C12.717,62.853 15.23,62.244 14.504,62.187 C13.7888208,62.055935 13.5964861,62.0156014 13.404,61.976 C12.994,61.892 12.968,61.73 13.346,61.618 C13.554,61.556 13.934,61.324 14.192,61.101 C14.45,60.878 14.84,60.696 15.06,60.696 C15.28,60.696 15.552,60.593 15.665,60.466 C15.833,60.278 15.685,60.217 14.835,60.127 C14.310658,60.0722995 13.7872535,60.0089576 13.265,59.937 C12.561,59.831 9.762,59.846 9.57,59.957 C9.31,60.107 7.261,60.177 7.261,60.037 C7.261,59.962 7.382,59.808 7.531,59.694 C7.678,59.579 7.799,59.407 7.799,59.311 C7.19,59.068 7.083,59.056 7.083,59.144 C6.383,59.304 6.501,59.125 7.093,58.881 C7.758,58.606 7.663,58.491 6.59,58.274 C5.612,58.074 5.426,57.764 6.127,57.5 C6.853,57.227 10.262,56.873 12.211,56.868 C13.125,56.866 14.086,56.814 14.347,56.753 L14.313,56.252 C14.031,56.038 13.665,55.86 13.499,55.857 C13.074,55.848 12.945,55.583 13.173,55.186 C13.413,54.766 14.972,54.013 15.598,54.013 C15.891,53.754 15.693,53.679 15.512,53.679 C15.209,53.679 14.872,53.262 14.938,52.969 C15.006,52.671 12.163,53.004 11.925,53.322 C11.743,53.564 7.167,54.199 6.718,54.043 L6.706,53.688 C6.935,53.573 8.424,53.278 10.014,53.03 C12.924,52.578 13.633,52.259 11.726,52.259 C11.14,52.259 10.601,52.163 10.426,52.029 C10.176,51.837 9.832,51.832 8.38,51.997 C5.71,52.301 4.16,52.51 3.796,52.614 C3.592,52.134 4.146,51.787 5.016,51.497 C5.764,51.248 5.299,51.029 4.342,51.179 C3.927,51.245 3.225,51.351 2.782,51.416 L2.647,50.933 C3.017,50.603 3.319,50.306 3.319,50.273 C3.319,50.24 2.819,50.16 2.209,50.096 C0.762,49.943 -0.01,49.566 -1.77635684e-15,49.017 C0.005,48.727 1.165,48.34 2.243,48.267 C2.687,48.236 3.696,48.092 4.484,47.946 C5.272,47.8 6.482,47.646 7.172,47.605 C7.95184638,47.5540853 8.72920206,47.4703444 9.502,47.354 C13.173,46.753 13.999,46.604 14.158,46.52 C14.255,46.468 13.973,46.343 13.531,46.243 C13.086,46.142 12.727,45.963 12.727,45.841 C12.727,45.56 14.533,44.949 16.172,44.676 C16.969,44.543 17.559,44.346 17.752,44.146 C17.925,43.968 18.525,43.744 19.118,43.635 C20.465,43.388 20.428,43.153 18.965,42.649 C18.652,42.541 18.431,42.366 18.475,42.259 C18.577,42.018 19.407,41.649 19.851,41.649 C20.013,41.39 19.363,41.314 18.629,41.314 C17.421,41.314 16.936,41.144 17.519,40.924 C18.042,40.727 15.427,40.834 14.135,41.061 C12.527,41.345 11.651,41.226 11.651,40.725 C11.651,40.493 12.12,40.19 13.411,39.584 C14.626,39.013 15.096,38.714 14.933,38.616 C14.623,38.43 14.929,38.239 16.131,37.869 C17.827,37.346 19.173,36.471 18.996,36.004 C18.876,35.686 19.537,35.512 22.269,35.144 C23.626,34.961 24.986,34.696 25.29,34.554 C25.594,34.414 26.238,34.254 26.721,34.199 C28.053,34.05 30.601,33.449 30.999,33.19 C31.193,33.064 31.596,32.955 31.895,32.948 C32.193,32.942 32.598,32.872 32.795,32.793 C30.91,32.572 30.099,32.432 29.897,32.185 C28.911,32.125 28.898,32.115 29.17,31.955 C29.9861285,31.8413277 30.1779554,31.8090091 30.349,31.725 C31.376,31.977 31.548,31.982 31.812,31.828 C32.32,31.884 32.828,31.96 33.388,31.964 C33.949,31.967 34.61,32.077 34.856,32.208 C35.14,32.125 35.058,32.058 35.113,31.977 C35.166,31.895 35.042,31.787 34.835,31.737 C34.629,31.687 34.495,31.547 34.538,31.426 C34.617,31.203 35.419,31.072 37.902,30.878 C40.145,30.702 40.769,30.608 40.769,30.444 C40.351,30.287 40.232,30.138 40.232,29.953 C40.232,29.708 40.352,29.619 40.68,29.619 C41.195,29.619 41.283,29.361 40.807,29.245 C40.631,29.202 39.724,29.207 38.791,29.256 C36.076,29.399 34.989,29.352 34.421,29.065 C34.132,28.919 33.845,28.83 33.781,28.866 C33.718,28.903 33.7,28.721 33.741,28.462 C33.83,27.898 33.577,27.81 31.738,27.762 C30.637,27.734 30.551,27.709 30.934,27.524 C31.564,27.22 33.873,26.784 35.25,26.708 C35.954,26.669 36.618,26.532 36.857,26.376 C37.367,26.044 37.673,26.039 38.017,26.36 C38.172,26.505 38.604,26.61 39.035,26.607 C40.363,26.601 45.318,26.131 45.991,25.947 C46.619,25.777 46.638,25.749 46.506,25.201 C46.422,24.856 46.441,24.564 46.553,24.459 C46.681,24.339 46.676,24.215 46.536,24.058 C46.108,23.577 46.652,23.478 49.267,23.558 C51.299,23.621 51.933,23.587 52.345,23.391 C52.781,23.183 54.748,22.897 56.09,22.846 C56.287,22.838 56.851,22.765 57.344,22.683 L58.24,22.533 C56.99,22.345 55.66,22.329 54.477,22.376 C53.2232685,22.4241594 51.968641,22.4451643 50.714,22.439 C49.827,22.426 48.094,22.539 46.862,22.689 C44.424,22.985 41.91,23.192 40.828,23.186 C40.451,23.184 40.091,23.248 40.03,23.328 C39.968,23.408 39.665,23.483 39.358,23.495 C38.798,23.731 38.617,23.745 38.395,23.687 C38.492,23.908 38.486,23.933 38.216,23.935 C36.971,23.74 36.755,23.694 36.904,23.919 C36.958,24 36.842,24.106 36.646,24.154 C36.29,23.935 36.007,23.854 35.618,23.854 C35.191,23.854 34.961,23.927 34.988,24.055 C33.622,24.087 32.886,23.699 32.882,23.391 C32.526,22.614 32.821,22.1 33.171,22.1 C33.273,21.841 33.368,21.76 33.546,21.753 C34.136,21.729 34.512,21.628 34.911,21.384 C35.269,21.166 36.111,21.25 36.111,21.504 C35.738,21.455 35.517,21.547 35.378,21.706 C35.575,21.744 35.605,21.781 35.508,22.017 C35.432,22.2 35.474,22.378 35.612,22.46 C36.731,22.378 37.185,22.332 37.367,22.227 C38.168,22.403 38.246,22.385 38.357,22.146 C38.434,21.982 38.484,21.793 38.468,21.724 C38.834,21.598 38.978,21.512 39.016,21.408 C39.054,21.302 39.321,21.193 39.61,21.164 C39.9,21.135 40.226,20.997 40.336,20.856 C40.761,20.791 40.776,20.714 40.714,20.554 C41.826,20.225 41.845,20.227 41.848,20.528 C42.283,20.222 42.246,20.141 41.766,20.029 C41.462,19.957 41.338,19.819 41.358,19.574 C41.389,19.184 42.013,18.893 42.733,18.932 C43.403,18.969 43.995,18.754 43.995,18.473 C43.995,18.293 44.173,18.24 44.667,18.273 C45.389,18.323 46.604,18.135 47.041,17.906 C46.5324999,17.7294306 46.1144339,17.6994259 45.697,17.662 C44.173,17.528 42.147,17.532 41.415,17.67 C40.568,17.568 40.33,17.415 40.141,17.145 C39.911,16.817 39.881,16.667 40.035,16.619 C40.18,16.574 40.145,16.474 39.928,16.316 C40.002,15.956 40.252,15.75 40.949,15.75 C41.401,15.75 41.666,15.827 41.669,15.96 C42.212,16.066 42.44,16.052 43,15.828 C43.192,15.752 43.614,15.684 43.938,15.678 C44.681,15.664 44.922,15.249 44.188,15.249 C43.897,15.249 43.63,15.14 43.572,14.999 C43.502,14.829 43.58,14.748 43.812,14.748 C44.002,14.748 44.221,14.654 44.299,14.538 C44.505,14.239 45.235,13.885 45.423,13.993 C45.757,13.822 46.03,13.745 46.302,13.745 C46.574,13.745 47.235,13.623 47.77,13.474 C48.615,13.238 48.69,13.184 48.346,13.064 C48.126,12.987 46.631,12.934 45.021,12.947 C43.411,12.96 41.988,12.909 41.859,12.835 C41.359,13.102 35.788,13.267 35.65,13.058 C35.317,13.303 35.163,13.355 34.863,13.355 C33.896,13.364 33.716,13.405 33.646,13.34 C33.575,13.275 33.718,13.079 33.963,12.905 L34.408,12.589 C34.387,12.361 35.237,12.386 35.735,12.643 C36.22,12.893 36.827,12.811 36.827,12.494 C36.827,12.348 37.181,12.283 37.992,12.279 C38.722,12.275 39.157,12.341 39.157,12.456 C39.542,12.168 40.028,12.062 41.128,11.985 C41.965,11.925 43.16,11.771 43.782,11.642 C44.404,11.512 45.17,11.399 45.484,11.39 C45.798,11.381 46.459,11.271 46.951,11.146 C47.791,10.932 47.697,10.923 45.428,11.009 C44.098,11.059 42.888,11.101 42.74,11.103 C42.593,11.104 40.738,11.282 38.62,11.497 C36.5,11.713 34.19,11.912 33.486,11.94 C32.781,11.968 32.242,12.047 32.286,12.116 C31.172,12.242 30.099,12.352 29.212,12.485 C27.691,12.713 24.113,12.949 24.599,12.788 C24.723,12.748 24.779,12.645 24.723,12.561 C25.402,12.396 25.91,12.25 26.255,12.076 C26.6,11.901 27.044,11.688 27.241,11.603 C27.889,11.321 38.457,9.691 40.949,9.488 C41.688,9.428 43.825,9.23 45.697,9.048 C47.57,8.866 50.041,8.644 51.189,8.555 C52.337,8.465 53.665,8.284 54.139,8.151 C54.762,7.976 55.035,7.961 55.125,8.095 C55.238,8.265 57.123,8.219 59.405,7.989 C59.75,7.954 60.838,7.879 61.824,7.821 C63.592,7.718 66.286,7.371 67.794,7.053 C68.22,6.963 68.644,6.933 68.736,6.986 C68.829,7.04 70.077,6.917 71.511,6.715 C73.631,6.415 74.194,6.385 74.527,6.551 C74.863,6.719 75.293,6.691 76.892,6.397 C79.554,5.907 83.028,5.271 84.76,4.957 C85.548,4.813 86.693,4.589 87.305,4.458 C87.917,4.328 88.683,4.222 89.007,4.222 C89.332,4.222 89.96,4.115 90.404,3.982 C91.151,3.759 92.682,3.512 96.765,2.953 C98.3241253,2.75051174 99.8776613,2.50709442 101.424,2.223 C102.409,2.049 104.022,1.783 105.008,1.632 L107.338,1.272 C109.429,0.95 109.828,0.956 110.244,1.317 C110.468,1.511 110.652,1.755 110.652,1.86 C110.86,2.019 111.106,2.019 111.33,2.03 C111.673,2.046 111.71,2.1 111.56,2.362 C111.341,2.744 111.517,2.95 111.845,2.696 C112.215,2.41 112.13,2.667 111.705,3.123 C111.482,3.362 111.035,3.576 110.622,3.641 C110.021,3.736 109.952,3.788 110.145,4.005 C110.434,4.33 110.19,4.35 121.672,3.055 C122.46,2.965 123.872,2.857 124.808,2.813 C125.744,2.768 127.438,2.653 128.571,2.557 C129.704,2.46 131.196,2.351 131.886,2.314 C132.576,2.278 133.459,2.17 133.848,2.075 C134.238,1.98 135.784,1.897 137.284,1.892 C138.784,1.886 140.118,1.848 140.249,1.807 C140.571,1.706 144.77,1.501 145.769,1.537 C146.211,1.554 146.696,1.671 146.847,1.798 C147.184,2.083 148.044,2.111 152.044,1.971 C153.883,1.906 155.571,1.759 156.125,1.615 C156.849,1.427 158.049,1.375 161.232,1.395 C163.521,1.411 167.329,1.365 169.694,1.296 C174.487,1.156 174.231,1.154 179.191,1.355 C182.402,1.485 184.255,1.49 187.075,1.378 C187.485,1.224 187.344,1.111 187.344,1.015 C187.344,0.9 187.847,0.873 188.822,0.937 C189.635,0.991 192.074,1.111 194.242,1.204 C196.411,1.297 199.192,1.451 200.424,1.544 C205.374,1.924 207.261,2.057 209.832,2.21 C216.26,2.593 219.649,2.745 223.181,2.81 C224.807,2.841 226.823,2.917 227.661,2.98 C228.585218,3.04545835 229.511466,3.07814553 230.438,3.078 C231.128,3.07 232.498,3.138 233.484,3.228 C234.47,3.318 237.661,3.425 240.577,3.466 C243.492,3.506 246.234,3.612 246.669,3.702 C247.105,3.792 248.094,3.906 248.869,3.955 C249.643,4.005 250.529,4.085 250.839,4.132 C251.899,4.294 253.553,4.403 255.972,4.472 C258.102,4.534 260.172,4.681 263.229,4.988 C263.722,5.038 264.407,5.098 264.752,5.124 C265.097,5.15 265.984,5.219 266.723,5.278 C267.463,5.338 268.713,5.431 269.5,5.488 C270.289,5.544 270.974,5.613 271.023,5.641 C271.073,5.67 271.572,5.738 272.133,5.794 C272.693,5.849 273.27,5.937 273.413,5.989 C273.558,6.04 274.39,6.105 275.262,6.132 C277.657,6.208 277.654,6.207 277.654,6.477 C277.654,6.615 277.739,6.727 277.844,6.727 C277.815,6.399 277.874,6.372 278.087,6.449 C279.062,6.561 279.199,6.669 279.217,6.895 C278.418,6.628 277.998,6.655 278.124,7.02 C277.971,6.999 277.466,6.975 276.489,7.051 C274.807,7.181 273.538,7.146 271.203,6.901 C270.267,6.802 269.057,6.681 268.515,6.632 C267.973,6.582 267.435,6.513 267.32,6.478 C266.93,6.856 266.76,6.892 266.351,6.808 C265.709,6.677 265.297,6.627 263.587,6.474 C262.897,6.412 262.285,6.334 262.226,6.3 C262.1,6.228 259.704,6.216 256.42,6.27 C254.337,6.306 252.868,6.21 251.772,5.968 C251.154,5.832 246.834,5.773 246.834,5.901 C246.834,5.967 247.378,6.075 248.044,6.141 C248.708,6.208 249.414,6.291 249.611,6.328 C250.994,6.582 254.696,6.868 257.674,6.948 C258.364,6.968 259.014,7.034 259.118,7.096 C259.291,7.199 264.778,7.598 265.073,7.529 C265.143,7.512 265.805,7.551 266.544,7.616 C267.687,7.715 270.605,7.915 271.337,7.944 C271.602,7.954 271.633,8.17 271.39,8.31 C271.216,8.41 269.865,8.434 268.643,8.358 C268.27,8.334 267.899,8.216 267.819,8.095 C267.71,7.932 267.402,7.905 266.616,7.988 C266.034,8.051 265.505,8.132 265.439,8.168 C264.897,7.841 264.732,7.792 264.68,7.871 C264.579,8.023 260.962,7.958 259.914,7.785 C259.569,7.728 258.961,7.665 258.563,7.647 C258.165,7.627 257.661,7.524 257.443,7.415 C257.047,7.572 256.807,7.681 256.465,7.707 C255.048,7.814 253.065,7.804 251.492,7.682 C250.362,7.594 249.879,7.605 250.054,7.715 C250.76,8.155 249.434,8.373 247.371,8.155 C245.541,7.961 245.215,7.951 244.424,8.063 C244.016,8.121 243.444,8.109 243.152,8.036 C242.385,7.844 238.396,7.505 236.62,7.48 C235.722715,7.46523451 234.826194,7.41987482 233.932,7.344 C233.292,7.281 232.002,7.191 231.065,7.144 C230.129,7.097 227.911,6.948 226.138,6.813 C224.18506,6.66689082 222.23021,6.54754629 220.274,6.455 C217.91,6.355 217.624,6.371 217.521,6.621 C217.424,6.858 217.112,6.898 215.411,6.892 C214.313,6.888 213.052,6.946 212.609,7.02 L211.803,7.156 L213.147,7.342 C213.886,7.445 214.773,7.527 215.117,7.524 C215.463,7.521 216.874,7.636 218.253,7.778 C219.633,7.92 222.253,8.121 224.077,8.223 C225.9,8.326 227.571,8.446 227.79,8.49 C228.01,8.534 229.824,8.643 231.822,8.733 C235.413,8.893 237.93,9.025 239.845,9.151 C240.387,9.187 242.247,9.292 243.977,9.385 C245.708,9.478 247.24,9.588 247.382,9.629 C247.524,9.669 247.802,9.76 247.998,9.829 C248.195,9.899 248.667,9.977 249.046,10.002 C249.424,10.028 249.828,10.168 249.942,10.314 C250.107,10.524 250.574,10.587 252.21,10.622 C253.343,10.646 254.35,10.712 254.449,10.768 C254.548,10.824 255.233,10.915 255.972,10.968 C259.505,11.226 263.038,11.436 264.662,11.484 C265.648,11.513 267.745,11.668 269.322,11.828 C270.898,11.988 272.914,12.145 273.802,12.176 C279.94,12.386 284.843,12.653 287.419,12.914 C288.306,13.004 289.861,13.126 290.874,13.185 C291.887,13.245 292.759,13.357 292.811,13.435 C291.987,13.599 291.493,13.621 291.213,13.64 C290.587,13.492 290.254,13.516 289.89,13.609 C289.52,13.704 288.71,13.731 288.055,13.669 C287.41,13.609 283.979,13.529 280.431,13.494 C276.883,13.458 272.65,13.38 271.024,13.32 C268.125,13.215 267.304,13.28 269.205,13.464 C269.733,13.514 270.203,13.593 270.251,13.637 C270.379,13.757 269.724,14.051 269.18,14.119 C268.547,14.199 268.347,14.41 268.888,14.429 C269.127,14.436 270.37,14.513 271.651,14.599 C272.932,14.684 275.451,14.799 277.251,14.853 C280.207,14.943 280.521,14.98 280.521,15.244 C280.521,15.612 281.241,15.699 285.589,15.855 C287.342,15.918 288.819,16.033 288.87,16.111 C288.921,16.188 289.317,16.251 289.749,16.251 C291.221,16.251 290.809,16.713 288.999,17.089 C288.489,17.195 287.804,17.268 287.477,17.251 C285.294,17.138 285.867,17.467 288.315,17.733 C289.301,17.84 290.671,17.963 291.361,18.008 C292.051,18.053 293.301,18.164 294.139,18.256 C294.976,18.347 296.669,18.472 297.902,18.532 C299.419,18.607 300.199,18.713 300.321,18.862 C300.42,18.982 301.059,19.129 301.754,19.189 C302.444,19.249 303.089,19.389 303.188,19.502 C303.286,19.614 303.956,19.757 304.675,19.819 C305.395,19.881 306.165,20.042 306.385,20.177 C306.639,20.332 307.414,20.449 308.482,20.496 C310.784,20.596 312.588,20.784 312.688,20.935 C312.793,21.093 311.224,21.32 310.983,21.181 C310.803,21.323 311.085,21.443 311.43,21.504 C312.111,21.623 312.24,21.831 311.744,22.01 C311.158,22.222 311.978,22.557 313.82,22.86 C315.367,23.113 316.345,23.427 315.632,23.441 C314.962,23.454 315.996,23.749 317.072,23.851 C317.712,23.913 318.329,24.035 318.443,24.124 C318.558,24.212 319.161,24.361 319.785,24.455 C321.517,24.715 321.498,24.925 319.731,25.054 C319.071,25.102 318.468,25.245 318.286,25.397 C318.031,25.609 317.72,25.635 316.584,25.536 C314.274,25.335 313.816,25.374 313.469,25.802 C313.299,26.012 313.195,26.236 313.238,26.301 C313.281,26.365 313.858,26.471 314.523,26.535 C315.187,26.599 315.811,26.71 315.91,26.783 C316.008,26.855 316.472,26.967 316.94,27.032 C318.225,27.21 317.961,27.446 316.477,27.446 C315.755,27.446 315.102,27.503 315.027,27.572 C314.953,27.641 314.201,27.697 313.357,27.697 C312.29,27.697 311.799,27.761 311.746,27.906 C311.693,28.049 311.886,28.115 312.356,28.116 C312.734,28.116 313.326,28.186 313.67,28.27 C314.015,28.354 314.98,28.47 315.814,28.529 C316.648,28.587 317.422,28.705 317.533,28.791 C318.682,28.998 318.491,29.054 317.523,29.136 C316.38,29.233 315.076,29.477 314.387,29.723 C313.949,29.879 314.63,30.051 316.671,30.299 C317.681,30.422 318.508,30.567 318.508,30.621 C318.508,30.676 319.032,30.689 319.673,30.651 C320.609,30.596 320.837,30.63 320.837,30.826 C320.837,31.129 320.27,31.624 319.927,31.621 C320.171,31.318 320.163,31.294 319.891,31.292 C319.715,31.29 319.524,31.406 319.465,31.549 C319.375,31.769 319.05,31.795 317.275,31.72 C315.052,31.627 314.505,31.738 314.915,32.198 C315.601,32.968 318.399,33.796 320.323,33.796 C321.485,33.796 322.092,33.998 322.092,34.386 C322.092,34.58 321.805,34.63 320.703,34.626 C319.939,34.625 318.992,34.544 318.598,34.447 C318.203,34.35 316.346,34.237 314.47,34.195 C311.153,34.122 311.058,34.129 311.032,34.455 C311.006,34.777 311.225,35.008 311.609,35.066 C311.708,35.081 312.481,35.215 313.327,35.364 C316.097,35.85 318.556,36.147 321.073,36.297 C323.404,36.437 324.2,36.628 323.959,36.992 C323.593,37.289 323.475,37.377 323.303,37.365 C323.125,37.543 322.89,37.65 322.555,37.708 C321.832,37.835 321.661,38.136 322.031,38.629 C322.228,38.892 322.25,39.049 322.109,39.207 C321.878,39.466 322.029,39.643 322.479,39.643 C322.809,39.752 322.862,39.913 322.927,40.073 C323.037,40.338 322.917,40.353 321.449,40.25 C320.571,40.19 319.549,40.095 319.179,40.04 C318.508,40.345 318.378,40.53 318.219,40.613 C317.809,40.827 318.055,41.79 318.569,41.983 C318.239,42.173 318.239,42.173 318.598,42.317 C318.948,42.457 318.458,42.517 316.626,42.559 C315.862,42.576 315.283,42.801 315.283,43.08 C315.283,43.23 315.097,43.32 314.79,43.322 C314.487311,43.3270061 314.185853,43.3618412 313.89,43.426 C313.508,43.521 313.502,43.541 313.8,43.752 C313.975,43.876 314.338,43.979 314.608,43.982 C314.878,43.985 315.63,44.251 316.28,44.572 C316.936,44.897 317.723,45.157 318.049,45.157 C319.134,45.157 320.829,45.37 320.745,45.496 C321.137108,45.5874753 321.291051,45.6983312 321.335,45.863 C321.417,46.231 320.359,46.864 319.813,46.775 C319.267,47.128 317.175,47.195 316.339,46.988 C315.984,46.9 314.149,46.808 312.263,46.783 C309.073,46.741 308.132,46.826 309.325,47.05 C309.595,47.1 310.18,47.218 310.624,47.312 C311.140952,47.41375 311.665375,47.4729483 312.192,47.489 C312.61,47.493 312.953,47.572 312.953,47.664 C313.388,47.831 313.68,47.913 313.883,48.014 C314.246,48.196 314.245,48.2 313.826,48.395 C313.09,48.737 313.318,49.059 314.554,49.425 C315.187,49.613 315.744,49.877 315.79,50.01 C315.836,50.144 315.945,50.297 316.032,50.35 C316.306,50.518 315.978,51.033 315.668,50.922 C315.553,50.979 315.4,51.215 315.151,51.447 C314.824,51.751 314.488,51.876 313.933,51.896 C313.278,52.093 312.539,52.105 311.596,52.06 C310.225,51.994 309.821,52.029 309.58,52.231 C309.247,52.513 307.487,52.629 306.569,52.43 C305.819,52.593 305.574,52.676 305.342,52.676 C304.802,52.676 304.352,52.836 304.352,53.028 C304.755,53.178 304.94,53.291 305.024,53.431 C305.118,53.588 305.819,53.801 306.87,53.991 C308.94,54.367 310.464,54.941 310.32,55.291 C309.824,55.395 309.754,55.421 309.809,55.505 C309.864,55.587 309.698,55.89 309.439,56.176 C309.094,56.559 308.875,56.668 308.609,56.59 C308.406,56.719 308.17,56.795 307.828,56.805 C307.485,56.813 306.638,56.95 305.947,57.108 L304.689,57.395 L305.089,57.793 C305.309,58.011 305.564,58.19 305.655,58.19 C305.747,58.19 306.098,58.312 306.436,58.462 C307.026,58.723 307.04,58.75 306.779,59.122 C306.607,59.366 306.573,59.548 306.687,59.613 C306.786,59.67 306.815,59.795 306.752,59.89 C306.115,59.874 305.813,60.06 305.517,60.193 L304.979,60.435 C306.16,60.553 306.489,60.981 306.044,61.141 C305.617,61.096 305.304,61.195 304.976,61.366 C304.570287,61.5642066 304.140762,61.7093981 303.698,61.798 C303.324,61.864 302.908,62.018 302.776,62.142 C302.462,62.435 302.339,62.429 300.674,62.032 C299.179,61.675 298.758,61.709 298.145,62.232 C297.799,62.526 297.66,62.54 296.724,62.379 C295.495,62.167 293.182,62.14 293.314,62.339 C293.364,62.415 293.994,62.571 294.713,62.686 C296.545,62.977 296.751,63.04 296.45,63.213 C295.929,63.513 298.263,64.223 300.545,64.457 C301.161,64.52 301.705,64.631 301.752,64.703 C301.8,64.775 301.67,65.035 301.462,65.28 C301.116,65.691 301.109,65.748 301.376,66.022 C301.534,66.186 301.664,66.361 301.664,66.412 C301.664,66.618 298.63,66.321 297.633,66.016 C296.198,65.579 293.294,65.26 293.026,65.51 C292.884,65.642 292.882,65.756 293.021,65.912 C293.209,66.122 293.496,66.212 295.886,66.81 C296.631,66.996 297.006,67.174 297.006,67.341 C297.006,67.553 296.794,67.575 295.676,67.481 C294.824,67.408 294.306,67.431 294.232,67.541 C294.457,67.714 294.515,67.753 294.464,67.8 C294.344,67.912 291.806,67.416 291.554,67.23 C291.355,67.085 288.739,66.71 288.181,66.746 C288.008,66.758 287.867,66.861 287.867,66.976 C287.867,67.091 287.825,67.286 287.774,67.41 C287.686,67.624 289.874,68.057 293.645,68.571 C294.212,68.648 294.968,68.825 295.325,68.965 C295.682,69.104 296.226,69.218 296.535,69.218 C297.346,69.22 298.512,69.551 298.323,69.726 C298.236,69.808 297.145,69.896 295.898,69.922 C294.652,69.948 293.645,69.982 293.662,69.998 C293.678,70.013 294.09,70.172 294.577,70.35 C295.425,70.661 295.445,70.683 295.057,70.877 C294.754,71.028 294.43,71.034 293.76,70.9 C292.67,70.682 292.526,70.679 292.526,70.875 C292.526,70.96 292.766,71.078 293.061,71.139 C294.041,71.339 293.829,71.557 292.654,71.557 C291.97,71.557 291.278,71.663 290.942,71.819 C290.602,71.977 290.221,72.035 289.982,71.964 C289.47,71.813 281.057,71.754 281.156,71.904 C281.364,72.218 279.014,72.216 277.008,71.9 C272.946,71.261 269.49,70.898 267.261,70.875 C266.029,70.863 264.174,70.75 263.139,70.623 C261.776187,70.464459 260.410633,70.3304373 259.043,70.221 C257.824,70.127 256.776,70.021 256.713,69.985 C256.65,69.95 255.994,69.873 255.255,69.814 C254.597643,69.7629486 253.940929,69.7039443 253.285,69.637 C252.566,69.556 249.297,69.386 246.923,69.306 C244.890015,69.2295892 242.858888,69.1098954 240.831,68.947 C240.239,68.897 237.941,68.825 235.724,68.787 C233.506,68.747 230.886,68.653 229.9,68.577 C228.915,68.503 226.19,68.448 223.843,68.457 C220.296,68.471 219.55,68.516 219.408,68.72 C218.97,68.578 218.74,68.534 218.387,68.599 C217.553,68.415 217.199,68.316 216.874,68.297 C216.55417,68.278705 216.236412,68.2338844 215.924,68.163 C214.85,67.866 213.731,67.78 213.28,67.959 C212.918,68.103 212.015,67.933 212.14,67.745 C212.186,67.675 211.323,67.598 210.221,67.574 C207.255,67.507 206.948,67.477 206.612,67.217 C206.407,67.525 206.34,67.611 206.158,67.571 C205.264,67.506 205.083,67.447 205.083,67.376 C205.083,67.306 204.953,67.202 204.794,67.145 C204.687,67.483 204.651,67.523 204.499,67.433 C204.376,67.36 203.511,67.277 202.574,67.248 C200.605,67.188 200.898,67.188 191.644,67.218 C187.751,67.232 184.068,67.188 183.458,67.122 C182.848,67.055 182.215,67.049 182.049,67.109 C181.744,67.218 175.891,67.433 174.092,67.402 C172.686,67.377 171.091,68.148 171.978,68.424 C172.11,68.464 172.018,68.583 171.754,68.714 C171.508,68.834 171.262,68.997 171.207,69.074 C171.009,69.354 169.487,69.511 169.056,69.295 C168.783,69.159 168.062,69.111 166.927,69.151 C165.983,69.185 162.882,69.253 160.037,69.301 C157.191,69.35 154.667,69.435 154.427,69.491 C154.188,69.547 153.171,69.605 152.167,69.619 C151.163,69.633 150.18,69.729 149.983,69.832 C149.631,70.017 147.969,70.32 147.691,70.25 C147.348,70.165 146.711,70.186 146.131,70.303 C145.786,70.373 145.342,70.417 145.145,70.402 C144.231,70.328 143.304,70.404 142.368,70.511 C141.432,70.619 140.317,70.706 139.891,70.704 C139.465,70.702 139.021,70.772 138.905,70.859 C138.789,70.946 138.432,71.069 138.112,71.133 C137.53,70.716 137.382,70.696 136.23,70.802 C135.516,70.867 133.641,70.937 132.065,70.958 C130.488,70.98 128.763,71.085 128.232,71.193 C127.883229,71.2681252 127.532425,71.3334841 127.18,71.389 C127.132,71.389 127.193,71.502 127.316,71.64 C127.439,71.778 127.812,71.89 128.144,71.89 C128.75,71.999 128.799,72.15 128.858,72.295 C127.879,72.058 127.772,72.035 127.718,72.186 C127.316,72.415 127.135,72.485 126.913,72.496 C126.691,72.507 125.462,72.602 124.18,72.706 C122.9,72.81 120.319,72.925 118.446,72.962 C116.574,72.998 114.84,73.07 114.594,73.12 C113.759,73.29 109.169,73.687 106.71,73.8 C102.152,74.01 98.697,74.618 97.985,75.335 C97.762,75.559 97.369,75.74 97.087,75.749 C94.768,75.819 91.548,76.044 90.135,76.235 C89.544,76.315 88.506,76.426 87.83,76.483 C87.1170061,76.5435274 86.4065137,76.6305878 85.7,76.744 C85.205,76.832 84.77,76.904 84.735,76.904 C84.699,76.904 84.67,76.711 84.67,76.476 C84.67,76.241 84.592,76.093 84.496,76.148 Z"/>
</svg>
