<svg xmlns="http://www.w3.org/2000/svg" width="623" height="744" viewBox="0 0 623 744">
  <g fill="none" fill-rule="evenodd" transform="translate(0 -1)">
    <path fill="#F5F5F6" fill-rule="nonzero" d="M190.49,575.43 C249.429542,580.711957 307.890084,590.405797 365.38,604.43 C394.77,611.65 423.64,620.84 453.03,628.06 C483.03,635.44 539.86,634.16 570.49,637.58 C582.34,638.9 583.49,645.58 575.01,648.71 C568.01,651.28 529.33,657.04 522.07,658.71 C511.24,661.2 499.69,667.71 497.83,678.66 C497.37,681.38 497.52,684.33 496.1,686.66 C484,706.9 429.44,696 411,694.85 C392.81,693.74 378.79,696.85 366.81,710.97 C356.6,722.97 350.09,737.61 334,742.97 C313.54,749.79 229.35,734.41 210.33,726.15 C178.91,712.51 234.68,695.9 205.42,678.15 C195.09,671.88 177.47,663.61 159.85,655.87 C128.562013,642.088236 95.6216538,632.414526 61.85,627.09 C55.41,626.09 49.34,625.09 44.55,624.09 C43.35,623.85 42.02,623.51 41.83,621.88 C41.7608785,620.91375 42.1277343,619.967262 42.83,619.3 L51.05,610.95 C53.18,608.79 55.37,606.58 58.14,605.34 C61.64,603.77 65.63,603.92 69.46,604.02 C84.29,604.4 107.06,608.59 116.85,594.1 C120.24,589.1 115.27,581.2 118.92,576.36 C125.33,567.89 142.86,569.02 152.57,569.82 C165.32,570.84 177.77,574.27 190.49,575.43 Z"/>
    <polygon fill="#9C98A7" fill-rule="nonzero" points="575.01 440.37 575.01 648.68 592.56 639.43 592.56 434.68"/>
    <polygon fill="#AAA7B4" fill-rule="nonzero" points="575.01 448.54 575.01 648.68 564.08 647.02 564.08 446.88"/>
    <polygon fill="#9C98A7" fill-rule="nonzero" points="477.29 637.45 575.01 585.87 575.01 573.58 564.08 572.05 477.29 616.54"/>
    <polygon fill="#9C98A7" fill-rule="nonzero" points="564.08 572.05 496.99 606.44 505.77 609.01 575.01 573.58"/>
    <polygon fill="#9C98A7" fill-rule="nonzero" points="488.22 485.91 488.22 694.22 505.77 684.97 505.77 480.22"/>
    <polygon fill="#AAA7B4" fill-rule="nonzero" points="488.22 494.08 488.22 694.22 477.29 692.55 477.29 492.42"/>
    <polygon fill="#9C98A7" fill-rule="nonzero" points="129.84 369.7 129.84 578.01 147.38 568.75 147.38 364.01"/>
    <polygon fill="#AAA7B4" fill-rule="nonzero" points="129.84 377.87 129.84 578.01 118.9 576.34 118.9 376.21"/>
    <polygon fill="#9C98A7" fill-rule="nonzero" points="32.11 566.78 129.84 515.2 129.84 502.91 118.9 501.38 32.11 545.87"/>
    <polygon fill="#AAA7B4" fill-rule="nonzero" points="118.9 501.38 51.82 535.77 60.59 538.34 129.84 502.91"/>
    <polygon fill="#9C98A7" fill-rule="nonzero" points="43.05 415.24 43.05 623.54 60.59 614.29 60.59 409.55"/>
    <polygon fill="#AAA7B4" fill-rule="nonzero" points="43.05 423.41 43.05 623.54 32.11 621.88 32.11 421.74"/>
    <polygon fill="#B8B5C0" fill-rule="nonzero" points="622.75 439.08 622.75 427.43 147.79 352.14 106.63 368.82 106.63 380.47 588.95 456.92"/>
    <polygon fill="#B8B5C0" fill-rule="nonzero" points="578.84 461.85 578.84 450.2 94.5 373.84 53.33 390.52 53.33 402.16 545.03 479.69"/>
    <polygon fill="#B8B5C0" fill-rule="nonzero" points="534.92 486.97 534.92 473.8 41.2 395.54 .04 412.21 .04 425.39 501.12 504.81"/>
    <polygon fill="#D5D3D9" fill-rule="nonzero" points="534.92 473.8 41.2 395.54 .04 412.21 501.12 491.64"/>
    <polygon fill="#D5D3D9" fill-rule="nonzero" points="578.84 450.61 94.5 373.84 53.33 390.52 545.03 468.46"/>
    <polygon fill="#D5D3D9" fill-rule="nonzero" points="622.75 427.43 147.79 352.14 106.63 368.82 588.95 445.28"/>
    <path fill="#726C82" fill-rule="nonzero" d="M85.23,66.28 C91.54,65.86 97.93,65.42 103.93,63.43 C110.63,61.21 116.57,57.15 123.11,54.51 C141.52,47.07 164.36,50.88 179.87,38.51 C183.73,35.42 187.03,31.04 187.01,26.09 C187.01,17.09 176.83,11.97 168.19,9.36 C142.98,1.77 116.13,-2.55 90.31,2.58 C67.31,7.15 46.45,18.91 26.31,30.95 C16.52,36.81 6.21,43.44 1.84,53.95 C-0.04,58.45 -0.59,63.86 1.84,68.06 C6.96,76.74 28.99,70.06 37.34,69.47 L85.23,66.28 Z" opacity=".4" transform="translate(317 398)"/>
    <path fill="#E29700" fill-rule="nonzero" d="M337.44,134.4 L322.74,142.31 C319.553333,144.036667 316.28,145.603333 312.92,147.01 L312.92,147.01 C304.799938,150.425326 296.309242,152.881923 287.62,154.33 L279.69,155.65 L279.21,145.74 C278.809836,137.527848 277.709171,129.364863 275.92,121.34 L272.69,106.9 L268.19,85.9 L268.19,85.9 C265.553493,75.2995537 264.478825,64.3709581 265,53.46 L265,53.46 C265.322318,46.344642 267.25046,39.3944414 270.64,33.13 L271.11,32.28 C274.976656,25.1271018 280.483895,18.9927161 287.18,14.38 L289.66,12.67 C298.236315,6.75865197 308.139244,3.05578798 318.49,1.89 L322.64,1.43 C334.645688,0.0977543853 346.79272,1.85320526 357.93,6.53 L357.93,6.53 C365.215241,9.5950893 371.857768,14.0053472 377.51,19.53 L377.51,19.53 C383.941541,25.7870705 389.568234,32.8212757 394.26,40.47 L394.26,40.47 C400.365231,50.422865 405.59807,60.8851961 409.9,71.74 L417.19,90.19 L412,97.56 C407.401358,104.028614 401.308682,109.291094 394.24,112.9 L394.24,112.9 L386.99,103.67 L358.99,77.52 L337.44,134.4 Z"/>
    <path fill="#726C82" fill-rule="nonzero" d="M253.23,669.18 L214,705.55 C211.532236,707.840052 210.209586,711.108208 210.39,714.47 L210.39,714.47 C210.487244,716.386127 211.768482,718.038564 213.6,718.61 L213.6,718.61 C218.499413,720.157739 223.802329,719.80064 228.45,717.61 L277.73,694.26 C280.695397,692.852354 282.510888,689.786982 282.32,686.51 L281.44,671.33 C281.325177,669.410671 280.119933,667.727217 278.34,667 L274.55,665.47 L253.23,669.18 Z"/>
    <path fill="#EACDC8" fill-rule="nonzero" d="M253.69,672.13 L239,685.61 C238.521588,686.051909 238.345788,686.732752 238.550447,687.351037 C238.755105,687.969322 239.302409,688.410809 239.95,688.48 L247.95,689.32 C248.296061,689.359911 248.645909,689.289942 248.95,689.12 L276.11,673.86 C276.972552,673.380699 277.491047,672.455922 277.45,671.47 L268.67,616.7 L239.34,622.88 L253.69,672.13 Z"/>
    <path fill="#DDB9B6" fill-rule="nonzero" d="M268.63,616.7 L239.3,622.88 L246.92,649 C253.11,652.23 260.33,652.17 266.29,655.57 C270.1,657.74 270.92,661.46 271.02,665.57 C271.13,670.26 270.12,674.29 266.31,677.28 C263.86,679.2 260.89,680.43 258.24,682.04 C254.89,684.04 251.69,686.37 248.13,688.04 C247.4,688.38 246.52,688.78 245.56,689.13 L247.93,689.38 C248.276061,689.419911 248.625909,689.349942 248.93,689.18 L276.09,673.92 C276.952552,673.440699 277.471047,672.515922 277.43,671.53 L268.63,616.7 Z" style="mix-blend-mode:multiply"/>
    <path fill="#726C82" fill-rule="nonzero" d="M319.42,687.21 L296.42,726.33 C294.686731,729.300236 295.562692,733.106284 298.42,735.02 L298.42,735.02 C304.899177,739.393306 313.08765,740.379645 320.42,737.67 L320.42,737.67 C323.703321,736.454168 326.576807,734.336315 328.71,731.56 L349.3,704.7 C351.697888,701.571871 352.677005,697.582876 352,693.7 L350.91,687.45 C350.380987,684.433583 347.762454,682.232496 344.7,682.23 L343.84,682.23 L330,681.51 C325.687301,681.292663 321.610839,683.488866 319.42,687.21 L319.42,687.21 Z"/>
    <path fill="#EACDC8" fill-rule="nonzero" d="M311.84,707.72 L324.26,684.81 L315.51,639.61 L346.7,636.32 L346.11,684.73 C346.066302,685.240126 345.875211,685.726539 345.56,686.13 L326.28,710.42 C326.003351,710.772867 325.566492,710.961169 325.12,710.92 L312.87,709.66 C312.430903,709.615937 312.042872,709.355361 311.835931,708.965588 C311.628989,708.575816 311.630516,708.108412 311.84,707.72 L311.84,707.72 Z"/>
    <path fill="#DDB9B6" fill-rule="nonzero" d="M315.51,639.61 L318.67,655.94 C321.67,659.65 325.37,662.8 330.03,664.25 C333.03,665.19 336.54,664.83 339.27,666.69 C344.4,670.21 343.62,677.19 341.64,682.2 C339.58,687.41 336.02,691.75 333.64,696.76 C331.36,701.47 329.25,706.45 326.07,710.67 C326.165416,710.599695 326.249695,710.515416 326.32,710.42 L345.6,686.13 C345.915211,685.726539 346.106302,685.240126 346.15,684.73 L346.74,636.32 L315.51,639.61 Z" style="mix-blend-mode:multiply"/>
    <path fill="#797388" fill-rule="nonzero" d="M363.1,360.57 L208.1,410.71 C200.204722,413.304958 193.87018,419.27313 190.81,427 L189.15,431.19 C186.958833,436.671743 186.556329,442.705794 188,448.43 L241.7,648.92 C241.985668,650.021856 242.903691,650.845319 244.03,651.01 L249.03,651.72 C257.334247,652.910623 265.804773,651.587103 273.35,647.92 L275.35,646.97 C276.412707,646.452022 277.039514,645.326165 276.92,644.15 L253.92,455.24 C253.791626,453.828227 254.734924,452.54191 256.12,452.24 L416.91,417.68 L416.91,365.25 L363.1,360.57 Z"/>
    <path fill="#4C416E" fill-rule="nonzero" d="M283.86,446.23 L290.41,444.82 C287.65,443.48 284.99,441.82 282.31,440.3 C279.591473,441.274747 276.744313,441.844179 273.86,441.99 C273.259399,442.024828 272.669536,441.819815 272.22,441.42 C270.93,441.83 269.62,442.2 268.3,442.52 C265.948828,443.446743 263.527918,444.185722 261.06,444.73 C257.18,445.73 253.06,446.23 249.75,448.73 C249.56,448.86 249.4,449.03 249.23,449.17 C248.300893,450.259546 247.572898,451.505603 247.08,452.85 C244.76,459.35 246.38,468.15 247.27,474.85 C248.33,482.77 250.01,490.57 251.57,498.4 C260.16,541.66 266.89,585.57 274.76,629.04 C268.12,571.13 260.97,513.28 253.91,455.41 C253.91,455.41 253.91,455.33 253.91,455.29 C253.781626,453.878227 254.724924,452.59191 256.11,452.29 L283.86,446.23 Z" opacity=".35" style="mix-blend-mode:multiply"/>
    <path fill="#726C82" fill-rule="nonzero" d="M363.1,360.57 L226,404.91 C236.68,405.91 246.75,410.1 256.59,414.33 C264.65,417.79 272.32,421.83 277.59,428.56 C278.65,428.9 279.72,429.23 280.79,429.56 C281.007576,429.059923 281.419927,428.670384 281.931564,428.481588 C282.4432,428.292792 283.009745,428.321116 283.5,428.56 L284.09,428.81 L284.09,428.81 L284.09,428.81 C287.09,430.1 290.09,431.59 293.09,433 C298.9,435.14 304.89,436.9 309.79,440.69 L416.79,417.69 L416.79,365.25 L363.1,360.57 Z"/>
    <path fill="#807B8E" fill-rule="nonzero" d="M462.74,365.25 L468.74,386.09 C471.003284,394.011844 472.526482,402.126641 473.29,410.33 L473.29,410.33 C474.164658,420.00533 470.336151,429.511489 463,435.88 L463,435.88 C459.132583,439.262051 454.464832,441.599369 449.44,442.67 L343.44,465.33 C342.102615,465.616065 341.165412,466.823453 341.22,468.19 L348.95,652.19 C348.996029,653.201072 348.490888,654.15778 347.63,654.69 L347.63,654.69 C339.275897,659.877017 329.370538,661.978369 319.63,660.63 L314.95,659.98 C313.750454,659.815129 312.791408,658.900408 312.57,657.71 L273.83,448.32 C273.111248,444.441005 273.220296,440.453909 274.15,436.62 L274.2,436.42 C276.264198,427.834648 282.257241,420.726018 290.37,417.24 L394.67,372.24 L462.74,365.25 Z"/>
    <path fill="#4C416E" fill-rule="nonzero" d="M473.24,410.33 L473.24,410.33 C472.476482,402.126641 470.953284,394.011844 468.69,386.09 L462.69,365.25 L447.69,366.8 C447.77,381.91 448.07,398.75 438.16,411.02 C433.29,417.02 426.57,421.19 419.47,424.11 C408.21,428.74 396.47,432.26 385.01,436.29 C369.76,441.65 352.11,446.75 339.01,456.57 C325.39,466.78 330.47,481.32 331.32,497.06 C332.19,513.12 342.06,585.32 346.52,594.8 L341.2,468.19 C341.145412,466.823453 342.082615,465.616065 343.42,465.33 L449.42,442.67 C454.451914,441.602574 459.126911,439.265076 463,435.88 L463,435.88 C470.317633,429.501452 474.126935,419.996797 473.24,410.33 Z" opacity=".3" style="mix-blend-mode:multiply"/>
    <path fill="#E5C0BA" fill-rule="nonzero" d="M382.18,112.27 L382.18,112.27 C387.348895,119.342673 391.870482,126.86638 395.69,134.75 L396.61,136.65 L427.78,138.48 L423.78,154.65 L419.61,178.15 L394.94,193.32 L353.28,200.15 L323.94,181.15 L326.78,161.32 L349.02,152.32 L344.44,141.82 L344.44,141.82 C340.438522,137.975945 338.374924,132.538056 338.818719,127.007085 C339.262515,121.476115 342.166782,116.436839 346.73,113.28 L354.87,107.65 C363.719952,101.529358 375.835721,103.578968 382.18,112.27 Z"/>
    <path fill="#DDB9B6" fill-rule="nonzero" d="M414.64,137.71 C416.89,166.51 401.46,179.83 382.77,195.31 L394.94,193.31 L419.61,178.14 L423.78,154.64 L427.78,138.47 L414.64,137.71 Z" opacity=".5" style="mix-blend-mode:multiply"/>
    <path fill="#DDB9B6" fill-rule="nonzero" d="M344.44,141.82 L344.91,142.88 C349.529419,144.561734 354.584182,144.618173 359.24,143.04 C363.560881,140.549061 366.949499,136.71448 368.89,132.12 C372.49,123.97 373.8,115.06 374.89,106.2 C368.437808,102.996269 360.754375,103.551652 354.83,107.65 L346.69,113.28 C342.126782,116.436839 339.222515,121.476115 338.778719,127.007085 C338.334924,132.538056 340.398522,137.975945 344.4,141.82 L344.44,141.82 Z" style="mix-blend-mode:multiply"/>
    <path fill="#EA785D" fill-rule="nonzero" d="M329.53,161.12 C329.392648,160.577655 329.034411,160.117635 328.542244,159.851599 C328.050077,159.585563 327.468979,159.537835 326.94,159.72 C321.676866,161.529482 317.069043,164.860061 313.7,169.29 C311.900951,171.6685 310.32748,174.209487 309,176.88 L309,176.88 C303.69859,187.472535 300.938926,199.154885 300.94,211 L300.94,244.3 C300.942175,245.862551 300.709579,247.416562 300.25,248.91 L276.94,324 L295.94,336 L322.64,305.57 C326.293333,301.416667 329.726667,297.083333 332.94,292.57 L344.61,276.31 L354.97,314.31 C358.040031,325.566259 359.029583,337.288376 357.89,348.9 L355.94,368.67 L383.85,376 C388.110167,377.112422 392.509808,377.597528 396.91,377.44 L440.68,375.88 C449.906517,375.558459 458.812958,372.417473 466.2,366.88 C466.901236,366.341122 467.404116,365.585043 467.63,364.73 L472.37,346.96 C475.193905,336.362734 477.265727,325.579232 478.57,314.69 L483.35,274.78 C485.9608,253.066035 485.489472,231.092045 481.95,209.51 L477.71,183.57 C476.120703,173.864875 471.802552,164.812365 465.26,157.47 L463.78,155.8 C458.197167,149.533037 451.166205,144.726716 443.3,141.8 L434.93,138.69 L434.93,138.69 C432.355274,137.73499 429.665065,137.12633 426.93,136.88 L423.15,136.54 C422.109863,136.447184 421.173393,137.170226 421,138.2 L418.13,158.88 C417.507401,163.331568 415.849703,167.575138 413.29,171.27 L413.29,171.27 C409.791044,176.311146 404.937557,180.259804 399.29,182.66 L397.41,183.47 C387.28931,187.769935 376.460375,190.160167 365.47,190.52 L360.27,190.68 C354.196752,190.866534 348.221733,189.115356 343.21,185.68 L343.21,185.68 C337.471814,181.767213 333.349692,175.90385 331.61,169.18 L329.53,161.12 Z"/>
    <path fill="#2D1F54" fill-rule="nonzero" d="M470.1,240.76 C464.36,235.03 455.99,231.13 447.79,231.51 C442.26,231.77 437.71,234.05 435.38,238.13 C434.45,239.78 435.53,244.93 435.56,246.87 C435.63,250.06 435.68,253.25 435.56,256.44 C435.43,262.06 435.09,267.82 433.5,273.24 C430.118819,284.598567 423.619285,294.780941 414.74,302.63 C411.74,305.24 406.59,306.69 404.09,309.35 C403.143974,310.351197 402.252678,311.402727 401.42,312.5 C409.32,321.79 414.63,332.39 419.42,343.44 C419.48,343.51 419.55,343.56 419.61,343.62 C421.04,345.06 426.18,345.18 428.12,345.39 C430.98063,345.721399 433.863565,345.818388 436.74,345.68 C451.23,344.87 466.28,335.74 476.79,326.18 C477.456667,322.353333 478.023333,318.503333 478.49,314.63 L482.66,279.84 C482,266 480.14,250.8 470.1,240.76 Z" opacity=".5" style="mix-blend-mode:multiply"/>
    <path fill="#ADADAD" fill-rule="nonzero" d="M191.2,391.57 L191.2,397.89 C191.195962,399.396542 192.357491,400.64977 193.86,400.76 L315.36,410.12 C316.212967,410.186266 317.070044,410.063338 317.87,409.76 L390.64,381.76 C392.299597,381.125135 393.399483,379.536852 393.41,377.76 L393.41,370.9 L296,365.13 L191.2,391.57 Z"/>
    <polygon fill="#E7E7E7" fill-rule="nonzero" points="316.65 400.56 393.41 370.89 296.02 365.13 213.27 393.15"/>
    <path fill="#BBB" fill-rule="nonzero" d="M338.94,381.26 L356,374.67 C356.242288,374.567102 356.384899,374.313941 356.347344,374.053401 C356.309788,373.792861 356.101485,373.590282 355.84,373.56 L307.25,369.38 L285.67,378.68 L333.36,382.09 C335.258331,382.22511 337.163177,381.941773 338.94,381.26 L338.94,381.26 Z"/>
    <path fill="#D6D6D6" fill-rule="nonzero" d="M186.88,391.26 L312.03,400.26 C313.225777,400.346235 314.403438,399.930509 315.280077,399.112693 C316.156715,398.294876 316.653105,397.148878 316.65,395.95 L316.65,294.11 C316.650978,291.847555 314.90623,289.967588 312.65,289.8 L187.5,281.17 C186.306638,281.089709 185.133396,281.507766 184.259703,282.324602 C183.386011,283.141437 182.890071,284.28394 182.89,285.48 L182.89,387 C182.914574,389.239627 184.646772,391.089042 186.88,391.26 L186.88,391.26 Z"/>
    <path fill="#CFCFCF" fill-rule="nonzero" d="M313.17,289.89 C314.96,295.66 314.85,301.89 314.6,307.96 C314.21,317.61 314.21,327.26 313.44,336.9 C312.44,349.68 312.52,364.9 304.91,375.82 C299.46,383.66 291.14,388.73 282.35,392.06 C276.553457,394.20701 270.566781,395.800778 264.47,396.82 L312,400.23 C313.195777,400.316235 314.373438,399.900509 315.250077,399.082693 C316.126715,398.264876 316.623105,397.118878 316.62,395.92 L316.62,294.11 C316.618419,292.062406 315.176418,290.298568 313.17,289.89 Z"/>
    <path fill="#EACDC8" fill-rule="nonzero" d="M290,47.62 C282.25,58.62 278.87,72.87 283.51,85.8 L283.51,85.86 C286.71,94.78 288.06,96.23 292.96,104.33 C296.046145,109.430914 299.452996,114.330767 303.16,119 L312.1,130.29 C315.160473,134.161644 318.546117,137.764745 322.22,141.06 C325.501103,143.950078 329.638906,145.685286 334,146 L335.18,146.09 C339.716719,146.469526 344.271489,145.612483 348.36,143.61 C354.870439,140.396425 360.230886,135.252491 363.71,128.88 L365.95,124.77 C369.372014,118.502424 371.596621,111.652261 372.51,104.57 L377.63,64.79 L361.69,41.69 C359.355568,38.2981185 356.056466,35.6853132 352.22,34.19 L336.94,34.31 C333.492382,32.9712984 329.747385,32.5878162 326.1,33.2 C326.1,33.2 303.68,28.27 290,47.62 Z"/>
    <path fill="#E8C6C1" fill-rule="nonzero" d="M361.69,41.69 C359.355568,38.2981185 356.056466,35.6853132 352.22,34.19 L336.94,34.31 C333.492382,32.9712984 329.747385,32.5878162 326.1,33.2 C326.1,33.2 308.51,29.34 295,41.91 C301.27,64.7 327.88,69.23 344.22,83.33 C354.47,92.17 361.22,105.19 361.04,118.83 C360.94,125.83 359.87,133.83 355.04,139.34 C358.575941,136.455352 361.52009,132.913544 363.71,128.91 L365.95,124.8 C369.372014,118.532424 371.596621,111.682261 372.51,104.6 L377.63,64.82 L361.69,41.69 Z"/>
    <path fill="#E29700" fill-rule="nonzero" d="M288.25,33.93 L288.25,33.93 C290.161257,41.7245981 294.474596,48.7210936 300.58,53.93 L300.58,53.93 C305.411126,58.0413748 311.19284,60.8806708 317.4,62.19 L331.27,65.13 C337.689758,66.4850249 343.755864,69.1655559 349.08,73 L352.84,75.72 C355.221753,77.4241556 357.257887,79.5654896 358.84,82.03 L359.02,82.32 C363.252699,88.9687448 366.291688,96.3056374 368,104 L368.06,104.29 C369.166518,109.247043 369.723213,114.31096 369.72,119.39 C369.72,121.39 369.72,122.94 369.72,122.94 L388.22,116.75 L388.22,104.78 C388.222255,98.8692396 387.757475,92.9675409 386.83,87.13 L386.83,87.13 C384.286666,71.1631662 378.327707,55.9331987 369.36,42.48 L365.3,36.39 C361.787366,31.119714 357.213114,26.6408295 351.87,23.24 L351.87,23.24 C342.891254,17.528089 332.194761,15.1432274 321.64,16.5 L315.64,17.27 C306.105022,18.4812997 297.198933,22.6822849 290.2,29.27 L289.42,30.01 C288.340783,31.0033224 287.891788,32.5076489 288.25,33.93 Z"/>
    <path stroke="#BF9997" stroke-linecap="round" stroke-width="1.5" d="M309.31 91L312.43 101C313.864478 105.610342 314.7276 110.379338 315 115.2L315.26 119.75C315.290824 120.282631 315.533183 120.780868 315.933183 121.13392 316.333183 121.486972 316.857665 121.66557 317.39 121.63L317.39 121.63C321.518693 121.359218 325.481081 119.90067 328.8 117.43L329.28 117.07M336 128.36L337.46 127.44C342.659038 124.017574 346.134469 118.523916 347 112.36L347 112.36"/>
    <path fill="#726C82" fill-rule="nonzero" d="M317.78,75.49 C318.573694,74.2654362 319.701491,73.2937956 321.03,72.69 C321.671105,72.3765157 322.340849,72.1253615 323.03,71.94 C323.735141,71.7863912 324.450255,71.6827999 325.17,71.63 C325.895409,71.6098262 326.621239,71.6499643 327.34,71.75 C328.056405,71.873438 328.757213,72.0746271 329.43,72.35 C330.796261,72.8598643 331.991716,73.7434616 332.88,74.9 L332.88,74.9 C332.897726,74.9169763 332.907751,74.9404558 332.907751,74.965 C332.907751,74.9895442 332.897726,75.0130237 332.88,75.03 C332.853975,75.0518413 332.816025,75.0518413 332.79,75.03 C331.615466,74.4872631 330.379931,74.0877286 329.11,73.84 C327.844475,73.5785555 326.549185,73.4910814 325.26,73.58 C323.971583,73.6147765 322.692183,73.8061828 321.45,74.15 C320.199141,74.4815667 318.995987,74.9722385 317.87,75.61 C317.853024,75.6277264 317.829544,75.6377505 317.805,75.6377505 C317.780456,75.6377505 317.756976,75.6277264 317.74,75.61 C317.718159,75.5839754 317.718159,75.5460246 317.74,75.52 L317.78,75.49 Z"/>
    <path fill="#EACDC8" fill-rule="nonzero" d="M400.87,312.71 L367.08,330.86 C364.453333,332.28 361.763333,333.573333 359.01,334.74 L341.21,342.34 C338.470025,343.51092 336.234151,345.615689 334.9,348.28 L334.68,348.72 C333.43,351.23 332.29,353.79 331.28,356.41 L321.41,381.86 C321.147211,382.531701 321.266453,383.292864 321.722063,383.852022 C322.177674,384.411181 322.899066,384.681703 323.61,384.56 L323.61,384.56 C325.723528,384.201043 327.539597,382.856631 328.5,380.94 L336,366.15 L345.63,370.33 C347.631791,371.201901 349.786808,371.667575 351.97,371.7 L351.97,371.7 C357.005778,371.773608 361.86744,369.858408 365.5,366.37 L365.5,366.37 C367.483398,364.454301 369.141749,362.228532 370.41,359.78 L371.16,358.32 L375.55,357.47 C387.047263,355.263616 398.327605,352.047832 409.26,347.86 L418.93,344.16 C423.13128,342.552211 426.496467,339.302567 428.25,335.16 L429.16,333.01 C432.027194,326.263524 430.11475,318.434712 424.46,313.77 L424.46,313.77 C420.874929,310.812638 416.211611,309.498925 411.61,310.15 L406.42,310.88 C404.477439,311.161685 402.599129,311.78102 400.87,312.71 Z"/>
    <path fill="#DDB9B6" fill-rule="nonzero" d="M421,342.48 C411.1,346.48 401.31,349.15 390.67,349.73 C385.07,350.03 379.34,350.13 373.87,351.52 C367.87,353.05 365.37,355.79 363.01,361.37 C361.22,365.59 359.01,369.17 354.33,370.55 C352.133106,371.170056 349.832465,371.333415 347.57,371.03 C348.990252,371.447296 350.459966,371.672629 351.94,371.7 C356.975778,371.773608 361.83744,369.858408 365.47,366.37 C367.453398,364.454301 369.111749,362.228532 370.38,359.78 L371.13,358.32 L375.52,357.47 C387.017263,355.263616 398.297605,352.047832 409.23,347.86 L418.9,344.16 C420.597759,343.507327 422.175758,342.578099 423.57,341.41 C422.71,341.78 421.86,342.14 421,342.48 Z" opacity=".4" style="mix-blend-mode:multiply"/>
    <path fill="#EA785D" fill-rule="nonzero" d="M465.26,157.41 L465.26,157.41 C476.225129,168.958072 484.283901,182.950375 488.77,198.23 L488.77,198.23 C490.21029,203.158583 491.059582,208.24091 491.3,213.37 L491.93,227.19 C492.821242,246.931997 491.769517,266.713797 488.79,286.25 L488.05,293.92 C487.33235,301.316974 484.241937,308.283558 479.24,313.78 L479.24,313.78 C476.313423,316.99546 472.805101,319.628398 468.9,321.54 L419.61,345.65 L419.23,344.55 C414.709357,331.616161 406.205479,320.448037 394.94,312.65 L394.94,312.65 L433.33,291.55 C436.837968,289.62792 440.0789,287.254375 442.97,284.49 L442.97,284.49 L429.61,210.32 L429.61,209.7 C428.456927,192.525238 434.799575,175.692967 447,163.55 L447,163.55 C449.550339,161.013673 452.836679,159.347754 456.39,158.79 L465.24,157.41 L465.26,157.41 Z"/>
    <path stroke="#2D1F54" d="M344.61,276.32 L344.61,276.32 C336.937666,266.092261 331.701321,254.248066 329.3,241.69 L327.3,231.49" opacity=".5" style="mix-blend-mode:multiply"/>
    <path fill="#E29700" fill-rule="nonzero" d="M381.36,45.8 C383.18268,50.3576939 384.689572,55.0354093 385.87,59.8 C386.69,62.59 387.42,65.41 388.08,68.25 C388.74,71.09 389.67,74.02 390.63,76.86 C392.4,82.13 394.74,87.38 398.4,91.63 C401.693099,95.2048917 405.722386,98.023004 410.21,99.89 C410.81,99.14 411.39,98.39 411.95,97.61 L417.19,90.24 L409.9,71.74 C405.604744,60.8662251 400.371684,50.3867206 394.26,40.42 L394.26,40.42 C389.570455,32.7697153 383.943551,25.7352462 377.51,19.48 C371.853516,13.9732454 365.211266,9.5801332 357.93,6.53 C349.778148,3.09376548 341.053805,1.21796384 332.21,1 C341.543365,4.09619634 350.167442,9.01841284 357.58,15.48 C368.228598,23.119737 376.477814,33.6376609 381.36,45.8 Z" opacity=".2" style="mix-blend-mode:multiply"/>
    <rect width="5.53" height="7.56" x="303.229" y="104.978" fill="#2D1F54" fill-rule="nonzero" rx="2.76" transform="rotate(-33.26 305.994 108.758)"/>
    <rect width="5.53" height="7.56" x="326.129" y="90.955" fill="#2D1F54" fill-rule="nonzero" rx="2.76" transform="rotate(-33.26 328.894 94.735)"/>
  </g>
</svg>
