<svg xmlns="http://www.w3.org/2000/svg" width="596" height="517" viewBox="0 0 596 517">
  <g fill="none" fill-rule="evenodd" transform="translate(1 -1)">
    <path fill="#B9CDFC" fill-rule="nonzero" d="M392.74,443.25 C390.092911,430.563741 385.609018,418.331575 379.43,406.94 L372.75,394.61 L253.08,405.45 L250.58,460.78 L251.76,482.27 C252.309708,492.383878 253.371066,502.463444 254.94,512.47 L255.47,515.81 C265.31,516.12 275.14,516.32 284.96,516.51 L304.83,516.85 L305.25,512.74 C306.136667,503.96 306.803333,495.166667 307.25,486.36 L307.25,485.7 L314.58,489.53 L314.32,492.53 C313.831767,498.109236 313.698166,503.713837 313.92,509.31 L314.23,517.05 C329.896667,517.29 345.563333,517.49 361.23,517.65 L393.23,517.65 L395.33,477.36 C395.928542,465.938351 395.051304,454.487202 392.72,443.29 L392.74,443.25 Z"/>
    <path fill="#96B4FB" fill-rule="nonzero" d="M288.68 481.93C288.638648 482.50945 288.899586 483.069144 289.37 483.41 294.243633 486.900567 296.906472 492.709359 296.37 498.68L294.79 516.68 304.79 516.86 307.23 485.71 290.82 480.48C290.339797 480.33307 289.818892 480.411419 289.403158 480.693108 288.987423 480.974797 288.721553 481.429543 288.68 481.93L288.68 481.93zM377.51 404.59C377.209186 404.077534 377.112766 403.47045 377.24 402.89L372.75 394.61 253.08 405.45 252.54 417.37C256.743786 421.035362 261.460192 424.067338 266.54 426.37 285.3 433.48 306.18 432.06 325.71 431.74 343.76 431.44 362.64 431.3 376.55 420.66 380.26 416.45 381.15 411.18 377.51 404.59z"/>
    <path fill="#EACDC8" fill-rule="nonzero" d="M535.16,319 L540.53,317.65 L544.43,314.65 C549.868618,310.419074 555.659805,306.661995 561.74,303.42 L570.36,298.82 C570.859083,298.552759 571.46185,298.567284 571.947481,298.858253 C572.433113,299.149222 572.730235,299.673872 572.73,300.24 L572.73,300.24 C572.732419,301.978454 572.139541,303.665331 571.05,305.02 L567.36,309.63 L567.8,309.49 C575.500466,306.918979 582.709288,303.060974 589.12,298.08 L589.12,298.08 C590.548309,296.972149 592.524406,296.899705 594.03,297.9 L594.03,297.9 C594.412628,298.153931 594.668612,298.55917 594.733556,299.013778 C594.798499,299.468385 594.666223,299.92909 594.37,300.28 L593,301.9 C592.869993,302.039625 592.804619,302.227441 592.819833,302.417613 C592.835047,302.607786 592.929449,302.78282 593.08,302.9 L593.08,302.9 C594.322965,303.917908 594.543404,305.734329 593.58,307.02 L591.23,310.24 C591.019122,310.531788 591.076531,310.938065 591.36,311.16 L591.36,311.16 C591.720458,311.437153 591.95057,311.850769 591.996001,312.303184 C592.041432,312.7556 591.898154,313.206711 591.6,313.55 L587.13,318.71 C583.166048,323.285512 578.297035,326.990048 572.83,329.59 L572.83,329.59 C567.078055,332.323587 560.798249,333.76726 554.43,333.82 L535.17,333.99 L535.16,319 Z"/>
    <path fill="#96B4FB" fill-rule="nonzero" d="M375.51,263.82 L427.75,338.6 C430.380754,342.358156 433.861911,345.441857 437.91,347.6 L437.91,347.6 C443.637794,350.657945 450.223287,351.713877 456.62,350.6 L535.92,336.73 C536.405076,336.646373 536.757156,336.22218 536.75,335.73 L536.75,318 C536.75,317.447715 536.302285,317 535.75,317 L459.5,314.2 L426.22,235.83 C421.40886,224.481974 409.950112,217.415011 397.65,218.21 L397.45,218.21 C382.485967,219.155452 370.709978,231.352012 370.29,246.34 L370.29,246.34 C370.104313,252.57649 371.934922,258.706575 375.51,263.82 Z"/>
    <path fill="#574C76" fill-rule="nonzero" d="M399.38,297.38 C409.02,286.05 414.13,271.61 421.93,259.08 C424.93,254.25 427.98,249.53 429.77,244.2 L426.22,235.83 C421.40886,224.481974 409.950112,217.415011 397.65,218.21 L397.45,218.21 C386.977666,218.863651 377.675216,225.123197 373.125121,234.578019 C368.575026,244.032842 369.487065,255.208069 375.51,263.8 L399.14,297.63 L399.38,297.38 Z"/>
    <path fill="#EACDC8" fill-rule="nonzero" d="M82.83,202.07 L74.45,199.46 C71.5791341,198.563535 68.8930022,197.157804 66.52,195.31 L66.52,195.31 C61.4895493,191.401183 56.1370884,187.925429 50.52,184.92 L42.52,180.66 C42.0514762,180.403555 41.4819319,180.415592 41.024661,180.691603 C40.5673902,180.967613 40.2913815,181.465955 40.3,182 L40.3,182 C40.2966189,183.608826 40.8475204,185.169713 41.86,186.42 L45.27,190.69 L44.86,190.56 C37.7372361,188.179472 31.0694746,184.608906 25.14,180 L25.14,180 C23.8141115,178.970278 21.978879,178.901859 20.58,179.83 L20.58,179.83 C20.2274292,180.065786 19.9920564,180.440657 19.9328747,180.860655 C19.8736931,181.280654 19.9963126,181.705969 20.27,182.03 L21.55,183.54 C21.6573348,183.666777 21.7093079,183.831322 21.6942689,183.996752 C21.6792298,184.162181 21.5984366,184.314657 21.47,184.42 L21.47,184.42 C20.3619142,185.370223 20.158356,187.00735 21,188.2 L23.18,191.2 C23.3732445,191.475394 23.316009,191.854028 23.05,192.06 L23.05,192.06 C22.719513,192.318795 22.509866,192.702004 22.4701584,193.119879 C22.4304508,193.537755 22.5641704,193.953591 22.84,194.27 L27,199 C30.6676332,203.238099 35.1763825,206.667336 40.24,209.07 L40.24,209.07 C45.5524668,211.602272 51.3550842,212.940287 57.24,212.99 L64.74,213.06 L74.49,218.06 L82.83,202.07 Z"/>
    <path fill="#BF9997" fill-rule="nonzero" d="M45.27,190.65 C46.27,191.39 47.27,192.19 48.27,192.99 C48.76,193.39 49.27,193.81 49.7,194.22 C50.2499044,194.626492 50.6954532,195.157724 51,195.77 C51.5928632,197.089264 51.2516122,198.641144 50.16,199.59 C49.16,200.37 48.16,201.08 47.05,201.76 C47.92,200.85 48.87,199.99 49.77,199.17 C50.5642613,198.343429 50.7814354,197.119356 50.32,196.07 C50.0618793,195.549969 49.6892027,195.095235 49.23,194.74 C48.79,194.3 48.33,193.87 47.89,193.42 C47,192.52 46.09,191.62 45.27,190.65 Z"/>
    <path fill="#96B4FB" fill-rule="nonzero" d="M70.83,219.09 L152,256.34 C159.080426,259.590942 166.942711,260.749813 174.66,259.68 L180.79,258.82 L231.57,248 C243.954458,245.345297 252.42775,233.888996 251.34,221.27 L251.34,221.27 C250.697534,213.862204 246.804969,207.120094 240.710856,202.859813 C234.616743,198.599532 226.947861,197.259249 219.77,199.2 L174.77,211.36 L156.27,216.86 L86.27,201.36 L79.08,199.97 C78.7321005,199.902577 78.3745002,200.024313 78.14,200.29 L76,202.66 C73.8602623,205.071894 72.2581319,207.911414 71.3,210.99 L71.3,210.99 C70.624328,213.199824 70.2871729,215.499223 70.3,217.81 L70.3,218.18 C70.2897023,218.559322 70.4949873,218.911793 70.83,219.09 Z"/>
    <path fill="#F8F8F8" fill-rule="nonzero" d="M92.18,229.61 L92.18,229.45 C92.82563,226.269592 95.1092874,223.670028 98.18,222.62 L98.18,222.62 C100.147146,221.925366 102.292854,221.925366 104.26,222.62 L171.78,247.03 C174.058992,247.839818 176.114705,249.176032 177.78,250.93 L177.78,250.93 C180.541268,253.823739 182.081289,257.67021 182.08,261.67 L182.08,265.44 L182.75,385.1 L182.75,388.16 C182.751737,390.676823 181.70876,393.081465 179.87,394.8 L179.87,394.8 C178.388963,396.190359 176.483639,397.042649 174.46,397.22 L174.46,397.22 C171.559695,397.47141 168.637923,397.268977 165.8,396.62 L104.87,382.69 C102.697011,382.191589 100.63099,381.307603 98.77,380.08 L98.64,380 C95.4760614,377.88825 93.0335237,374.859504 91.64,371.32 L91.64,371.32 C90.7596794,369.091918 90.3149759,366.715639 90.33,364.32 L91.52,236.4 C91.526776,234.120987 91.7477479,231.847656 92.18,229.61 Z" opacity=".85" style="mix-blend-mode:screen"/>
    <path stroke="#F3F3F4" d="M92.18,229.61 L92.18,229.45 C92.82563,226.269592 95.1092874,223.670028 98.18,222.62 L98.18,222.62 C100.147146,221.925366 102.292854,221.925366 104.26,222.62 L171.78,247.03 C174.058992,247.839818 176.114705,249.176032 177.78,250.93 L177.78,250.93 C180.541268,253.823739 182.081289,257.67021 182.08,261.67 L182.08,265.44 L182.75,385.1 L182.75,388.16 C182.751737,390.676823 181.70876,393.081465 179.87,394.8 L179.87,394.8 C178.388963,396.190359 176.483639,397.042649 174.46,397.22 L174.46,397.22 C171.559695,397.47141 168.637923,397.268977 165.8,396.62 L104.87,382.69 C102.697011,382.191589 100.63099,381.307603 98.77,380.08 L98.64,380 C95.4760614,377.88825 93.0335237,374.859504 91.64,371.32 L91.64,371.32 C90.7596794,369.091918 90.3149759,366.715639 90.33,364.32 L91.52,236.4 C91.526776,234.120987 91.7477479,231.847656 92.18,229.61 Z" opacity=".7"/>
    <path fill="#2D1F54" fill-rule="nonzero" d="M281.47,88.41 L272.27,76 C263.002808,63.1584338 261.498876,46.2775616 268.35,32 C274.16,20.13 285.26,11.76 297.28,6.83 C306.990461,2.84631333 317.405041,0.863393632 327.9,1 C328.9,1 329.9,1 330.9,1.1 C346.38,1.92 363.61,11.42 373.13,23.56 C378.792126,30.7753244 382.491922,39.3323937 383.87,48.4 L385.5,59.07 L386.91,72.84 C387.970782,83.1993458 390.009878,93.4350076 393,103.41 L393.15,103.89 C398.048911,120.245189 405.471656,135.735108 415.15,149.8 L415.74,150.67 C421.066278,158.421666 427.048244,165.701732 433.62,172.43 L454.34,193.64 C454.708254,194.026298 454.708254,194.633702 454.34,195.02 L450.12,199.63 C449.762091,200.021327 449.16094,200.065206 448.75,199.73 L438.75,191.57 L445.14,201.57 C445.294141,201.81123 445.337506,202.106954 445.259114,202.382282 C445.180722,202.657611 444.98809,202.886141 444.73,203.01 C440.38,205.01 423.22,212.93 413.35,215.17 L385.25,221.53 L309.5,132.03 L281.47,88.41 Z"/>
    <path fill="#FFB300" fill-rule="nonzero" d="M119.36,285.68 L119.22,285.8 C117.150351,287.666472 115.969252,290.323037 115.97,293.11 L115.97,293.11 C115.973754,294.829378 116.425238,296.518136 117.28,298.01 L120.14,303.01 C120.81,304.17 121.44,305.35 122.05,306.55 L122.93,308.3 C128.299541,318.923216 132.975979,329.882783 136.93,341.11 L136.93,341.11 C137.418754,342.518058 138.210737,343.801617 139.25,344.87 L139.25,344.87 C141.226593,346.927716 143.956736,348.090555 146.81,348.09 L147.2,348.09 C148.504136,348.090076 149.793122,347.810454 150.98,347.27 L153.06,346.32 C155.478484,345.230231 157.30343,343.142491 158.06,340.6 L158.06,340.6 C158.599478,338.752493 158.539966,336.781591 157.89,334.97 L156.65,331.52 C156.59,331.35 156.52,331.17 156.44,330.99 L148.64,312.92 C147.58,310.48 146.426667,308.083333 145.18,305.73 L135.93,288.34 C135.036156,286.653374 133.670584,285.263479 132,284.34 L131.67,284.16 C129.455958,282.937747 126.857213,282.612009 124.41,283.25 L123.54,283.48 C121.988708,283.863067 120.55404,284.618155 119.36,285.68 L119.36,285.68 Z"/>
    <path fill="#F8F8F8" fill-rule="nonzero" d="M2.05,38.72 L2.3,38.27 C4.02375116,35.1227887 6.99300781,32.8468426 10.48,32 L10.48,32 C12.2904889,31.5629423 14.1748688,31.528805 16,31.9 L81.43,45.34 C83.7625144,45.8208799 85.9117193,46.9509457 87.63,48.6 L87.63,48.6 C90.1007211,50.978848 91.4977418,54.2602222 91.5,57.69 L91.5,61.82 L88.77,189.34 C88.7563062,189.993883 88.6927888,190.645772 88.58,191.29 L88.58,191.56 C87.7900536,195.916082 84.7428269,199.523236 80.58,201.03 L80.58,201.03 C77.6583754,202.086747 74.4465028,202.008235 71.58,200.81 L13.12,176.53 C10.4085882,175.411124 7.9799568,173.703225 6.01,171.53 L6,171.53 C3.38339033,168.637601 1.6788271,165.037146 1.1,161.18 L0.71,158.55 C0.561462049,157.577083 0.487912166,156.594189 0.49,155.61 L0.49,44.82 C0.491442783,42.6881721 1.02782307,40.5907877 2.05,38.72 Z" opacity=".85" style="mix-blend-mode:screen"/>
    <path stroke="#F3F3F4" d="M2.05,38.72 L2.3,38.27 C4.02375116,35.1227887 6.99300781,32.8468426 10.48,32 L10.48,32 C12.2904889,31.5629423 14.1748688,31.528805 16,31.9 L81.43,45.34 C83.7625144,45.8208799 85.9117193,46.9509457 87.63,48.6 L87.63,48.6 C90.1007211,50.978848 91.4977418,54.2602222 91.5,57.69 L91.5,61.82 L88.77,189.34 C88.7563062,189.993883 88.6927888,190.645772 88.58,191.29 L88.58,191.56 C87.7900536,195.916082 84.7428269,199.523236 80.58,201.03 L80.58,201.03 C77.6583754,202.086747 74.4465028,202.008235 71.58,200.81 L13.12,176.53 C10.4085882,175.411124 7.9799568,173.703225 6.01,171.53 L6,171.53 C3.38339033,168.637601 1.6788271,165.037146 1.1,161.18 L0.71,158.55 C0.561462049,157.577083 0.487912166,156.594189 0.49,155.61 L0.49,44.82 C0.491442783,42.6881721 1.02782307,40.5907877 2.05,38.72 Z" opacity=".7"/>
    <path fill="#DF5378" fill-rule="nonzero" d="M54.4,102.82 C54.2630882,110.638457 47.8186056,116.868123 40,116.74 L36.8,116.74 L37.5,88.9 L40,88.9 C47.8164166,88.7774182 54.2576242,95.0039188 54.4,102.82 Z"/>
    <ellipse cx="37.5" cy="102.82" fill="#E46E8D" fill-rule="nonzero" rx="14.42" ry="13.92"/>
    <path fill="#DD4A71" fill-rule="nonzero" d="M30.16,102 C30.2120806,101.566785 30.4367148,101.172895 30.7830532,100.907495 C31.1293915,100.642094 31.5681469,100.527625 32,100.59 L42.12,101.82 C42.5550882,101.88595 42.9450256,102.125018 43.2011603,102.482854 C43.4572951,102.840689 43.5578629,103.286885 43.48,103.72 L43.48,103.72 C43.3225626,104.571754 42.52989,105.154215 41.67,105.05 L31.6,103.77 C31.1728619,103.729732 30.7797906,103.519608 30.5090338,103.186803 C30.2382771,102.853998 30.1125214,102.426397 30.16,102 L30.16,102 Z"/>
    <path fill="#BBCEFC" fill-rule="nonzero" d="M21.17,126.13 C22.51,120.64 27.9,115.66 31.63,112.22 C35.7094991,108.458443 40.0141213,104.948623 44.52,101.71 L52.14,96.24 C54.7420672,94.3687966 57.9671757,93.5768533 61.14,94.03 L61.44,94.03 C63.8350294,94.3681681 65.9953985,95.6499872 67.44,97.59 L67.57,97.77 C69.2219616,99.9939845 69.8075229,102.833957 69.17,105.53 L69.17,105.67 C68.4753185,108.60348 66.9797704,111.286466 64.85,113.42 L64.66,113.62 C56.4331082,121.919903 47.5142044,129.503982 38,136.29 L37.58,136.59 C33.3838414,139.590722 27.6440381,139.170223 23.93,135.59 L23.66,135.32 C22.7620446,134.45157 22.0597402,133.401522 21.6,132.24 L21.6,132.18 C20.8164102,130.260498 20.6657705,128.141033 21.17,126.13 Z"/>
    <path fill="#E5C0BA" fill-rule="nonzero" d="M277.58,164.49 L284.51,161.89 C288.776667,160.29 293.11,158.893333 297.51,157.7 L298.91,157.32 L298.91,124.15 L345.57,108.49 L345.57,156.65 L372.24,170.82 L324.91,205.65 L284.91,205.65 L277.58,164.49 Z"/>
    <path fill="#DDB9B6" fill-rule="nonzero" d="M305.28,143.24 C306.877871,144.135503 308.615725,144.754234 310.42,145.07 C316.68,146.07 323.42,143.23 328.58,139.97 C332.0837,137.776059 335.138003,134.935557 337.58,131.6 C339.0203,129.678346 340.191139,127.568816 341.06,125.33 C341.578153,123.335203 341.978842,121.311727 342.26,119.27 L299.73,129.45 L299.73,135.45 C299.72,138.87 302.26,141.56 305.28,143.24 Z" style="mix-blend-mode:multiply"/>
    <path fill="#EACDC8" fill-rule="nonzero" d="M278.13,43.75 C276.999938,45.4189661 276.368642,47.375292 276.31,49.39 L275,94.07 L275,113.07 C275.001643,115.242891 275.168793,117.4125 275.5,119.56 L275.5,119.56 C276.15121,123.798287 278.1375,127.718318 281.17,130.75 L281.17,130.75 C283.680083,133.256401 286.804231,135.059855 290.23,135.98 L291.92,136.43 C299.715466,138.507224 307.866686,138.882385 315.82,137.53 L319.82,136.85 C327.528568,135.52128 334.569852,131.648574 339.82,125.85 L339.82,125.85 C341.554971,123.924996 342.890761,121.674887 343.75,119.23 L350.07,101.23 L356.47,58.33 C357.59676,50.7790115 356.341897,43.0645781 352.88,36.26 L352.88,36.26 C346.49874,23.7027909 333.503122,15.8960991 319.42,16.16 L315.52,16.24 C303.564887,16.4660598 292.467176,22.4942618 285.77,32.4 L278.13,43.75 Z"/>
    <path fill="#E9C9C4" fill-rule="nonzero" d="M352.93,36.23 L352.93,36.23 C347.789396,26.1187949 338.267701,18.9479986 327.13,16.8 C326.135845,25.1938326 324.296512,33.4658044 321.64,41.49 C321.64,41.6 321.64,41.71 321.64,41.83 C321.64,48.49 320.85,55.43 323.1,61.83 C325.51,68.71 330.97,73.76 334.1,80.23 C339.82,92.05 335.15,105.99 328.23,116.23 C322.23,125.17 313.62,133.61 303.59,138.23 C307.667431,138.435063 311.75506,138.193628 315.78,137.51 L319.78,136.83 C327.488568,135.50128 334.529852,131.628574 339.78,125.83 C341.514971,123.904996 342.850761,121.654887 343.71,119.21 L350.04,101.21 L356.43,58.31 C357.586584,50.7651166 356.363204,43.0473354 352.93,36.23 L352.93,36.23 Z"/>
    <path stroke="#BF9997" stroke-linecap="round" stroke-width="1.5" d="M299.85,73.76 L297.09,83.92 C295.828591,88.573788 293.998111,93.0542653 291.64,97.26 L289.42,101.26 C289.160112,101.726227 289.097373,102.276996 289.245747,102.789729 C289.39412,103.302462 289.741293,103.734612 290.21,103.99 L290.21,103.99 C293.841172,105.969365 297.965396,106.861558 302.09,106.56 L302.69,106.56"/>
    <path fill="#96B4FB" fill-rule="nonzero" d="M283.78,189.82 L283.78,189.82 C291.609257,193.459968 300.037602,195.63907 308.65,196.25 L309.82,196.34 C315.499532,196.738331 321.206284,196.459708 326.82,195.51 L334.49,194.2 L309.13,231.7 L288,230.32 L283.78,189.82 Z"/>
    <path fill="#84A7FA" fill-rule="nonzero" d="M326.83,195.51 C321.358596,196.437481 315.797589,196.722747 310.26,196.36 C305.07,206.56 300.94,217.36 296.6,227.96 C296.49,228.96 296.39,229.89 296.28,230.86 L309.14,231.7 L334.5,194.2 L326.83,195.51 Z"/>
    <path fill="#618EF9" fill-rule="nonzero" d="M236.64,182.13 C243.04,178.37 249.603333,174.913333 256.33,171.76 L258.7,170.65 C267.973577,166.297171 277.516447,162.542818 287.27,159.41 C287.582934,159.307514 287.926265,159.365655 288.188008,159.565459 C288.449752,159.765263 288.596355,160.081117 288.58,160.41 L288.58,160.41 C288.580166,169.034057 289.319539,177.64223 290.79,186.14 L297.58,225.54 L322.69,195.63 C326.279461,191.352513 330.144346,187.313925 334.26,183.54 L357.41,162.29 C358.016851,161.735009 358.90157,161.608054 359.64,161.97 L362.85,163.54 C374.851337,169.406091 386.105165,176.691534 396.37,185.24 L402.95,190.72 C408.798554,195.572648 414.118076,201.029599 418.82,207 L427.58,218.16 L434.44,227.45 C435.427783,228.785401 435.487483,230.59231 434.59,231.99 L425.69,245.84 C423.73,248.826667 421.626667,251.716667 419.38,254.51 L402.67,275.17 C401.06,277.17 399.51,279.17 398.03,281.31 L391.42,290.66 L389.56,307.5 C389.353333,309.386667 389.22,311.28 389.16,313.18 L388.09,346 C387.97,349.52 387.75,353 387.42,356.54 L384.92,383.11 L383.15,407.2 C383.108183,407.779802 382.816172,408.312721 382.35,408.66 C380.12,410.3 373.35,415.15 369.1,416.78 L369.1,416.78 C361.907087,419.54673 354.352577,421.261061 346.67,421.87 L331.46,423.08 C324.211908,423.656621 316.937555,423.833556 309.67,423.61 L290.67,423.01 C278.644082,422.656089 266.688551,421.040567 255,418.19 L247.46,416.34 C247.021021,416.231577 246.709417,415.842072 246.7,415.39 L245.46,367.86 C244.879243,344.530885 242.720982,321.267777 239,298.23 L239,298.23 C238.526667,292.736667 237.893333,287.263333 237.1,281.81 L237.1,281.81 C236.34,276.6 235.72,271.36 235.26,266.12 L234.26,255.12 L231.93,246.62 L229.56,241.32 C223.328182,227.337975 218.565949,212.746304 215.35,197.78 C214.992934,196.095226 215.754316,194.371036 217.24,193.5 L236.64,182.13 Z"/>
    <path fill="#F8F8F8" fill-rule="nonzero" d="M215.89,373.34 L215.89,373.34 C217.189592,369.781187 220.324922,367.21313 224.07,366.64 L225.37,366.44 C226.936346,366.199979 228.536779,366.31967 230.05,366.79 L288.57,385.05 C289.682664,385.398158 290.739978,385.903245 291.71,386.55 L291.71,386.55 C295.026557,388.755267 297.060326,392.43844 297.16,396.42 L297.25,399.82 L296,503.07 C295.99895,503.900309 295.891406,504.727054 295.68,505.53 L295.5,506.23 C294.320734,510.844472 290.162774,514.072037 285.4,514.07 L285.4,514.07 C284.629751,514.071972 283.86168,513.988122 283.11,513.82 L225.39,500.82 C224.627325,500.649773 223.886059,500.394858 223.18,500.06 L221.45,499.25 C218.193036,497.728123 215.909052,494.682811 215.36,491.13 L215.36,491.13 C215.28026,490.586969 215.240154,490.038854 215.24,489.49 L215.24,376.92 C215.239481,375.697276 215.459678,374.484499 215.89,373.34 L215.89,373.34 Z" opacity=".85" style="mix-blend-mode:screen"/>
    <path stroke="#F3F3F4" d="M215.89,373.34 L215.89,373.34 C217.189592,369.781187 220.324922,367.21313 224.07,366.64 L225.37,366.44 C226.936346,366.199979 228.536779,366.31967 230.05,366.79 L288.57,385.05 C289.682664,385.398158 290.739978,385.903245 291.71,386.55 L291.71,386.55 C295.026557,388.755267 297.060326,392.43844 297.16,396.42 L297.25,399.82 L296,503.07 C295.99895,503.900309 295.891406,504.727054 295.68,505.53 L295.5,506.23 C294.320734,510.844472 290.162774,514.072037 285.4,514.07 L285.4,514.07 C284.629751,514.071972 283.86168,513.988122 283.11,513.82 L225.39,500.82 C224.627325,500.649773 223.886059,500.394858 223.18,500.06 L221.45,499.25 C218.193036,497.728123 215.909052,494.682811 215.36,491.13 L215.36,491.13 C215.28026,490.586969 215.240154,490.038854 215.24,489.49 L215.24,376.92 C215.239481,375.697276 215.459678,374.484499 215.89,373.34 L215.89,373.34 Z" opacity=".7"/>
    <path fill="#5082F8" fill-rule="nonzero" d="M43.5,118.11 C40.9115551,115.385728 38.8561343,112.200843 37.44,108.72 L37,107.56 C35.18,109.07 33.39,110.62 31.66,112.22 C27.93,115.66 22.54,120.64 21.2,126.13 C20.6876238,128.118985 20.8171271,130.219039 21.57,132.13 L21.57,132.19 C22.0297402,133.351522 22.7320446,134.40157 23.63,135.27 L23.9,135.54 C27.6140381,139.120223 33.3538414,139.540722 37.55,136.54 L37.97,136.24 C43.0766667,132.613333 48.0033333,128.753333 52.75,124.66 C49.2812803,123.079386 46.1427934,120.856998 43.5,118.11 Z"/>
    <path fill="#FFD166" fill-rule="nonzero" d="M117.47,286.43 L117.33,286.56 C115.260853,288.422625 114.079563,291.075985 114.08,293.86 L114.08,293.86 C114.08016,295.583014 114.531828,297.275906 115.39,298.77 L118.25,303.77 C118.92,304.94 119.55,306.12 120.16,307.31 L121,309 C126.371279,319.618976 131.047773,330.575331 135,341.8 L135,341.8 C135.493694,343.205706 136.285055,344.488257 137.32,345.56 L137.32,345.56 C139.300294,347.611121 142.028919,348.769704 144.88,348.77 L145.27,348.77 C146.574136,348.770076 147.863122,348.490454 149.05,347.95 L151.13,347 C153.548484,345.910231 155.37343,343.822491 156.13,341.28 L156.13,341.28 C156.669478,339.432493 156.609966,337.461591 155.96,335.65 L154.72,332.21 C154.660409,332.029384 154.590289,331.852414 154.51,331.68 L146.71,313.6 C145.65,311.16 144.496667,308.763333 143.25,306.41 L134,289.07 C133.098299,287.389141 131.734679,286.001233 130.07,285.07 L129.74,284.89 C127.524623,283.671123 124.925943,283.348972 122.48,283.99 L121.61,284.21 C120.071008,284.604908 118.650531,285.366613 117.47,286.43 L117.47,286.43 Z"/>
    <path fill="#FFC233" fill-rule="nonzero" d="M146.67,313.65 C145.61,311.21 144.456667,308.813333 143.21,306.46 L140.67,301.69 L121.91,310.79 C125.21,317.456667 128.233333,324.24 130.98,331.14 L150.2,321.84 L146.67,313.65 Z"/>
    <path fill="#FFB300" fill-rule="nonzero" d="M121.9 288.43C121.482253 288.10641 120.911782 288.063133 120.45 288.32 120.074358 288.633854 119.914486 289.136864 120.04 289.61 119.981662 289.980929 120.113081 290.356411 120.39 290.61 120.777458 290.93805 121.320435 291.010534 121.780377 290.795607 122.24032 290.580681 122.533066 290.117672 122.53 289.61 122.528248 289.136638 122.292361 288.694817 121.9 288.43zM130.32 291.72C130.270166 291.577233 130.175441 291.454441 130.05 291.37 129.740307 291.185157 129.368467 291.135083 129.020909 291.231417 128.673351 291.327751 128.380347 291.562103 128.21 291.88 128.039058 292.206879 128.032281 292.595232 128.191714 292.927877 128.351147 293.260521 128.658118 293.498498 129.02 293.57 129.359117 293.655961 129.718707 293.597061 130.012679 293.407402 130.30665 293.217743 130.508536 292.914401 130.57 292.57 130.623579 292.263195 130.531152 291.948943 130.32 291.72zM119.43 296C119.119384 295.982727 118.837741 296.181534 118.75 296.48 118.577476 296.618835 118.4518 296.807349 118.39 297.02 118.316832 297.361369 118.394677 297.717705 118.603537 297.997462 118.812397 298.277219 119.131913 298.45313 119.48 298.48 120.159153 298.497078 120.727605 297.968595 120.76 297.29 120.757414 296.941695 120.615162 296.608996 120.365135 296.366489 120.115108 296.123981 119.778222 295.991952 119.43 296zM126.81 298.09C126.742278 297.866599 126.55113 297.702758 126.32 297.67 125.658947 297.537658 125.001594 297.913289 124.78 298.55 124.6961 298.844219 124.742158 299.160279 124.906538 299.418317 125.070917 299.676354 125.337892 299.851683 125.64 299.9 126.112133 300.016283 126.606055 299.820302 126.870019 299.411946 127.133984 299.003591 127.109883 298.472756 126.81 298.09L126.81 298.09zM123.88 304.14L123.81 304.14C123.448676 304.142291 123.122937 304.358143 122.98 304.69 122.870446 304.971069 122.893628 305.286572 123.043086 305.54861 123.192545 305.810648 123.452307 305.991213 123.75 306.04 124.334897 306.185513 124.92797 305.833237 125.08 305.25 125.122929 304.927703 125.006484 304.604655 124.767797 304.383869 124.529109 304.163082 124.19798 304.072125 123.88 304.14zM134 299.15C133.774925 298.905532 133.404672 298.862974 133.13 299.05 132.591455 299.098539 132.140334 299.4778 132 300 131.848896 300.592219 132.155562 301.205552 132.72 301.44 134.13 301.91 134.87 300.06 134 299.15zM137.69 332.37C137.25779 332.233112 136.785525 332.329433 136.441445 332.62465 136.097365 332.919867 135.930389 333.372006 136 333.82 136.013633 334.038709 136.123498 334.240129 136.3 334.37 136.514559 334.658976 136.844091 334.840469 137.203007 334.867339 137.561923 334.89421 137.914805 334.763807 138.17 334.51 138.478275 334.192902 138.605747 333.741668 138.508956 333.310141 138.412165 332.878613 138.104178 332.525052 137.69 332.37zM145 334.45C144.736497 334.268261 144.401915 334.22365 144.1 334.33 143.544179 334.366364 143.109223 334.823067 143.1 335.38 143.130533 335.769625 143.348892 336.119973 143.685239 336.318995 144.021587 336.518018 144.433784 336.540779 144.79 336.38 145.147442 336.210149 145.391223 335.867074 145.434031 335.473651 145.476839 335.080228 145.312547 334.692751 145 334.45L145 334.45zM140.8 341.19C140.812584 341.034884 140.795617 340.878789 140.75 340.73 140.600281 340.32083 140.221278 340.040127 139.786234 340.016199 139.35119 339.992272 138.943689 340.229717 138.75 340.62 138.705594 340.741589 138.685217 340.870644 138.69 341 138.548635 341.473117 138.773761 341.978589 139.22 342.19 139.54105 342.33994 139.915508 342.321217 140.22 342.14L140.33 342.14C140.540407 342.111261 140.722857 341.980027 140.817026 341.789686 140.911194 341.599346 140.904816 341.374691 140.8 341.19zM148.91 342.17C148.771372 341.856999 148.482269 341.63666 148.143716 341.585979 147.805162 341.535297 147.464209 341.661316 147.24 341.92 146.838583 342.12284 146.621967 342.568706 146.71062 343.009637 146.799273 343.450568 147.17138 343.778067 147.62 343.81 147.798044 343.879878 147.992393 343.897231 148.18 343.86 148.508472 343.742342 148.773451 343.493747 148.911807 343.173443 149.050163 342.853139 149.049509 342.489804 148.91 342.17L148.91 342.17zM152 336.36C152.004916 336.320151 152.004916 336.279849 152 336.24 152.010724 335.91545 151.874848 335.603301 151.63 335.39L151.63 335.39C151.481936 335.075917 151.141974 334.899792 150.8 334.96 150.214132 335.046359 149.763996 335.52333 149.711667 336.113212 149.659339 336.703094 150.018483 337.251856 150.58 337.44 150.90058 337.513318 151.237211 337.445883 151.504813 337.254738 151.772415 337.063594 151.945383 336.76703 151.98 336.44 152.000956 336.419088 152.008649 336.388313 152 336.36zM148.61 328.33C148.555798 328.083302 148.365552 327.889175 148.12 327.83L148.04 327.83C147.86542 327.606535 147.570495 327.514869 147.3 327.6 146.790625 327.69195 146.39195 328.090625 146.3 328.6 146.23904 329.125925 146.598569 329.608221 147.12 329.7L147.18 329.7C147.452028 329.829561 147.767972 329.829561 148.04 329.7 148.52928 329.434873 148.766821 328.863942 148.61 328.33L148.61 328.33z"/>
    <path fill="#C9C9C9" fill-rule="nonzero" d="M251.39,485.54 L251.39,485.54 C250.372222,484.752304 249.777491,483.536985 249.78,482.25 L249.78,467.33 L251.39,467.33 L251.39,485.54 Z"/>
    <path fill="#A0A0A0" fill-rule="nonzero" d="M254.56,465.74 C254.56,467.09 252.78,468.19 250.56,468.19 C248.34,468.19 246.56,467.09 246.56,465.74 L246.56,460.2 L254.56,460.2 L254.56,465.74 Z"/>
    <path fill="#CAD9FD" fill-rule="nonzero" d="M242,423.21 L242,460.41 C242.012987,461.662027 242.701382,462.809351 243.8,463.41 C244.123104,463.578896 244.457189,463.725893 244.8,463.85 C248.533387,465.150095 252.596613,465.150095 256.33,463.85 C256.672811,463.725893 257.006896,463.578896 257.33,463.41 C258.428618,462.809351 259.117013,461.662027 259.13,460.41 L259.13,423.21 L242,423.21 Z"/>
    <path fill="#BBB" fill-rule="nonzero" d="M261.82,428.65 C261.82,431.23 256.82,433.33 250.58,433.33 C244.34,433.33 239.35,431.23 239.35,428.65 L239.35,423.21 L261.82,423.21 L261.82,428.65 Z"/>
    <ellipse cx="250.58" cy="423.21" fill="#C9C9C9" fill-rule="nonzero" rx="11.24" ry="4.68"/>
    <path fill="#B4B4B4" fill-rule="nonzero" d="M252.2,416 L249,416 L249,424 L249,424 C250.008844,424.540453 251.221156,424.540453 252.23,424 L252.23,424 L252.2,416 Z"/>
    <path fill="#C9C9C9" fill-rule="nonzero" d="M257.93,417.16 C257.93,418.85 254.64,420.22 250.58,420.22 C246.52,420.22 243.24,418.85 243.24,417.16 L243.24,414.92 L257.93,414.92 L257.93,417.16 Z"/>
    <ellipse cx="250.58" cy="414.92" fill="#D6D6D6" fill-rule="nonzero" rx="7.34" ry="3.06"/>
    <path stroke="#A7C0FB" stroke-linecap="round" d="M244.57 439L244.57 439C248.42683 440.600535 252.75464 440.639977 256.64 439.11L256.91 439M244.57 446.15L244.57 446.15C248.427275 447.751516 252.756719 447.787385 256.64 446.25L256.91 446.15M244.57 453.29L244.57 453.29C248.424672 454.901077 252.756605 454.940556 256.64 453.4L256.91 453.29"/>
    <path fill="#2D1F54" fill-rule="nonzero" d="M273.75,60.85 L276.82,53.41 C277.943256,50.7140345 280.208251,48.6579471 283,47.8 L283,47.8 C284.381534,47.376207 285.839755,47.2635107 287.27,47.47 L294.74,48.54 C301.322235,49.478614 308.034167,48.7919713 314.29,46.54 L314.29,46.54 C318.128619,45.167874 321.739009,43.2261518 325,40.78 L336.24,32.32 L333.73,39.19 C332.417099,42.7945188 331.862193,46.6311997 332.1,50.46 L332.1,50.46 C332.407438,55.3907609 334.022823,60.1506225 336.78,64.25 L336.78,64.25 C341.902253,71.8777219 347.873815,78.8993391 354.58,85.18 L359.58,89.82 L365.58,44.32 L352.42,18.32 L328.08,8.49 L293.16,13.15 L272.58,35.49 L272.58,50 L273.75,60.85 Z"/>
    <path fill="#DCDAE0" fill-rule="nonzero" d="M369.36,278.1 L321.49,263.26 L321.49,263.26 C323.920621,263.434249 326.340549,263.734654 328.74,264.16 C336.21,265.5 342.32,266.16 349.18,268.07 L351.68,268.78 C358.17,270.6 362.37,273.53 369.36,278.1 Z" style="mix-blend-mode:multiply"/>
    <path fill="#99D5CF" fill-rule="nonzero" d="M354.09,273.37 L358.29,260 C358.951096,257.899034 361.186252,256.727813 363.29,257.38 L363.29,257.38 C365.394983,258.03684 366.571371,260.273318 365.92,262.38 L361.73,275.71 L354.09,273.37 Z"/>
    <path stroke="#B0E6E9" stroke-linecap="round" stroke-width="1.5" d="M362.13,263.76 L355.18,285.96"/>
    <rect width="5.74" height="20.26" x="259.877" y="248.197" fill="#D6D6D6" fill-rule="nonzero" rx="2.87" transform="rotate(-12.49 262.747 258.327)"/>
    <path fill="#F3F3F4" fill-rule="nonzero" d="M243.5,262.32 L243.79,262.25 C255.37,259.243333 267.036667,256.656667 278.79,254.49 L284.22,253.49 L287,271.74 L288,278.9 L285.69,279.52 C281.183333,280.72 276.62,281.7 272,282.46 L267,283.28 C264.14,283.753333 261.3,284.31 258.48,284.95 L249.14,287.07 L246.14,276.27 C244.869548,271.701453 243.979837,267.035489 243.48,262.32 L243.5,262.32 Z"/>
    <path fill="#E9C9C4" fill-rule="nonzero" d="M347.12,84.07 L350.65,82.84 C353.390198,81.8807758 356.420641,82.250342 358.85,83.84 L358.85,83.84 C361.447505,85.5378203 363.029609,88.4170991 363.07,91.52 L363.07,91.52 C363.108137,94.3316713 362.371193,97.0995378 360.94,99.52 L360.42,100.39 C359.343649,102.222061 357.675376,103.632862 355.69,104.39 L354.91,104.69 C353.0952,105.369407 351.114647,105.470706 349.24,104.98 L344.5,103.74 L347.12,84.07 Z"/>
    <path stroke="#BF9997" stroke-linecap="round" stroke-width="1.5" d="M296.14,120 L298.27,120 C305.613113,120.003825 312.695327,117.277154 318.14,112.35 L318.14,112.35"/>
    <path fill="#2D1F54" fill-rule="nonzero" d="M315.13,64.51 C316.388784,63.7582118 317.83418,63.3769324 319.3,63.41 C320.021523,63.4152195 320.741104,63.4855043 321.45,63.62 C322.153665,63.7945881 322.845143,64.0150597 323.52,64.28 C324.181958,64.5857042 324.82037,64.9400063 325.43,65.34 C326.021493,65.7700637 326.567645,66.2592548 327.06,66.8 C328.0746,67.8585046 328.768112,69.1831121 329.06,70.62 L329.06,70.62 C329.065938,70.6439147 329.061811,70.669218 329.048582,70.6900065 C329.035353,70.710795 329.014179,70.7252504 328.99,70.73 C328.95906,70.7478633 328.92094,70.7478633 328.89,70.73 C328.065429,69.7236327 327.125677,68.8174431 326.09,68.03 C325.061899,67.2411206 323.931609,66.5952407 322.73,66.11 C320.349011,65.0516147 317.75231,64.5685873 315.15,64.7 C315.100068,64.6962569 315.058964,64.6592635 315.05,64.61 C315.052297,64.574011 315.070657,64.5409631 315.1,64.52 L315.13,64.51 Z"/>
    <path fill="#BF9997" fill-rule="nonzero" d="M567.63,309.38 C566.958202,311.771873 565.560573,313.896269 563.63,315.46 C563.15,315.84 562.9,316.14 563.01,316.62 C563.12,317.1 563.47,317.62 563.62,318.28 C563.961936,319.48496 563.891544,320.769614 563.42,321.93 C563.594769,320.761487 563.470923,319.567749 563.06,318.46 C562.87,317.92 562.52,317.46 562.32,316.78 C562.212445,316.39656 562.262862,315.986021 562.46,315.64 C562.642106,315.346993 562.875897,315.089484 563.15,314.88 C564.986671,313.355328 566.508402,311.487132 567.63,309.38 Z"/>
    <path fill="#574C76" fill-rule="nonzero" d="M373.41,333.39 C372.64,342.21 372.09,351.79 374.33,360.44 C375.648923,365.931929 377.905341,371.15518 381,375.88 C381.817747,377.1913 382.829195,378.371322 384,379.38 C384.463409,379.102084 384.910786,378.798269 385.34,378.47 L387.4,356.58 C387.73,353.08 387.95,349.58 388.07,346.04 L389.14,313.17 C389.2,311.27 389.333333,309.376667 389.54,307.49 C389.54,307.49 391.48,290.64 391.4,290.65 C391.258423,290.672099 391.118201,290.702146 390.98,290.74 C388.15,291.36 380.82,302.44 379.08,305.19 L379.08,305.19 C377.538236,307.693532 376.517847,310.482596 376.08,313.39 C375,320.06 374,326.7 373.41,333.39 Z" opacity=".2" style="mix-blend-mode:multiply"/>
    <path fill="#2D1F54" fill-rule="nonzero" d="M67.58,97.81 L67.45,97.63 C66.4758865,96.3251931 65.1660306,95.3091043 63.66,94.69 C64.7580607,95.7419895 65.4157154,97.1716736 65.5,98.69 C66.36,106.31 58.84,112.79 53.86,117.38 C49.57,121.32 32.4,135.79 22.92,134.53 C23.1375168,134.797458 23.3712923,135.051271 23.62,135.29 L23.89,135.56 C27.6040381,139.140223 33.3438414,139.560722 37.54,136.56 L37.96,136.26 C47.4795369,129.487619 56.4051118,121.916938 64.64,113.63 L64.83,113.43 C66.9597704,111.296466 68.4553185,108.61348 69.15,105.68 L69.15,105.54 C69.7867396,102.857794 69.2126612,100.03128 67.58,97.81 Z" opacity=".25" style="mix-blend-mode:multiply"/>
    <rect width="5.09" height="6.96" x="314.32" y="79.83" fill="#2D1F54" fill-rule="nonzero" rx="2.545"/>
    <rect width="5.09" height="6.96" x="284.08" y="79.16" fill="#2D1F54" fill-rule="nonzero" rx="2.545"/>
    <path fill="#5082F8" fill-rule="nonzero" d="M86.05,137.05 C90.43,138.05 94.35,141.42 96.88,145.81 L86.73,155.65 L82.52,149.76 C82.218893,149.308378 81.7640413,148.981453 81.24,148.84 C80.7880852,148.721024 80.30683,148.846074 79.97,149.17 C79.2562992,150.061412 79.2562992,151.328588 79.97,152.22 L85.48,159.92 C85.7819153,160.373158 86.2418218,160.697588 86.77,160.83 C87.2201903,160.949575 87.7002215,160.828622 88.04,160.51 L98.76,150.11 C99.39849,152.108884 99.7355251,154.191761 99.76,156.29 C99.86,165.18 93.87,170.98 86.38,169.29 C78.89,167.6 72.78,158.92 72.68,150 C72.58,141.08 78.56,135.32 86.05,137.05 Z"/>
    <path fill="#FFF" fill-rule="nonzero" stroke="#5082F8" d="M104.503497,144.666456 L98.76,150.07 L88.04,160.47 C87.7002215,160.788622 87.2201903,160.909575 86.77,160.79 C86.2418218,160.657588 85.7819153,160.333158 85.48,159.88 L80,152.22 C79.2862992,151.328588 79.2862992,150.061412 80,149.17 C80.33683,148.846074 80.8180852,148.721024 81.27,148.84 C81.7940413,148.981453 82.248893,149.308378 82.55,149.76 L86.76,155.65 L96.91,145.81 L102.223996,141.000536 C102.553427,140.685237 105.194458,143.785813 104.503497,144.666456 Z"/>
  </g>
</svg>
