<svg xmlns="http://www.w3.org/2000/svg" width="605" height="735" viewBox="0 0 605 735">
  <g fill="none" fill-rule="evenodd" transform="translate(0 -1)">
    <path fill="#F5F5F6" fill-rule="nonzero" d="M86.29,645.68 C71.63,645.95 56.4,646.38 43.29,653.82 C30.18,661.26 19.94,677.9 23.4,694 C27.03,710.91 43.4,720 58.4,723.55 C83.24,729.42 108.18,724.98 133.1,730.23 C146.78,733.11 160.6,736.47 174.55,735.53 C188.5,734.59 202.91,728.53 210.19,716.63 C212.42,712.97 213.94,708.84 216.77,705.63 C222.29,699.35 231.48,697.92 239.83,698.07 C271.77,698.66 309.22,691.59 337.83,710.07 C360.22,724.54 384.25,735.77 411.47,730.74 C424.79,728.29 435.97,720.23 448.54,715.38 C462.94129,709.833954 477.988136,706.137765 493.32,704.38 C506.58,702.85 520.11,702.77 532.95,699.14 C554.61,693 574.07,673.49 552.55,654.62 C544.27,647.36 533.31,645.62 522.88,644.62 C470.52,639.91 416.6,642.93 364,643 C305.213,643.08 246.427,643.47 187.64,644.17 C153.88,644.57 120.097,645.073 86.29,645.68 Z"/>
    <path fill="#F4F4F4" fill-rule="nonzero" d="M192.65,26.51 L243,17.78 L243.63,17.68 C260.045755,14.8290146 276.638322,13.1116205 293.29,12.54 L293.98,12.54 C297.155578,12.4944962 299.884166,14.7846373 300.39,17.92 L317.57,141.66 C318.044432,145.100595 315.640455,148.27456 312.2,148.75 L298.2,151.34 C286.593785,153.498275 274.846286,154.811722 263.05,155.27 C247.696389,155.870586 232.432915,157.90951 217.46,161.36 L211.56,162.72 C209.907681,162.950862 208.231332,162.515825 206.899795,161.510608 C205.568257,160.505391 204.690624,159.012352 204.46,157.36 L187.28,33.61 C186.805326,30.1673003 189.208101,26.9904463 192.65,26.51 Z"/>
    <path stroke="#F3F3F4" stroke-width="2" d="M192.65,26.51 L243,17.78 L243.63,17.68 C260.045755,14.8290146 276.638322,13.1116205 293.29,12.54 L293.98,12.54 C297.155578,12.4944962 299.884166,14.7846373 300.39,17.92 L317.57,141.66 C318.044432,145.100595 315.640455,148.27456 312.2,148.75 L298.2,151.34 C286.593785,153.498275 274.846286,154.811722 263.05,155.27 C247.696389,155.870586 232.432915,157.90951 217.46,161.36 L211.56,162.72 C209.907681,162.950862 208.231332,162.515825 206.899795,161.510608 C205.568257,160.505391 204.690624,159.012352 204.46,157.36 L187.28,33.61 C186.805326,30.1673003 189.208101,26.9904463 192.65,26.51 Z" opacity=".7"/>
    <path fill="#C69A93" fill-rule="nonzero" d="M431,47.34 L431,68.34 L423.32,84.26 C422.760651,85.414612 423.038631,86.8004287 424,87.65 C425.732909,89.1906072 427.971284,90.0411185 430.29,90.04 L431,90.04 L433.48,104 C433.967944,106.800092 435.34205,109.369529 437.4,111.33 C439.875692,113.693486 443.167265,115.011547 446.59,115.01 L453.07,115.01 L458.49,139.43 L496.16,131.29 L494.08,119.29 C493.554056,116.243281 493.396257,113.144385 493.61,110.06 L495.92,76.96 C496.1,74.644 496.127,72.32 496,70 L495.19,56.51 C494.939343,52.4599483 493.670114,48.5387536 491.5,45.11 L488,39.64 C483.327856,32.2683894 475.022258,28.014116 466.31,28.53 L458.17,29.02 C454.212468,29.2505805 450.33428,30.2277617 446.74,31.9 L438.46,35.75 C433.924582,37.8264273 431.011742,42.3518714 431,47.34 Z"/>
    <path fill="#739BF9" fill-rule="nonzero" d="M388.85,286.37 L388.85,209.55 L404.29,206.55 L421.19,276 C422.13,279.85 421.97,283.886 420.73,287.65 C419.539082,291.28225 416.415515,293.942494 412.64,294.54 L400.69,296.46 C396.81153,297.070518 392.925826,295.407437 390.69,292.18 C389.496585,290.477247 388.854351,288.449324 388.85,286.37 Z"/>
    <path fill="#5988F8" fill-rule="nonzero" d="M421.19,276 L404.29,206.56 L393.2,208.7 C393.58,214.5 393.2,220.3 393.34,226.15 C393.5,234.08 394.41,242.02 394.78,249.94 C395.15,258.08 394.95,266.32 395.87,274.42 C396.73,281.89 398.87,289.16 400.78,296.42 L412.64,294.52 C416.415515,293.922494 419.539082,291.26225 420.73,287.63 C421.966402,283.872359 422.125753,279.843556 421.19,276 Z"/>
    <path fill="#502DA8" fill-rule="nonzero" d="M429.66,183.26 L419,161.57 L405.12,161.57 L377.59,190.81 C375.737827,192.757677 375.406875,195.699477 376.78,198.01 L402.62,242.18 L431.62,214.52 L429.66,183.26 Z"/>
    <path fill="#000" fill-rule="nonzero" d="M431.54,213.52 L431.33,210.14 C431.33,209.75 431.28,209.34 431.25,208.9 L431.03,205.37 C430.46,196.15 429.66,183.26 429.66,183.26 L420,163.59 C417.25,169.39 412.2,179.88 411.78,180.87 C406.063779,194.480228 404.14236,209.385045 406.22,224 C406.71,227.44 409.32,235.8 406.33,238.65 L409.33,235.78 L411.33,233.9 L415.94,229.49 L417.16,228.33 L420.88,224.78 L421.53,224.16 L423.07,222.7 L424.4,221.42 L425.93,219.96 L427.24,218.71 L428.33,217.71 L431.62,214.57 L431.62,213.97 L431.54,213.52 Z" opacity=".2" style="mix-blend-mode:darken"/>
    <path fill="#FFF" fill-rule="nonzero" d="M379.12,192.56 L407.54,161.56 L417.54,161.56 L391.46,192 C388.63025,195.003444 384.565897,196.522034 380.46,196.11 C379.656057,196.035824 378.964921,195.509398 378.679807,194.754059 C378.394693,193.99872 378.565592,193.146906 379.12,192.56 Z"/>
    <path fill="#77D4DA" fill-rule="nonzero" d="M38.9,195 L33.83,216.52 C29.4933642,234.937792 27.6170255,253.849135 28.25,272.76 C28.4043726,277.478803 30.1687694,282.002717 33.25,285.58 C35.8859189,288.643009 39.3629998,290.864864 43.25,291.97 L51.67,294.39 C59.2145031,296.553703 67.340678,294.860382 73.3930439,289.863383 C79.4454099,284.866383 82.6464034,277.207683 81.95,269.39 L80.52,253.08 C78.6629508,231.934311 69.0153763,212.232874 53.45,197.8 L47.55,192.33 C46.1801628,191.06235 44.2386045,190.620751 42.4552443,191.171222 C40.671884,191.721693 39.3170175,193.1808 38.9,195 Z"/>
    <path fill="#ADADAD" fill-rule="nonzero" d="M0.79,230 C1.85192945,227.637629 3.89440604,225.858226 6.38,225.13 L57,210.28 L62,281.61 L19.28,296 C18.2741569,296.339019 17.1937268,296.390962 16.16,296.15 C14.0059398,295.638252 12.3418666,293.927413 11.89,291.76 L0.21,235.39 C-0.161871761,233.576734 0.0408695154,231.692639 0.79,230 Z"/>
    <polygon fill="#E6E6E6" fill-rule="nonzero" points="5.63 231.11 16.79 284.61 57.29 275.94 53.79 218.61"/>
    <path fill="#FFF" fill-rule="nonzero" d="M15.13,271.78 L15.82,274.33 C17.110143,279.098799 19.6270156,283.446438 23.12,286.94 C26.3510778,282.85585 30.9380316,280.063945 36.05,279.07 L53.79,275.61 L52.46,220.78 L9.13,234.61 L10.58,246.52 C11.6108227,255.020315 13.1300012,263.454259 15.13,271.78 Z"/>
    <path fill="#D6D6D6" fill-rule="nonzero" d="M8.35,250.65 L13.35,275.08 C13.461796,275.609415 13.7833312,276.07094 14.2412191,276.35924 C14.699107,276.64754 15.2542703,276.738009 15.78,276.61 L16.6,276.4 C17.622889,276.138675 18.2664938,275.127296 18.07,274.09 L17.31,270.19 C17.1813133,269.519275 17.4037795,268.829252 17.9,268.36 L19.13,267.2 C19.6295575,266.728658 19.8523162,266.033953 19.72,265.36 L18.24,257.83 C18.0596843,256.919923 17.2771693,256.253336 16.35,256.22 L14.77,256.17 C13.8042611,256.131082 13.0045293,255.407115 12.87,254.45 L12.24,249.97 C12.1603807,249.410086 11.8474301,248.910055 11.3786332,248.593712 C10.9098364,248.27737 10.3290231,248.174292 9.78,248.31 C8.75942995,248.588977 8.13269487,249.614544 8.35,250.65 Z"/>
    <path fill="#2D1F54" fill-rule="nonzero" d="M42.36,216.35 C45.6586513,224.241659 47.5830697,232.639429 48.05,241.18 C48.18,243.91 48.31,246.42 48.44,248.18 C49.3852461,260.515268 50.3552481,272.848626 51.35,285.18 L62,281.61 L57,210.28 L41.82,214.73 C42,215.27 42.14,215.81 42.36,216.35 Z" opacity=".3"/>
    <path fill="#2D1F54" fill-rule="nonzero" d="M462.88,671.76 C464.996237,672.956366 466.379273,675.126495 466.57,677.55 L467.17,685.17 C467.360724,687.672274 466.021778,690.04209 463.78,691.17 L461,692.59 C456.609675,694.804329 451.442799,694.867069 447,692.76 C434.983535,687.071248 423.237565,680.827865 411.8,674.05 L409.57,672.73 C408.140969,671.883636 407.354178,670.26678 407.57,668.62 L407.64,668.1 C407.830341,666.71044 408.761274,665.534323 410.07,665.03 L411.58,664.45 C415.083089,663.107348 418.884986,662.740983 422.58,663.39 L455.64,669.17 C458.184632,669.609372 460.634078,670.485624 462.88,671.76 Z M531,660.16 C533.116237,661.356366 534.499273,663.526495 534.69,665.95 L535.29,673.57 C535.475207,676.071042 534.137875,678.438 531.9,679.57 L529.12,681 C524.730043,683.215836 519.562467,683.278585 515.12,681.17 C503.103535,675.481248 491.357565,669.237865 479.92,662.46 L477.69,661.14 C476.258935,660.295511 475.471447,658.677223 475.69,657.03 L475.76,656.52 C475.948282,655.129563 476.879948,653.952521 478.19,653.45 L479.7,652.87 C483.202163,651.523987 487.004084,651.154164 490.7,651.8 L523.76,657.58 C526.304005,658.016254 528.75342,658.889112 531,660.16 Z"/>
    <path fill="#C69A93" fill-rule="nonzero" d="M531.42,643.92 L531.82,661.57 C531.852299,662.817018 531.064282,663.938115 529.88,664.33 L523.82,666.33 C522.889177,666.640475 521.894718,666.709296 520.93,666.53 L519.74,666.31 C514.799706,665.382959 509.993161,663.847955 505.43,661.74 L499.69,659 C499.378395,658.853073 499.179572,658.539507 499.179572,658.195 C499.179572,657.850493 499.378395,657.536927 499.69,657.39 L502.1,656.39 C502.239697,656.322422 502.396376,656.298049 502.55,656.32 L514,657.67 L506.26,624.53 L530,623.27 L530.42,627.27 C530.96,632.803 531.293,638.353 531.42,643.92 Z"/>
    <path fill="#CA948E" fill-rule="nonzero" d="M510.73,635.93 C511.37,636.93 512.05,637.79 512.73,638.67 C517.35,639.87 521.43,642.88 523.09,647.48 C524.43,651.18 523.97,657.38 527.09,660.16 C528.410967,661.226763 530.052215,661.818457 531.75,661.84 L531.82,661.84 L531.82,661.59 L531.42,643.94 C531.300153,638.382563 530.966573,632.831792 530.42,627.3 L530,623.3 L506.33,624.56 L508.73,634.83 C509.538577,634.839493 510.288983,635.252216 510.73,635.93 Z" opacity=".7" style="mix-blend-mode:multiply"/>
    <path fill="#C69A93" fill-rule="nonzero" d="M462.48,655 L462.88,672.65 C462.905771,673.895037 462.120207,675.012643 460.94,675.41 L454.88,677.41 C453.9459,677.722393 452.946875,677.787846 451.98,677.6 L450.8,677.38 C445.855682,676.456161 441.045439,674.921048 436.48,672.81 L430.75,670.05 C430.432544,669.905467 430.228782,669.58881 430.228782,669.24 C430.228782,668.89119 430.432544,668.574533 430.75,668.43 L433.17,667.43 C433.312046,667.370526 433.467333,667.349821 433.62,667.37 L445.06,668.76 L437.33,635.62 L461,634.36 L461.41,638.36 C461.995995,643.889537 462.352967,649.440951 462.48,655 Z"/>
    <path fill="#CA948E" fill-rule="nonzero" d="M462.48,655 C462.36,649.44 462.027,643.89 461.48,638.35 L461.07,634.35 L437.4,635.61 L442.07,655.61 C445.96,658.43 451.45,658.12 454.4,662.37 C456.34,665.18 457.68,670.37 456.65,673.69 C456.193261,675.289791 455.223531,676.695196 453.89,677.69 C454.229184,677.641462 454.563693,677.564525 454.89,677.46 L460.95,675.46 C462.130207,675.062643 462.915771,673.945037 462.89,672.7 L462.48,655 Z" opacity=".7" style="mix-blend-mode:multiply"/>
    <path fill="#E86749" fill-rule="nonzero" d="M483.13,419.8 L462.76,508.07 C462.428825,509.508928 462.280985,510.983968 462.32,512.46 L465.55,652.52 C465.573299,653.47332 464.920305,654.310492 463.99,654.52 L455.29,656.29 C449.869609,657.38945 444.242851,656.810379 439.16,654.63 C438.509838,654.332993 438.067609,653.711584 438,653 L418.08,504.21 C417.638412,500.625518 417.601514,497.002733 417.97,493.41 L433.83,333.93 L460.71,326.27 C483.71,331.85 510.09,320.55 533.61,317.65 L536.61,341.81 C538.264169,354.986694 538.615868,368.294327 537.66,381.54 L535.31,414.23 L526.17,508.17 C526.073301,509.103531 526.056574,510.04362 526.12,510.98 L533.89,636.56 C533.956481,637.552681 533.283195,638.443294 532.31,638.65 L525.43,639.93 C520.342445,640.877155 515.090268,640.353325 510.29,638.42 L507.9,637.42 C507.284654,637.162268 506.838333,636.614681 506.71,635.96 L484,512.67 C483.313103,508.916072 482.978315,505.106194 483,501.29 L483.13,419.8 Z"/>
    <path fill="#2D1F54" fill-rule="nonzero" d="M526.2,508.17 L527.43,495.49 C526.58,498.65 525.78,501.83 525.1,505.04 C521.61,521.61 523.31,539.4 523.83,556.22 C524.1,564.96 524.94,573.67 525.54,582.39 C526.1,590.39 525.95,598.39 526.6,606.39 C527.34,615.54 531.03,632.97 522.77,640.3 C523.67,640.22 524.57,640.11 525.46,639.95 L532.34,638.67 C533.313195,638.463294 533.986481,637.572681 533.92,636.58 L526.15,511 C526.085428,510.05698 526.102156,509.110151 526.2,508.17 Z" opacity=".2"/>
    <path fill="#2D1F54" fill-rule="nonzero" d="M483.13,419.8 L490.130061,389.56 C491.292737,384.521942 495.137593,380.534861 500.130148,379.19 L518.050618,374.45 C518.069199,375.791709 517.233416,376.997154 515.970286,377.45 L508.890224,380 C507.213255,380.597401 506.058346,382.142521 505.960199,383.92 L504.570186,408.25 C501.169419,436.670501 493.957922,464.503811 483.13,491 L483.13,419.8 Z" opacity=".5"/>
    <path fill="#726C82" fill-rule="nonzero" d="M123.68,674.59 C121.606071,675.703767 120.230848,677.785389 120.02,680.13 L119.31,687.5 C119.076441,689.929397 120.337705,692.258188 122.5,693.39 L125.15,694.77 C129.354995,696.976742 134.341898,697.124283 138.67,695.17 C150.38054,689.841495 161.845461,683.988913 173.03,677.63 L175.21,676.39 C176.611009,675.595969 177.399237,674.039219 177.21,672.44 L177.15,671.94 C176.986417,670.595952 176.105492,669.446919 174.85,668.94 L173.4,668.36 C170.041409,667.004308 166.377715,666.586094 162.8,667.15 L130.72,672.21 C128.252734,672.58769 125.87032,673.393108 123.68,674.59 Z M58,662.27 C55.9347935,663.393296 54.563035,665.469674 54.34,667.81 L53.63,675.18 C53.3964413,677.609397 54.6577048,679.938188 56.82,681.07 L59.47,682.45 C63.6753742,684.658017 68.6643389,684.801929 72.99,682.84 C84.696514,677.513549 96.1580482,671.664329 107.34,665.31 L109.52,664.07 C110.939372,663.268687 111.730573,661.686286 111.52,660.07 L111.46,659.57 C111.296417,658.225952 110.415492,657.076919 109.16,656.57 L107.71,655.99 C104.354449,654.636126 100.694463,654.21794 97.12,654.78 L65,659.88 C62.5458742,660.265311 60.1773326,661.073998 58,662.27 Z"/>
    <path fill="#EACDC8" fill-rule="nonzero" d="M57.81,646.55 L57.14,663.62 C57.0928205,664.823664 57.8344927,665.917935 58.97,666.32 L64.21,668.17 C65.4938611,668.616333 66.8692252,668.733239 68.21,668.51 L68.75,668.41 C73.5479512,667.596485 78.226823,666.192487 82.68,664.23 L88.27,661.64 C88.5735797,661.499024 88.7677846,661.194716 88.7677846,660.86 C88.7677846,660.525284 88.5735797,660.220976 88.27,660.08 L85.95,659.08 C85.8111714,659.021361 85.6601719,658.997338 85.51,659.01 L74.42,660.17 L82.42,628.23 L59.53,626.63 L59.07,630.5 C58.4352819,635.830973 58.0149431,641.185288 57.81,646.55 Z"/>
    <path fill="#DDB9B6" fill-rule="nonzero" d="M88.26,660.08 L86.67,659.37 C85.43,659.68 84.18,659.98 82.93,660.26 C81.13,660.653 79.327,661.007 77.52,661.32 C76.4696435,661.463253 75.4099477,661.526768 74.35,661.51 L74.68,660.11 L74.41,660.11 L78.05,645.62 L80.22,636.32 L81.69,630.03 L62.39,632.65 C66.13,640.74 70.39,650.46 67.53,659.17 C66.3,662.96 64.6,666.87 67.36,668.58 C67.64,668.58 67.93,668.53 68.21,668.49 L68.75,668.39 C73.5479512,667.576485 78.226823,666.172487 82.68,664.21 L88.27,661.62 C88.5612953,661.472752 88.7441276,661.173293 88.7420082,660.846903 C88.7398888,660.520512 88.553183,660.223453 88.26,660.08 Z" style="mix-blend-mode:multiply"/>
    <path fill="#EACDC8" fill-rule="nonzero" d="M124.34,658.39 L123.67,675.46 C123.619537,676.6646 124.362408,677.760638 125.5,678.16 L130.74,680 C132.021898,680.454817 133.398594,680.575278 134.74,680.35 L135.28,680.25 C140.076494,679.438941 144.752763,678.031357 149.2,676.06 L154.8,673.48 C155.10358,673.339024 155.297785,673.034716 155.297785,672.7 C155.297785,672.365284 155.10358,672.060976 154.8,671.92 L152.48,670.92 C152.342308,670.857487 152.190294,670.833303 152.04,670.85 L140.94,672 L149,640 L126.11,638.4 L125.65,642.27 C124.983965,647.622225 124.546899,653.000463 124.34,658.39 Z"/>
    <path fill="#DDB9B6" fill-rule="nonzero" d="M154.79,671.92 L153.2,671.21 C151.96,671.52 150.71,671.82 149.46,672.1 C147.66,672.49 145.86,672.84 144.05,673.17 C142.99909,673.306726 141.939632,673.366884 140.88,673.35 L141.21,671.95 L140.94,671.95 L144.58,657.46 L146.75,648.17 L148.21,641.87 L126.52,644.87 C128.52,653.27 134.32,661.4 132.65,670.34 C132.32,672.08 130.54,675.73 131.33,677.51 C132.12,679.29 134.8,679.43 136.33,679.51 C137.202467,679.565005 138.077533,679.565005 138.95,679.51 C142.446523,678.681137 145.860545,677.536435 149.15,676.09 L154.75,673.5 C155.069276,673.372401 155.281868,673.066898 155.290569,672.723179 C155.299271,672.37946 155.10241,672.063591 154.79,671.92 Z" style="mix-blend-mode:multiply"/>
    <path fill="#A4E3E6" fill-rule="nonzero" d="M108.15,430.47 L126.43,516.21 C126.727795,517.606037 126.852069,519.033504 126.8,520.46 L121.41,655.93 C121.369731,656.845084 121.994811,657.655998 122.89,657.85 L131.28,659.7 C136.505005,660.853735 141.957625,660.386267 146.91,658.36 C147.53074,658.108244 147.969409,657.543696 148.06,656.88 L169.73,513.2 C170.216213,509.738393 170.313485,506.233244 170.02,502.75 L167.22,387.89 C165.58,368.04 160.84,339.23 150.94,321.94 L142.21,321.94 L58.77,324.11 C52.59,336.11 50.31,348.95 48.35,362.27 L48.26,362.95 C46.699622,374.204375 47.6107643,385.663611 50.93,396.53 L53.53,405.1 C56.3211698,417.848872 58.248882,430.77156 59.3,443.78 L65.06,515.28 C65.13,516.185 65.13,517.095 65.06,518 L55.51,639.38 C55.4392212,640.328053 56.080051,641.182493 57.01,641.38 L63.64,642.73 C68.549,643.73 73.641,643.31 78.32,641.52 L80.65,640.62 C81.2528603,640.388383 81.6946362,639.863538 81.82,639.23 L105.82,520.23 C106.549654,516.607454 106.941336,512.924978 106.99,509.23 L108.15,430.47 Z"/>
    <path fill="#EACDC8" fill-rule="nonzero" d="M157.85,54.54 L158.64,74.59 L163.38,88.14 C163.635989,88.8302983 163.476949,89.6061039 162.97,90.14 C161.395703,91.8192671 159.510978,93.1776279 157.42,94.14 L156.67,107.48 C156.441712,111.538698 155.159575,115.467827 152.95,118.88 C150.682402,122.371517 146.936589,124.627854 142.79,125 L139.79,125.26 L139.79,133 C139.782029,138.528195 139.448116,144.051112 138.79,149.54 L138.19,154.54 L89.71,153.64 L91.71,146.01 C94.044129,136.898829 95.0544913,127.499092 94.71,118.1 L94.64,116.1 C94.3708896,108.288841 92.1389176,100.671247 88.15,93.95 L79.72,79.74 C75.109718,71.9791749 73.9393782,62.6490666 76.49,53.99 L77.49,50.55 C80.679491,39.7270913 89.2526001,31.331879 100.14,28.37 L116.07,24 C124.3346,21.7603969 133.149012,22.8707324 140.6,27.09 L141.4,27.54 C144.724917,29.4208446 147.690666,31.8753745 150.16,34.79 C154.860918,40.3274786 157.568657,47.2816847 157.85,54.54 Z"/>
    <path fill="#E5C0BA" fill-rule="nonzero" d="M94.7,116 L94.77,118 C94.9236701,122.398227 94.7766611,126.801814 94.33,131.18 C98.86,130.88 103.39,128.26 107.87,127.76 C111.4,127.35 115.87,127.56 118.45,124.62 C122.2,120.33 121.98,111.95 122.34,106.62 C122.48,104.5 122.56,102.38 122.61,100.26 C121.981096,99.9557809 121.556515,99.3454462 121.49,98.65 C119.01,84.27 127.33,75.05 138.73,68.43 C139.653655,67.8164013 140.627053,67.2811993 141.64,66.83 C142.164657,66.5849605 142.75689,66.5250322 143.32,66.66 C147.6,64.4 151.32,62.01 154.19,57.8 C155.515532,55.8447575 156.660259,53.7728688 157.61,51.61 C156.287546,41.485834 150.284265,32.5716461 141.4,27.54 L140.6,27.09 C133.149012,22.8707324 124.3346,21.7603969 116.07,24 L100.21,28.31 C89.3226001,31.271879 80.749491,39.6670913 77.56,50.49 L76.56,53.93 C74.0093782,62.5890666 75.179718,71.9191749 79.79,79.68 L88.22,93.89 C92.1989842,100.600398 94.4272649,108.203374 94.7,116 Z"/>
    <path fill="#423565" fill-rule="nonzero" d="M144.12,16.28 C121.05,8.28 86.83,21.94 75.53,41.97 C67.05,56.97 71.37,75.97 74.71,92.46 C76.01,98.89 77.65,106.67 80.63,112.96 C83.0009257,117.849203 87.9867701,120.924912 93.42,120.85 C96.08,120.85 99.68,120.85 103.03,120.94 C110.032034,121.086382 116.761965,118.229165 121.52,113.09 C122.075388,112.501402 122.574247,111.861926 123.01,111.18 C126.3,105.63 122.5,100.35 126.15,95 C127.26,93.37 128.57,85.27 128.57,85.27 C137.01,82.6 142.16,85.17 148.08,76.12 C149.541907,73.8381227 150.720577,71.3867567 151.59,68.82 L156.59,54.43 C158.651549,51.1535185 160.908988,48.0044591 163.35,45 C173.25,33.17 154.4,19.85 144.12,16.28 Z"/>
    <path fill="#000" fill-rule="nonzero" d="M125.87,95.45 C123.95,97.33 122.08,99.32 120.09,101.36 C117.63,103.87 114.48,105.46 112.56,108.45 C111.11,110.69 110.27,112.62 107.77,113.92 C100.12,117.92 85.77,114.59 79.77,108.79 C79.3534002,108.409967 79.0901972,107.890675 79.03,107.33 C78.6576505,106.909917 78.3135625,106.46561 78,106 C78.7149562,108.392289 79.5971287,110.731382 80.64,113 C83.0109257,117.889203 87.9967701,120.964912 93.43,120.89 C96.09,120.89 99.69,120.89 103.04,120.98 C110.042034,121.126382 116.771965,118.269165 121.53,113.13 C122.085388,112.541402 122.584247,111.901926 123.02,111.22 C126.21,105.79 122.73,100.65 125.87,95.45 Z"/>
    <path fill="#423565" fill-rule="nonzero" d="M156.93,47 C157.960668,54.827389 157.078829,62.7879647 154.36,70.2 C154.327028,70.3131231 154.374253,70.434278 154.475084,70.4952457 C154.575915,70.5562135 154.705142,70.5417503 154.79,70.46 L162.48,62.3 C166.446256,58.1253854 168.887948,52.7346367 169.41,47 L169.55,45.48 C169.85108,42.12866 169.246702,38.7579571 167.8,35.72 L167.59,35.27 C165.39467,30.6427798 162.022075,26.6736004 157.81,23.76 L157.61,23.62 C152.932163,20.3793489 147.482037,18.4304116 141.81,17.97 L136.45,17.52 C132.6443,17.1668163 129.103355,19.5025102 127.93,23.14 L127.75,23.71 C125.227,32.102 129.545,41.028 137.69,44.26 L138,44.39 C142.531397,46.2596066 147.618603,46.2596066 152.15,44.39 L152.2,44.39 C153.170034,43.9683166 154.280833,44.0206493 155.206925,44.5316643 C156.133017,45.0426793 156.769545,45.9545158 156.93,47 Z M76.32,74.8 C79.147392,73.7286094 82.2333221,73.5403154 85.17,74.26 C108.48,79.62 113.62,105.26 97.22,121.26 C85.42,132.83 72.02,130.2 64.77,122.01 C62.4,119.34 61.97,115.52 60.95,112.24 C59.87,108.76 57.33,105.58 56.95,101.93 C56.09,93.41 58.58,87.07 65.89,81.45 C69.38,78.82 72.62,76.17 76.32,74.8 Z"/>
    <path fill="#000" fill-rule="nonzero" d="M92.34,76.82 C94.2611304,78.1220277 95.7951034,79.9185726 96.78,82.02 C97.62,83.9 97.69,85.96 98.22,87.93 C98.82,90.15 99.98,92.17 100.64,94.37 C101.78366,98.2124153 101.38179,102.349528 99.52,105.9 C97.42,110.21 93.87,113.26 90.52,116.56 C87.59,119.44 85.23,122.78 80.91,123.44 C78.8504413,123.584991 76.780725,123.443645 74.76,123.02 C72.47,122.73 70.05,122.91 67.82,122.27 C65.8424259,121.74348 64.1077483,120.549344 62.91,118.89 C63.347856,120.042609 63.98038,121.111473 64.78,122.05 C72.03,130.24 85.43,132.87 97.23,121.3 C111.77,107 109.34,85.29 92.34,76.82 Z"/>
    <path fill="#2D1F50" fill-rule="nonzero" d="M106.54,101 C106.35924,99.2440104 106.088888,97.498402 105.73,95.77 C105.374783,94.0688195 104.890037,92.3972828 104.28,90.77 C103.675111,89.1512393 102.942816,87.5829912 102.09,86.08 C101.212375,84.5546032 100.250902,83.0790081 99.21,81.66 C102.182444,83.8088236 104.440166,86.8016992 105.69,90.25 C107.005598,93.6760413 107.300823,97.4097766 106.54,101 Z"/>
    <path fill="#B88D86" fill-rule="nonzero" d="M475.67,106 C475.855983,107.758425 476.463134,109.4461 477.44,110.92 C478.467261,112.409694 480.328333,113.080966 482.07,112.59 C482.655067,112.255504 483.275555,111.987185 483.92,111.79 C485.058046,111.716376 486.11472,112.381839 486.54,113.44 C486.942882,114.475582 487.143174,115.578888 487.13,116.69 C487.425799,120.887557 488.394842,125.010212 490,128.9 C490.36241,130.011564 491.061306,130.983029 492,131.68 C492.978124,132.35664 494.319215,132.115244 495,131.14 C495.201386,130.642787 495.270299,130.101823 495.2,129.57 C494.82,121.81 493.2,114.1 493.6,106.34 C493.907888,103.420684 494.031466,100.484864 493.97,97.55 C493.75,94.62 492.79,91.55 490.6,89.64 C487.67,87.01 483.31,86.85 479.41,87.29 C478.621292,87.4505787 477.804317,87.4023186 477.04,87.15 C476.501538,86.8379917 475.99568,86.4728359 475.53,86.06 C469.81,81.91 472.97,90.37 473.47,92.47 C474.51,96.93 474.88,101.51 475.67,106 Z" opacity=".4"/>
    <path fill="#3B3D3D" fill-rule="nonzero" d="M438.83,45.55 L430.67,44.64 C425.370876,44.051183 420.802008,40.6484278 418.72,35.74 C417.124191,31.9828067 417.156776,27.7322859 418.81,24 L419.37,22.74 C422.188969,16.3832008 427.847359,11.7333833 434.63,10.2 C437.373832,9.58955994 440.234531,9.76987066 442.88,10.72 L449.19,13 L453.55,7.89 C458.825677,1.684965 467.394228,-0.601575253 475.06,2.15 L477.45,3 C481.954878,4.63063174 485.707442,7.85321274 488,12.06 L489.33,14.5 L494.52,14.02 C498.996058,13.6178855 503.396214,15.3705213 506.37,18.74 C508.630966,21.3106416 509.878672,24.6165273 509.88,28.04 L509.88,42.93 C515.522735,44.5793791 520.040048,48.8217902 522.04,54.35 L522.15,54.63 C523.415939,58.1320999 523.593713,61.935075 522.66,65.54 L522.58,65.82 C521.618786,69.5317168 519.520875,72.8499128 516.58,75.31 L511,80 C510.512355,85.585275 508.272403,90.8736627 504.6,95.11 L503.14,96.8 L501.39,101.07 C500.722441,102.693803 499.417126,103.972069 497.779702,104.605483 C496.142278,105.238898 494.316542,105.171836 492.73,104.42 L489.33,102.81 L487.52,102.81 C485.238771,102.81037 482.985437,102.308491 480.92,101.34 C477.22,99.6 471.78,87.19 470.38,83.34 L468.16,80.71 C460.320469,71.4078 456.13021,59.5727164 456.37,47.41 L438.83,45.55 Z"/>
    <path fill="#C69A93" fill-rule="nonzero" d="M457.42,74.7 L459.42,73.08 C460.962345,71.8413865 462.881873,71.1674347 464.86,71.17 L464.91,71.17 C467.913297,71.169753 470.70536,72.7150221 472.3,75.26 C473.479272,77.153993 473.840098,79.4452402 473.3,81.61 C472.72714,83.9506532 471.154891,85.9214495 469,87 C466.612183,88.1796932 463.899762,88.5314988 461.29,88 L456.5,87 L457.42,74.7 Z"/>
    <path fill="#2D1F54" fill-rule="nonzero" d="M278.89,62.46 L279.06,62.46 L279.06,62.39 C279.034869,62.1269474 278.8902,61.8900518 278.667665,61.7475513 C278.445129,61.6050508 278.169437,61.5727672 277.92,61.66 C277.423293,61.7863131 276.9704,62.045603 276.61,62.41 L275.96,61.58 C276.471466,61.0592875 277.131767,60.7099218 277.85,60.58 C278.402964,60.4091391 279.003418,60.4954508 279.485867,60.8151462 C279.968316,61.1348415 280.28183,61.6541711 280.34,62.23 L280.92,65.42 L279.75,65.63 L279.67,65.21 C279.659178,65.090244 279.659178,64.969756 279.67,64.85 C279.457587,65.495291 278.877446,65.9491425 278.2,66 C277.76528,66.1130197 277.30315,66.0404775 276.923968,65.7996967 C276.544785,65.5589159 276.282592,65.1715124 276.2,64.73 C275.89,63.12 278.06,62.61 278.89,62.46 Z M278.34,64.96 C278.999377,64.7574807 279.394498,64.0844717 279.25,63.41 L279.25,63.29 L279.03,63.29 C278.38,63.41 277.35,63.69 277.48,64.4 C277.499835,64.6006769 277.606466,64.7826338 277.771849,64.898017 C277.937231,65.0134002 278.144813,65.050661 278.34,65 L278.34,64.96 Z M279.41,80.1 L280.68,79.86 L281.08,82.06 C281.08,82.31 281.13,82.49 281.13,82.49 C281.399712,81.9432122 281.925294,81.5677959 282.53,81.49 C283.91,81.24 284.99,82.17 285.28,83.75 C285.476151,84.4077227 285.386219,85.1176436 285.032256,85.7056783 C284.678293,86.293713 284.093036,86.7054774 283.42,86.84 C282.821145,86.9696298 282.197257,86.7892284 281.76,86.36 C281.796,86.474 281.822,86.591 281.84,86.71 L281.9,87 L280.7,87.22 L279.41,80.1 Z M283,85.79 C283.7,85.67 284.17,84.99 284,83.98 C283.83,82.97 283.19,82.47 282.44,82.61 C281.69,82.75 281.25,83.32 281.44,84.45 C281.61,85.24 282.18,86 283,85.79 Z M285.91,102.26 C286.636493,102.094163 287.399236,102.24308 288.01,102.67 L287.6,103.67 C287.177329,103.395157 286.668541,103.28486 286.17,103.36 C285.749722,103.426928 285.375875,103.66479 285.137193,104.017131 C284.898511,104.369471 284.816273,104.804875 284.91,105.22 C284.975164,105.648267 285.21331,106.030995 285.56873,106.278655 C285.92415,106.526315 286.365667,106.617182 286.79,106.53 C287.346526,106.401247 287.837103,106.074196 288.17,105.61 L288.83,106.42 C288.372378,107.072561 287.667897,107.509701 286.88,107.63 C286.158615,107.807014 285.396076,107.674336 284.776875,107.264068 C284.157674,106.8538 283.738221,106.203317 283.62,105.47 C283.472307,104.737517 283.634771,103.97658 284.068728,103.368282 C284.502685,102.759985 285.169326,102.358726 285.91,102.26 Z"/>
    <rect width="25.11" height="3.59" x="213.019" y="57.616" fill="#CAD9FD" fill-rule="nonzero" rx="1.79" transform="rotate(-10.28 225.574 59.411)"/>
    <path fill="#CAD9FD" fill-rule="nonzero" d="M237.1,122.94 C232.140896,123.838318 227.391864,120.548461 226.49,115.59 L216.28,59.28 L234.28,56.02 L244.49,112.34 C244.923166,114.726526 244.386738,117.187261 242.999577,119.176964 C241.612415,121.166668 239.489062,122.521046 237.1,122.94 Z"/>
    <path fill="#E55635" fill-rule="nonzero" d="M236,117 C234.542493,117.265092 233.039392,116.939724 231.82199,116.095608 C230.604587,115.251492 229.772815,113.95792 229.51,112.5 L222.24,72.43 L233.24,70.43 L240.51,110.5 C240.775048,111.960155 240.448609,113.465777 239.602625,114.685044 C238.756641,115.904311 237.460551,116.737146 236,117 Z"/>
    <path stroke="#CCC" stroke-linecap="round" d="M272.08,65.22 L227.92,73.4 M276.03,85.99 L231.88,94.17 M279.81,106.79 L235.65,114.97"/>
    <path fill="#EACDC8" fill-rule="nonzero" d="M251.09,122.51 L249.59,106 C249.176797,101.27505 250.007671,96.524244 252,92.22 L255.21,85.22 C257.419864,80.3920099 260.099441,75.7931859 263.21,71.49 C263.668073,70.9174901 264.402697,70.6415304 265.124413,70.7708552 C265.846129,70.90018 266.439222,71.4140544 266.67,72.11 C267.182939,73.9818315 266.946187,75.9798782 266.01,77.68 L265.24,79.08 C263.144713,82.8940261 261.822787,87.0840902 261.35,91.41 L263.6,92.28 C267.315389,93.6661535 270.656958,95.8984312 273.36,98.8 C275.78,101.47 279.13,105.47 278.15,109.32 C278.01,109.88 277.86,110.43 277.69,110.97 C276.22,115.8 275.55,120.17 272.15,123.9 L267.45,129.06 L265.33,135.4 L252.33,131.35 L251.09,122.51 Z"/>
    <path fill="#22ABB2" fill-rule="nonzero" d="M33.12,190.79 L41,177.7 C45.1454947,170.796392 50.2308617,164.502787 56.11,159 C59.6544021,155.561086 63.5261026,152.476453 67.67,149.79 C83.61,139.85 102.96,141.08 120.83,143.4 C123.95,143.8 127.053,144.3 130.14,144.9 C141.883164,147.167081 153.186715,151.302939 163.62,157.15 C166.62,158.82 169.51,160.59 172.38,162.42 L173.24,162.96 L171.46,220.33 C172.015198,230.22964 170.813317,240.149395 167.91,249.63 C164.658137,260.27463 162.283533,271.167708 160.81,282.2 C160.26684,286.375158 159.663444,290.542259 159,294.7 C157.272736,305.896691 156.536549,317.223927 156.8,328.55 L156.89,332.39 C156.731886,333.182444 156.112444,333.801886 155.32,333.96 L150.91,334.85 C139.461037,338.226997 127.552257,339.782663 115.62,339.46 L106.86,339.23 C88.07,338.72 71.07,340.13 54.81,331.09 C54.1887316,330.731318 53.807152,330.06737 53.81,329.35 L53.58,280.71 C53.5198796,268.546564 53.093019,256.387706 52.3,244.25 L50.15,211.44 L43.47,206.1 C39.97,203.3 35.35,197.02 33.26,194.1 C32.5531115,193.124808 32.4979825,191.8214 33.12,190.79 Z"/>
    <path fill="#22ABB2" fill-rule="nonzero" d="M143.8,248.16 L143.8,250.57 C143.61,270.57 137.11,296.57 157.28,309.98 C157.66,304.867 158.237,299.773 159.01,294.7 C159.677,290.52 160.28,286.337 160.82,282.15 C162.293533,271.117708 164.668137,260.22463 167.92,249.58 C170.096162,242.469597 171.320157,235.102092 171.56,227.67 C169.22,225.53 165.28,225.67 162.37,227.16 C160.532514,228.172606 158.832057,229.416023 157.31,230.86 C154.643,224.02 151.977,217.177 149.31,210.33 C147.04,204.46 137.95,206.63 139.67,212.99 C142.72,224.15 143.78,236.3 143.8,248.16 Z" opacity=".7" style="mix-blend-mode:multiply"/>
    <path fill="#77D4DA" fill-rule="nonzero" d="M182.63,175.61 L214.63,203.94 L250.07,131.24 C250.290763,130.782066 250.819968,130.562639 251.3,130.73 L266.3,135.83 C266.804241,135.975838 267.109901,136.486726 267,137 L259.63,174.7 C255.992838,193.306647 251.054033,211.635027 244.85,229.55 L244.09,231.77 C240.039333,243.447279 227.548122,249.901731 215.68,246.45 L162,230.78 L147,194.94 L182.63,175.61 Z"/>
    <path fill="#116D6D" fill-rule="nonzero" d="M186.36,225.33 C193.25,213.1 194.61,199.33 193.92,185.61 L182.63,175.61 L147,194.94 L162,230.78 L179.35,235.83 C181.907263,232.482408 184.248671,228.975306 186.36,225.33 Z"/>
    <path fill="#618EF9" fill-rule="nonzero" d="M445.63,148.22 L448.82,138.4 C449.719441,135.641526 452.131093,133.650647 455.01,133.29 L470.01,131.39 C479.156142,130.243426 488.240427,128.64817 497.23,126.61 C498.207331,126.386248 499.199305,126.920716 499.55,127.86 L504.61,141.55 L471.36,146.55 L445.63,148.22 Z"/>
    <path fill="#5082F8" fill-rule="nonzero" d="M470,133.14 C469.643559,134.052271 469.791582,135.084639 470.39,135.86 C470.813058,136.225488 471.322515,136.476775 471.87,136.59 C474.34,137.4 476.94,138.92 476.53,141.85 C476.170884,143.637328 475.11707,145.209057 473.6,146.22 L504.68,141.55 L499.62,127.86 C499.269305,126.920716 498.277331,126.386248 497.3,126.61 C493.3,127.51 489.3,128.32 485.3,129.04 C482.42,129.56 479.5,129.9 476.62,130.44 C474.7,130.79 470.89,131.12 470,133.14 Z"/>
    <path fill="#5082F8" fill-rule="nonzero" d="M538.45,307.27 L539.29,279.88 L543.29,274.81 C546.501916,270.712028 548.572007,265.836963 549.29,260.68 C550.57259,251.288125 550.797329,241.781993 549.96,232.34 L548.67,217.74 C547.123707,200.536906 543.830059,183.535924 538.84,167 L537.91,163.92 C536.229064,158.301218 532.532698,153.500927 527.53,150.44 C515.779451,143.231377 502.072608,139.868464 488.32,140.82 L472.72,141.89 C463.385696,142.535282 454.217256,144.686404 445.57,148.26 C441.399466,149.9917 437.502213,152.319273 434,155.17 C428.049181,160.014243 423.390536,166.25669 420.44,173.34 L418.54,178 C413.052106,191.199696 408.637794,204.820524 405.34,218.73 L399.83,239.27 C398.58,243.9 389.45,277 388.89,285 C388.552586,289.794407 390.580262,294.450969 394.32,297.47 C397.984497,300.419428 402.837295,301.441265 407.38,300.22 C414.52889,298.282899 420.468649,293.308123 423.63,286.61 L434.13,268.13 L433.74,302.93 C433.663468,309.561277 433.236204,316.183863 432.46,322.77 L430.91,336 C430.841091,336.586875 431.035231,337.174183 431.440338,337.604368 C431.845445,338.034553 432.420048,338.263577 433.01,338.23 L534.93,332.46 C535.907486,332.40158 536.698925,331.644 536.8,330.67 L537.04,328.42 C537.76,321.393 538.23,314.343 538.45,307.27 Z"/>
    <path fill="#2D1F54" fill-rule="nonzero" d="M439.46,60.57 C440.725262,60.0484926 442.114011,59.9026739 443.46,60.15 C444.829003,60.3649084 446.139355,60.8584174 447.31,61.6 C448.457931,62.3517068 449.455087,63.3115536 450.25,64.43 C450.632685,64.9766953 450.96727,65.5555276 451.25,66.16 C451.512,66.776 451.726,67.411 451.89,68.06 C451.386932,67.6423137 450.906263,67.1983626 450.45,66.73 C449.96,66.32 449.54,65.86 449.07,65.47 C448.167482,64.6759282 447.211938,63.9442357 446.21,63.28 C444.144559,61.9716757 441.856731,61.0531552 439.46,60.57 Z"/>
    <rect width="4.05" height="5.29" x="438.11" y="70.64" fill="#63391C" fill-rule="nonzero" rx="2.025" transform="rotate(-180 440.135 73.285)"/>
    <path stroke="#BF6E32" stroke-linecap="round" d="M440.68,97.4 L440.61,97.46 C438.733089,99.4017763 436.150597,100.50186 433.45,100.51" style="mix-blend-mode:multiply"/>
    <path fill="#EACDC8" fill-rule="nonzero" d="M140.41,85.3 L138,83.36 C136.157521,81.8865504 133.86919,81.0826376 131.51,81.08 L131.44,81.08 C127.844017,81.0831456 124.504806,82.9437252 122.61,86 C121.196736,88.2623826 120.763598,91.0019786 121.41,93.59 C122.105754,96.3689219 123.979134,98.706082 126.54,99.99 C129.385729,101.407854 132.621752,101.840497 135.74,101.22 L141.47,100 L140.41,85.3 Z"/>
    <path fill="#22ABB2" fill-rule="nonzero" d="M132.21,181.72 C133.402537,195.781642 137.257653,209.488344 143.57,222.11 L152.64,240.26 C153.42,239.77 154.18,239.26 154.94,238.77 C173.810699,225.989461 187.587297,206.981154 193.86,185.07 L195.35,180 C195.779278,179.185877 195.559703,178.1809 194.83,177.62 C189.73,173.72 184.467,170.053 179.04,166.62 L168.36,159.84 C160.885291,155.08134 151.372671,154.919061 143.74,159.42 C135.932109,164.021378 131.450605,172.688989 132.21,181.72 Z"/>
    <polygon fill="#CAD9FD" fill-rule="nonzero" points="581.476 132.887 604.376 134.489 602.774 157.389 579.874 155.787"/>
    <path fill="#FCFCFC" fill-rule="nonzero" d="M390,137.12 L350.51,138.45 L350,138.45 C337.121158,138.888707 324.227391,138.440983 311.41,137.11 L310.88,137.05 C308.449769,136.727449 306.611847,134.69049 306.54,132.24 L306.54,35.62 C306.539997,34.3293134 307.053404,33.0916355 307.966995,32.1799207 C308.880586,31.2682059 310.119316,30.7573443 311.41,30.76 L322.41,30.26 C331.532338,29.8430865 340.67289,30.0870574 349.76,30.99 C361.58789,32.1699008 373.500777,32.2301684 385.34,31.17 L390,30.76 C391.290684,30.7573443 392.529414,31.2682059 393.443005,32.1799207 C394.356596,33.0916355 394.870003,34.3293134 394.87,35.62 L394.87,132.25 C394.87,134.939627 392.689627,137.12 390,137.12 Z"/>
    <path stroke="#F3F3F4" stroke-width="2" d="M390,137.12 L350.51,138.45 L350,138.45 C337.121158,138.888707 324.227391,138.440983 311.41,137.11 L310.88,137.05 C308.449769,136.727449 306.611847,134.69049 306.54,132.24 L306.54,35.62 C306.539997,34.3293134 307.053404,33.0916355 307.966995,32.1799207 C308.880586,31.2682059 310.119316,30.7573443 311.41,30.76 L322.41,30.26 C331.532338,29.8430865 340.67289,30.0870574 349.76,30.99 C361.58789,32.1699008 373.500777,32.2301684 385.34,31.17 L390,30.76 C391.290684,30.7573443 392.529414,31.2682059 393.443005,32.1799207 C394.356596,33.0916355 394.870003,34.3293134 394.87,35.62 L394.87,132.25 C394.87,134.939627 392.689627,137.12 390,137.12 Z" opacity=".7"/>
    <circle cx="350.69" cy="105.47" r="9.64" fill="#7C61BE" fill-rule="nonzero"/>
    <rect width="13.52" height="2.81" x="343.93" y="104.07" fill="#502DA8" fill-rule="nonzero" rx="1.23"/>
    <rect width="28.55" height="10.49" x="336.176" y="66.078" fill="#9C98A7" fill-rule="nonzero" rx="4.58" transform="rotate(-45 350.45 71.323)"/>
    <path fill="#E55635" fill-rule="nonzero" d="M347,67.41 L340.53,73.88 C338.455387,75.9082017 338.371178,79.2189532 340.34,81.35 C341.31768,82.3640018 342.661816,82.9426035 344.07032,82.9557671 C345.478824,82.9689307 346.833539,82.4155519 347.83,81.42 L354.43,74.82 L353.93,74.58 C350.835067,73.098171 348.375642,70.5535705 347,67.41 Z"/>
    <path stroke="#000" stroke-linecap="round" d="M354.38,69.61 L355.38,69.61"/>
    <path stroke="#000" stroke-dasharray="1.87" stroke-linecap="round" d="M357.24,69.61 L378.73,69.61"/>
    <path stroke="#000" stroke-linecap="round" d="M379.66,69.61 L380.66,69.61 M321.48,100.63 L322.48,100.63"/>
    <path stroke="#000" stroke-dasharray="2.09" stroke-linecap="round" d="M324.58,100.63 L348.64,100.63"/>
    <path stroke="#000" stroke-linecap="round" d="M349.69,100.63 L350.69,100.63"/>
    <circle cx="380.66" cy="69.61" r="5.58" fill="#777" fill-rule="nonzero" opacity=".33"/>
    <circle cx="321.48" cy="100.63" r="5.58" fill="#777" fill-rule="nonzero" opacity=".33"/>
    <path stroke="#2D1F54" d="M539.29,279.88 L540.38,257.8 C540.781678,249.61734 540.748298,241.419117 540.28,233.24 L540.14,230.85" opacity=".7"/>
    <path stroke="#874C25" d="M453.07,115.000002 L453.65,115 C457.582956,115.001446 461.471619,114.169865 465.06,112.56"/>
    <path fill="#116D6D" fill-rule="nonzero" d="M98.43,397.72 C97.7114263,395.344352 95.521945,393.719505 93.04,393.72 L88.26,393.72 C82.7368904,393.705302 77.2502464,392.824605 72,391.11 L69.42,390.28 C69.2998764,390.249492 69.1749184,390.308014 69.1214451,390.419822 C69.0679718,390.531629 69.1008503,390.665638 69.2,390.74 C72.380985,392.768788 75.7498502,394.486708 79.26,395.87 C83.54,397.67 84.47,403.01 85.36,407.04 C89.57,426.19 91.2,446.15 92.13,465.71 C92.7727306,479.202404 96.7699956,492.321544 103.76,503.88 L107.05,509.32 L108.2,430.47 L98.43,397.72 Z" opacity=".5"/>
    <path fill="#2D1F54" fill-rule="nonzero" d="M440.6,314.81 C452.26,310.67 457.03,299.54 458.73,288.1 C462.25,264.31 456.8,240.1 463.32,216.75 C463.747705,215.216259 463.652712,213.583782 463.05,212.11 L459.67,218.89 C459.67,218.89 455.47,229.53 452.67,234.54 L434.1,268.13 L433.71,302.93 C433.663,307.517 433.44,312.103 433.04,316.69 C435.614112,316.30548 438.145609,315.675954 440.6,314.81 Z" opacity=".3"/>
    <path fill="#2D1F54" fill-rule="nonzero" d="M537.36,125 L560.49,142.82 C567.243743,134.258739 572.024165,124.312048 574.49,113.69 L574.76,112.56 L553.24,105 L537.36,125 Z"/>
    <path fill="#FFEF9C" fill-rule="nonzero" d="M550.36,100.38 L550.15,101.06 C547.353157,109.778127 542.249481,117.577042 535.38,123.63 L544.38,129.63 C549.388279,132.970636 554.565122,136.051375 559.89,138.86 L560.89,139.39 L562.77,137.24 C569.122933,129.964605 574.003194,121.525183 577.14,112.39 L560.14,105.16 C557.561682,104.06826 555.032577,102.863766 552.56,101.55 L550.36,100.38 Z"/>
    <path fill="#77D4DA" fill-rule="nonzero" d="M154,592 C151.62,606.8 149.87,621.78 146.91,636.48 C145.68,642.62 143.91,648.86 139.05,653.15 C136.34,655.56 133.44,657.42 130.79,659.61 L131.24,659.71 C136.465005,660.863735 141.917625,660.396267 146.87,658.37 C147.49074,658.118244 147.929409,657.553696 148.02,656.89 L167.14,530.4 C161.25,550.54 157.38,571.26 154,592 Z"/>
    <path stroke="#116D6D" stroke-linecap="round" d="M50.13,211.44 L51.87,201.11"/>
    <path stroke="#BF9997" stroke-linecap="round" d="M139.3,125.26 C137.37167,124.771614 135.530076,123.989105 133.84,122.94 L132.26,121.94"/>
    <path fill="#22ABB2" fill-rule="nonzero" d="M140.69,147.45 C139.58,147.37 138.47,147.31 137.36,147.28 C129.690281,147.212308 122.038764,148.037867 114.56,149.74 C110.29,150.64 105.95,151.74 101.56,151.63 C99.4676252,151.613463 97.3901549,151.276211 95.4,150.63 C93.8118658,150.097493 92.3725365,149.196199 91.2,148 C89.24,144.553 89.65,142.62 92.43,142.2 C92.7101425,142.184648 92.9849077,142.116805 93.24,142 C90.7556092,142.186992 88.2823884,142.500734 85.83,142.94 C85.1502621,145.630975 85.7968236,148.484763 87.57,150.62 C93.63,158.04 105.05,156.39 113.23,154.62 C125.23,152.08 137.23,150.62 149.42,153.22 C153.77,154.22 158.1,155.27 162.42,156.44 C155.511951,152.689637 148.228538,149.676388 140.69,147.45 Z" opacity=".7" style="mix-blend-mode:multiply"/>
    <path fill="#726C82" fill-rule="nonzero" d="M158.18,147 C155.07,144.14 150.18,142.33 144.18,141.77 C142.657295,141.633581 141.128714,141.573506 139.6,141.59 C136.241484,141.585484 132.891116,141.920521 129.6,142.59 C127.9,142.96 126.22,143.38 124.6,143.83 C122.98,144.28 121.14,144.83 119.46,145.26 C111.09,147.66 103.19,149.92 94.72,148.69 C93.548115,148.538592 92.393042,148.277445 91.27,147.91 C90.1126076,147.564373 89.0444753,146.970587 88.14,146.17 C87.1754513,145.27806 86.6006961,144.042336 86.54,142.73 C86.5250023,142.182845 86.6635705,141.64243 86.94,141.17 C88.15,139.26 90.2,139.3 93.06,140.17 C93.32,138.85 93.55,137.54 93.75,136.17 C90.1,135.17 86.07,135.03 83.56,139 C82.7106608,140.344319 82.3570009,141.942862 82.56,143.52 C82.8267959,145.653625 83.8356884,147.625391 85.41,149.09 C86.8112774,150.319521 88.462574,151.230464 90.25,151.76 C91.5175793,152.152514 92.8152837,152.44015 94.13,152.62 C103.44,153.97 112.13,151.48 120.54,149.08 C123.79,148.15 127.14,147.19 130.47,146.47 C131.937184,146.166368 133.419194,145.939393 134.91,145.79 C136.3,145.65 137.78,145.55 139.28,145.53 C145.28,145.44 151.82,146.53 155.51,149.88 C156.76608,151.016461 157.665729,152.492719 158.1,154.13 C159.56,154.843 161.007,155.587 162.44,156.36 C162.366876,152.787092 160.826156,149.401848 158.18,147 Z"/>
  </g>
</svg>
