<svg xmlns="http://www.w3.org/2000/svg" width="670" height="800" viewBox="0 0 670 800">
  <g fill="none" fill-rule="evenodd">
    <path fill="#F5F5F6" fill-rule="nonzero" d="M70.5429838,653.664976 C50.4429838,655.744724 31.9462334,660.597469 18.0217134,670.431705 C-7.73914328,688.584933 -2.9689808,722.16791 21.495421,738.597919 C35.1329394,747.788424 51.7394387,751.274478 68.0094535,753.829596 C133.188479,764.109493 199.42644,762.336756 264.951846,756.097512 C299.589956,752.799626 334.544756,747.184307 369.370901,750.492096 C405.760709,753.889018 434.619202,770.972661 468.000443,783.629413 C520.600982,803.402068 578.253324,805.2437 632.006942,788.868397 C656.13486,781.440726 684.300591,759.34588 661.003988,733.408453 C653.027326,724.495247 641.537371,719.662309 630.096898,716.265388 C538.375185,688.981076 443.070901,675.967796 348.053619,666.906037 C257.084047,658.230518 161.829247,644.226882 70.5429838,653.664976 Z"/>
    <path fill="#2D1F54" fill-rule="nonzero" d="M216.062629 699.44914L231.085672 707.98601C231.767176 708.373533 232.371139 708.883905 232.867061 709.491352L232.867061 709.491352C234.074204 710.971979 234.540597 712.922725 234.133826 714.789757L233.896307 715.928667C233.621073 717.235888 232.438978 718.150349 231.105465 718.087643L231.105465 718.087643C219.574042 717.565158 208.153477 715.598841 197.110635 712.234638L174.348449 705.302145C172.311338 704.687029 170.953088 702.76455 171.05288 700.637568L171.419055 692.556262C171.497391 690.74729 172.616923 689.147937 174.289069 688.456187L174.289069 688.456187C177.214515 687.247594 180.480178 687.148992 183.473117 688.178887L216.062629 699.44914zM100.648449 684.900809L121.342245 724.960715C122.253851 726.729671 122.687152 728.706501 122.599114 730.694877L122.599114 731.150441C122.456622 733.875303 120.454502 736.141588 117.769572 736.617207L115.96839 736.953928C112.326288 737.635347 108.566767 736.727238 105.636337 734.45823L105.636337 734.45823C101.90227 731.562639 98.5736593 728.178393 95.7397341 724.396212L81.0927622 704.92581C79.9824374 703.441383 79.5510589 701.556373 79.9051699 699.736344L81.94387 689.456447C82.1564976 688.374051 82.7455764 687.402089 83.6064993 686.71316L86.6942393 684.247174 100.648449 684.900809z"/>
    <path fill="#EACDC8" fill-rule="nonzero" d="M192.607681,661.201586 L191.618021,683.890645 L216.092319,699.44914 L212.569129,703.469986 C212.322497,703.749367 211.9331,703.854578 211.579468,703.737382 L173.596307,691.001402 L172.883752,660.993611 C172.82078,658.252139 173.896511,655.60725 175.854697,653.688981 C177.812883,651.770712 180.478221,650.750791 183.215805,650.872171 L183.215805,650.872171 C188.652427,651.144646 192.848563,655.759658 192.607681,661.201586 L192.607681,661.201586 Z"/>
    <path fill="#DDB9B6" fill-rule="nonzero" d="M186.897341,672.293575 C189.430871,677.611787 185.323781,683.484599 190.539291,687.832263 C197.734121,693.833821 208.491728,693.457486 213.885377,701.934934 L216.062629,699.44914 L191.588331,683.890645 L192.577991,661.201586 C192.615116,657.663384 190.763139,654.374131 187.719682,652.572856 C184.676225,650.771581 180.903662,650.731942 177.823079,652.468869 C174.742497,654.205796 172.821911,657.455409 172.784786,660.993611 L172.784786,661.726475 C177.396603,665.212528 184.314328,666.896134 186.897341,672.293575 Z" style="mix-blend-mode:multiply"/>
    <path fill="#EACDC8" fill-rule="nonzero" d="M104.191433,670.263345 L101.539143,691.060824 L111.83161,711.541389 C111.96576,711.813675 111.958811,712.134315 111.812991,712.400525 C111.667171,712.666735 111.400799,712.845073 111.099261,712.87837 L101.044313,714.007376 C100.703427,714.031578 100.374184,713.878073 100.173412,713.60133 L84.3388479,690.011046 L84.0221566,664.865904 C83.9675572,660.58888 86.8205691,656.820256 90.9497784,655.715013 L90.9497784,655.715013 C94.0576015,654.890551 97.3706676,655.725013 99.7181684,657.923507 L99.7181684,657.923507 C103.103591,661.078851 104.767836,665.669795 104.191433,670.263345 L104.191433,670.263345 Z"/>
    <path fill="#DDB9B6" fill-rule="nonzero" d="M111.83161,711.541389 L101.539143,691.060824 L104.191433,670.263345 C104.782738,665.663219 103.125231,661.059481 99.7379616,657.893796 C97.0053293,655.341971 93.0158287,654.665571 89.5957284,656.174232 C86.1756281,657.682893 83.9832344,661.086225 84.0221566,664.826289 L84.0221566,667.222951 C84.6542931,667.191098 85.2744405,667.40387 85.754062,667.817165 C91.2763663,672.372803 96.0960118,675.403293 98.1149188,682.672507 C99.3420975,687.109303 99.4014771,691.397545 101.54904,695.547137 C103.15229,698.676663 105.141507,701.578406 106.497341,704.856485 C107.546381,707.471025 108.110487,710.669876 107.22969,713.244801 L111.128951,712.809045 C111.406212,712.760857 111.646773,712.589664 111.783275,712.343402 C111.919778,712.097141 111.937548,711.802282 111.83161,711.541389 L111.83161,711.541389 Z" style="mix-blend-mode:multiply"/>
    <path fill="#B9CDFC" fill-rule="nonzero" d="M151.338848,388.091071 L154.644313,386.278719 L159.711374,508.548089 L165.748301,660.924286 C165.761798,661.644912 166.189704,662.29301 166.846824,662.588085 L166.846824,662.588085 C174.037584,665.804984 182.008526,666.857971 189.787149,665.618574 L196.625702,664.71735 C197.465396,664.577913 198.10677,663.891404 198.189365,663.043648 L208.679764,504.735218 C208.798523,503.388334 208.867799,502.04145 208.867799,500.684662 L209.18449,388.30895 C209.242207,365.546753 206.246479,342.879791 200.277548,320.915214 L200.277548,320.915214 L139.067061,328.372596 L101.331315,320.835985 L96.2840473,333.255051 C89.4861326,349.998674 86.4455404,368.031922 87.3771049,386.080648 L93.028065,497.743304 C93.3414744,503.899421 93.2489053,510.069519 92.7509601,516.213446 L80.5187592,666.74758 C80.4518395,667.591321 80.9590543,668.375011 81.7558346,668.658968 L82.3100443,668.857039 C90.4440776,671.729508 99.2822697,671.927284 107.536484,669.421542 L108.258936,669.203664 C108.902999,669.005367 109.390689,668.475719 109.535598,667.817165 L143.886706,510.766487 C144.408825,508.340115 144.739729,505.876458 144.876366,503.398237 L151.338848,388.091071 Z"/>
    <path fill="#2D1F54" fill-rule="nonzero" d="M179.464993,95.094205 C183.423634,105.265163 191.340916,114.247693 191.76647,125.151514 C192.043575,132.222657 188.965731,139.15515 184.294535,144.453555 C179.623338,149.751961 173.408272,153.545025 166.965583,156.387347 C161.126588,158.952369 154.871935,160.814239 148.498523,160.834046 C139.918168,160.834046 131.605022,157.555967 124.360709,152.911197 C117.116396,148.266427 110.762777,142.46294 104.310192,136.798102 C100.252585,133.242724 96.0465288,129.637827 93.4239291,124.913829 C91.1180207,120.754333 90.18774,116.000623 89.6830133,111.246914 C89.0384636,106.073672 89.1685505,100.833159 90.0689808,95.6983223 C91.1952003,90.4888103 93.1038207,85.4801672 95.7298375,80.8429801 C99.7478582,73.4054054 104.933678,66.4828159 111.653471,61.3626747 C119.946824,55.0442024 130.199705,51.7760271 140.472378,50.0131932 C145.91551,49.0822584 151.516987,48.5474661 156.950222,49.5774365 C163.096012,50.7460568 177.634121,55.8562945 178.8613,63.2344478 C179.613442,67.7603754 176.802806,73.3261769 176.634564,78.0105615 C176.40617,83.8385419 177.369317,89.6518195 179.464993,95.094205 L179.464993,95.094205 Z"/>
    <path fill="#EACDC8" fill-rule="nonzero" d="M303.212112,106.334747 L306.477991,103.680593 C311.710757,99.4513147 316.298389,94.4801093 320.095716,88.9242862 L320.095716,88.9242862 C322.054211,86.0592347 323.36463,82.8011623 323.935598,79.377253 L323.935598,79.377253 L324.440325,76.3566667 C324.659697,75.0465418 324.676386,73.710445 324.489808,72.3952421 L324.489808,72.3952421 C324.304373,71.0657104 323.864165,69.7845113 323.193353,68.6219852 L321.976071,66.5125266 L322.075037,65.9183129 C322.331214,64.3705857 321.285857,62.9078293 319.739439,62.6501376 L319.739439,62.6501376 C318.805725,62.49204 317.854864,62.8116944 317.205908,63.5018439 L302.361004,79.1989889 L303.182422,71.563343 C303.284683,70.5929227 302.916817,69.6321152 302.192762,68.9785134 L302.192762,68.9785134 C301.953956,68.7602665 301.623654,68.6725526 301.308133,68.7435947 C300.992613,68.8146367 300.731685,69.035471 300.609306,69.3350416 L296.89808,78.0303686 L288.367208,95.5101546 L275.986558,119.367834 L290.089217,125.755631 L303.212112,106.334747 Z"/>
    <path fill="#DDB9B6" fill-rule="nonzero" d="M302.974594,106.00793 L303.212112,106.324844 L306.477991,103.680593 C311.710757,99.4513147 316.298389,94.4801093 320.095716,88.9242862 C321.981306,86.1585231 323.265861,83.0275382 323.866322,79.7337812 C321.035894,75.0196859 318.096603,70.3683132 315.048449,65.7796631 L302.400591,79.1989889 L303.222009,71.563343 C303.32427,70.5929227 302.956403,69.6321152 302.232349,68.9785134 C301.993543,68.7602665 301.66324,68.6725526 301.34772,68.7435947 C301.032199,68.8146367 300.771271,69.035471 300.648892,69.3350416 L297.284047,77.0400125 C297.402806,82.8038852 297.284047,88.6073723 298.046086,94.3019201 C298.88991,98.4945436 300.565824,102.475112 302.974594,106.00793 Z" style="mix-blend-mode:multiply"/>
    <path fill="#2D1F54" fill-rule="nonzero" d="M187.817725,25.1453503 C183.146529,15.6082206 174.239586,8.88370241 164.580502,4.92227782 C156.780087,1.72993556 148.413905,0.153224723 139.987445,0.28741105 C139.18582,0.28741105 138.384195,0.28741105 137.592467,0.366639542 C125.162334,1.03017816 111.316987,8.66582406 103.666913,18.4208321 C99.1029001,24.2255065 96.1194733,31.1143913 95.0073855,38.4161227 C92.8400295,52.5386014 93.2655835,67.4137507 90.5044313,81.6253614 C89.2345189,88.7650792 86.8004973,95.6473633 83.2997046,101.996987 C79.3410635,108.978998 73.8682422,115.030074 69.8700148,122.031892 C63.4669129,133.222917 59.725997,146.127257 63.8726736,158.784009 C65.6065279,163.846617 68.2941212,168.529679 71.7899557,172.57967 L93.9385524,177.600776 L154.782866,105.671209 L177.297637,70.5828904 L184.690399,60.5802933 C192.157061,50.2398289 193.357731,36.6353388 187.817725,25.1453503 Z"/>
    <path fill="#E8C6C1" fill-rule="nonzero" d="M427.691581,51.8453521 L427.275923,72.7418668 C427.258395,73.5805583 427.145506,74.4145263 426.939439,75.2276607 L420.724372,99.679554 C420.560354,100.419959 420.833202,101.189086 421.427031,101.660266 L423.742836,103.39339 C425.920352,105.033168 428.369137,106.276859 430.977253,107.067611 L430.977253,107.067611 L432.481536,124.517686 C432.80371,128.746277 435.353212,132.482641 439.17164,134.322212 L439.567504,134.51038 C442.865873,136.095304 446.478155,136.917777 450.137075,136.916945 L466.49616,136.916945 L467.941064,171.57941 L526.429985,164.191353 L507.62644,117.644615 L510.516248,66.5521409 L492.207533,35.9501359 L465.486706,32.3254324 L435.381241,39.5253216 L427.691581,51.8453521 Z"/>
    <path fill="#DDB9B6" fill-rule="nonzero" d="M508.586411,101.026438 C506.801804,100.449768 504.947615,100.116645 503.074003,100.036082 C494.572821,99.7092647 483.468833,102.848694 479.440916,110.93 C479.520554,111.065183 479.586845,111.207807 479.638848,111.355853 C481.746824,117.149436 483.844904,123.08167 487.328508,128.191907 C489.307829,131.054037 491.821566,133.757709 495.24579,134.767872 C497.8387,135.54035 500.580059,135.381893 503.034417,136.649549 C506.686263,138.531226 509.2,142.215351 511.941359,145.156708 C513.406056,146.711567 515.167651,148.811122 517.255835,149.494468 C518.311725,149.86384 519.470355,149.803378 520.482127,149.326108 L507.695716,117.644615 L508.586411,101.026438 Z" opacity=".7" style="mix-blend-mode:multiply"/>
    <path fill="#B9CDFC" fill-rule="nonzero" d="M154.288035,347.159652 C159.820236,347.159652 165.352437,346.674377 170.884638,346.555534 C175.328213,346.466402 179.979616,346.694184 184.314328,345.565178 C191.469572,343.653791 197.932053,336.463805 202.533973,329.877937 C201.841211,326.906868 201.089069,323.9358 200.287445,320.964732 L139.076957,328.422113 L101.341211,320.885503 L98.5800591,327.600118 C114.493796,338.909985 134.672969,347.199266 154.288035,347.159652 Z"/>
    <path fill="#BF9997" fill-rule="nonzero" d="M433.738405,113.901068 L441.061891,110.523954 C441.655687,110.256558 442.219793,111.048843 442.051551,111.95997 C441.739847,113.830679 441.107026,115.633308 440.181093,117.288086 C438.825258,119.793687 436.648006,119.734266 435.114032,118.526031 C434.09233,117.58599 433.451334,116.303096 433.312851,114.921135 L433.312851,114.921135 C433.234242,114.526154 433.402484,114.122872 433.738405,113.901068 Z"/>
    <path fill="#929292" fill-rule="nonzero" d="M490.257903 742.559343L490.257903 742.559343C492.535958 743.880626 494.016856 746.240614 494.216544 748.867912L494.869719 757.157193C495.083866 759.892515 493.625629 762.486324 491.178287 763.723254L488.209306 765.228596C483.440207 767.624937 477.834998 767.694321 473.008124 765.416763L473.008124 765.416763C459.931413 759.236941 447.174692 752.4497 434.737962 745.055041L432.323191 743.619025C430.770263 742.700561 429.916804 740.941747 430.155835 739.152518L430.235007 738.588015C430.43093 737.075093 431.442498 735.792618 432.867504 735.250515L434.51034 734.616687C438.307583 733.158202 442.429049 732.757745 446.435746 733.45797L482.380207 739.746732C485.147827 740.225365 487.812567 741.17677 490.257903 742.559343L490.257903 742.559343zM564.294387 729.962013L564.294387 729.962013C566.572443 731.283296 568.053341 733.643284 568.253028 736.270582L568.906204 744.559863C569.123103 747.295792 567.664061 749.891033 565.214771 751.125924L562.24579 752.631265C557.476691 755.027607 551.871482 755.096991 547.044609 752.819433L547.044609 752.819433C534.007484 746.639611 521.257361 739.85237 508.794239 732.457711L506.379468 731.021694C504.82654 730.103231 503.973082 728.344416 504.212112 726.555188L504.291285 725.990685C504.493153 724.477167 505.507484 723.196006 506.933678 722.653185L508.576514 722.019357C512.358178 720.567941 516.461832 720.167553 520.452437 720.86064L556.406795 727.149402C559.178079 727.62598 561.846415 728.577473 564.294387 729.962013L564.294387 729.962013z"/>
    <path fill="#868E9B" fill-rule="nonzero" d="M490.257903,742.559343 L490.257903,742.559343 C492.535958,743.880626 494.016856,746.240614 494.216544,748.867912 L494.869719,757.157193 C495.083866,759.892515 493.625629,762.486324 491.178287,763.723254 L488.209306,765.228596 C483.440207,767.624937 477.834998,767.694321 473.008124,765.416763 L473.008124,765.416763 C459.931413,759.236941 447.174692,752.4497 434.737962,745.055041 L432.323191,743.619025 C430.770263,742.700561 429.916804,740.941747 430.155835,739.152518 L430.235007,738.588015 C430.43093,737.075093 431.442498,735.792618 432.867504,735.250515 L434.51034,734.616687 C438.307583,733.158202 442.429049,732.757745 446.435746,733.45797 L482.380207,739.746732 C485.147827,740.225365 487.812567,741.17677 490.257903,742.559343 L490.257903,742.559343 Z" opacity=".7" style="mix-blend-mode:multiply"/>
    <path fill="#616469" fill-rule="nonzero" d="M564.294387,729.962013 L564.294387,729.962013 C566.572443,731.283296 568.053341,733.643284 568.253028,736.270582 L568.906204,744.559863 C569.123103,747.295792 567.664061,749.891033 565.214771,751.125924 L562.24579,752.631265 C557.476691,755.027607 551.871482,755.096991 547.044609,752.819433 L547.044609,752.819433 C534.007484,746.639611 521.257361,739.85237 508.794239,732.457711 L506.379468,731.021694 C504.82654,730.103231 503.973082,728.344416 504.212112,726.555188 L504.291285,725.990685 C504.493153,724.477167 505.507484,723.196006 506.933678,722.653185 L508.576514,722.019357 C512.358178,720.567941 516.461832,720.167553 520.452437,720.86064 L556.406795,727.149402 C559.178079,727.62598 561.846415,728.577473 564.294387,729.962013 L564.294387,729.962013 Z" opacity=".7" style="mix-blend-mode:multiply"/>
    <path fill="#E8C6C1" fill-rule="nonzero" d="M564.769424,712.303963 L565.204874,731.506969 C565.219442,732.849683 564.368448,734.049109 563.096898,734.478037 L556.505761,736.666724 C555.493172,737.010331 554.408867,737.085399 553.358641,736.884603 L552.072083,736.646917 C546.699809,735.640882 541.471485,733.977818 536.504727,731.695137 L530.269867,728.724068 C529.944627,728.552842 529.740984,728.215364 529.740984,727.847603 C529.740984,727.479842 529.944627,727.142364 530.269867,726.971138 L532.892467,725.842132 C533.049523,725.779855 533.219189,725.756085 533.387297,725.772807 L545.827326,727.288052 L537.425111,691.229184 L563.156278,689.862493 L563.601625,694.22006 C564.248203,700.221618 564.637469,706.249586 564.769424,712.303963 Z"/>
    <path fill="#DDB9B6" fill-rule="nonzero" d="M564.769424,712.303963 C564.637469,706.256188 564.261398,700.218317 563.641211,694.190349 L563.195864,689.832782 L537.464697,691.199474 L541.037371,706.520283 C544.071071,708.188892 547.231236,709.616105 550.488626,710.788718 C552.923191,711.689942 555.872378,712.383192 557.416248,714.670914 C559.078877,717.156708 559.049188,720.99929 559.464845,723.851516 C559.910192,726.911716 560.543575,730.467095 558.702806,733.220285 C557.235744,735.238533 554.971179,736.526778 552.48774,736.755856 L553.368538,736.914313 C554.418763,737.115109 555.503068,737.040042 556.515657,736.696435 L563.106795,734.507748 C564.378345,734.07882 565.229339,732.879394 565.214771,731.53668 L564.769424,712.303963 Z" style="mix-blend-mode:multiply"/>
    <path fill="#E8C6C1" fill-rule="nonzero" d="M489.822452,724.356597 L490.248006,743.559603 C490.268885,744.904286 489.415517,746.107056 488.14003,746.530672 L481.548892,748.729262 C480.535342,749.068048 479.452286,749.143029 478.401773,748.947141 L477.115214,748.709455 C471.742941,747.70342 466.514617,746.040356 461.547858,743.757674 L455.322895,740.786606 C454.997655,740.61538 454.794012,740.277902 454.794012,739.910141 C454.794012,739.54238 454.997655,739.204902 455.322895,739.033676 L457.935598,737.90467 C458.091901,737.839589 458.262275,737.815719 458.430428,737.835345 L470.870458,739.35059 L462.468242,703.291722 L488.199409,701.925031 L488.644756,706.282598 C489.291334,712.284156 489.6839,718.308823 489.822452,724.356597 Z"/>
    <path fill="#DDB9B6" fill-rule="nonzero" d="M489.822452,724.356597 C489.6839,718.315425 489.30453,712.280855 488.684343,706.252887 L488.238996,701.89532 L462.507829,703.262012 L467.258198,723.653445 C470.515093,725.817562 473.995732,727.623852 477.639734,729.040982 C479.915953,729.882785 482.766174,730.239313 484.676219,731.873401 C487.942097,734.676109 487.189956,741.38082 485.834121,744.965909 C485.435961,746.002505 484.896431,746.979006 484.230871,747.867652 L488.189513,746.560382 C489.465,746.136767 490.318368,744.933996 490.297489,743.589314 L489.822452,724.356597 Z" style="mix-blend-mode:multiply"/>
    <path fill="#2C2B2D" fill-rule="nonzero" d="M512.267947,468.468376 L490.129247,564.532922 C489.766602,566.100673 489.600381,567.707499 489.634417,569.316343 L493.157607,721.692539 C493.178322,722.720465 492.462089,723.616387 491.455391,723.821805 L481.964549,725.723289 C476.075988,726.922361 469.962092,726.297069 464.437666,723.930744 L464.437666,723.930744 C463.741397,723.633659 463.255259,722.988791 463.161004,722.237235 L441.536928,560.333812 C441.049943,556.423127 441.000152,552.470301 441.388479,548.548574 L458.638257,375.038177 L490.64387,385.228942 C515.683071,391.30277 541.612457,392.802458 567.184195,389.655834 L573.122157,388.92297 L569.054653,462.407397 L559.15805,564.602247 C559.073958,565.620579 559.073958,566.644117 559.15805,567.662448 L567.609749,704.331596 C567.70052,705.419308 566.958396,706.400966 565.88774,706.609415 L558.405908,708.005817 C552.872163,709.038581 547.158766,708.468214 541.937962,706.361826 L539.345052,705.312049 C538.672248,705.04355 538.183229,704.449591 538.048597,703.737382 L513.30709,569.544125 C512.554086,565.460918 512.179723,561.316818 512.188774,557.164673 L512.267947,468.468376 Z"/>
    <path fill="#000" fill-rule="nonzero" d="M512.267947 468.468376L519.858641 435.548938C521.118586 430.058829 525.307135 425.714918 530.744904 424.258878L550.241211 419.099122 550.241211 419.099122C550.23697 420.54438 549.332076 421.833476 547.974889 422.327683L540.235746 425.090777C538.417167 425.747221 537.166549 427.427579 537.058936 429.359212L535.544756 455.831432C531.852872 486.753978 524.01349 517.037605 512.238257 545.864709L512.238257 545.864709 512.267947 468.468376zM445.742984 583.181329C449.909453 607.009298 456.431315 630.906591 459.301329 655.269353 461.28065 671.729072 463.457903 688.168984 465.506499 704.608896 466.711988 713.627704 472.071019 721.560101 479.985229 726.040203 479.529985 726.099624 479.074742 726.129335 478.619498 726.168949L477.877253 726.238274 476.640177 726.238274 475.75938 726.238274 474.601477 726.238274 473.611817 726.168949 472.533087 726.06001C472.176809 726.06001 471.830428 725.970878 471.484047 725.911457L470.494387 725.743096 469.356278 725.495507 468.455687 725.277629C468.020236 725.158786 467.594682 725.020136 467.159232 724.881486L466.446677 724.663608C465.773708 724.425922 465.110635 724.178333 464.467356 723.901034 463.771087 723.603949 463.284949 722.95908 463.190694 722.207525L442.467208 567.206884C443.536041 572.525097 444.812703 577.833405 445.742984 583.181329z"/>
    <path fill="#EE9F0F" fill-rule="nonzero" d="M487.407681,125.339682 C490.158936,127.043094 493.1774,127.102516 496.314623,126.884637 C499.986263,126.637048 507.933235,128.162197 509.061448,123.289645 C509.269414,121.996254 509.309331,120.681377 509.180207,119.377738 C508.764549,108.20652 516.107829,98.5802587 520.50192,88.8153471 C525.113737,78.5354502 527.676957,67.8197967 525.2226,56.6089651 C520.076366,33.1078138 497.294387,23.6598161 476.363072,18.3911214 C468.109306,16.3212771 459.538848,11.6864103 450.958493,11.6071818 C446.663368,11.6071818 437.499114,13.9345188 437.59808,22.1742819 C437.59808,21.4018041 428.691137,23.2834808 427.879616,23.4914556 C421.57548,25.0760254 415.746381,28.31449 414.32127,35.1479474 C412.945643,41.7833336 415.508863,49.2209083 421.644756,52.5782156 C433.194092,58.8966878 455.65938,61.1447963 455.65938,61.1447963 C456.787592,71.3058504 454.788479,82.2690929 460.835303,91.2219125 C463.972526,95.8666828 468.53486,99.1447617 471.929394,103.472618 C476.175037,108.949288 478.609601,115.733227 482.993796,121.239607 C484.217822,122.850776 485.711132,124.237917 487.407681,125.339682 L487.407681,125.339682 Z"/>
    <path fill="#392992" fill-rule="nonzero" d="M527.637371,160.051665 L523.213589,150.99981 C522.839619,150.22312 521.992348,149.793101 521.145199,149.950032 L466.842541,159.764461 C465.926383,159.927664 465.259072,160.724827 465.259084,161.656042 L465.259084,168.96487 L527.637371,160.051665 Z"/>
    <path fill="#DDB9B6" fill-rule="nonzero" d="M576.120827,219.215541 L579.891433,243.677338 C580.374409,246.769774 580.467506,249.910654 580.168538,253.0263 L580.168538,253.0263 C579.139938,263.86576 570.427735,272.370425 559.573708,273.13053 L538.553323,274.616064 L531.160561,234.724518 L576.120827,219.215541 Z" opacity=".7" style="mix-blend-mode:multiply"/>
    <path fill="#DDB9B6" fill-rule="nonzero" d="M576.120827,219.215541 L579.891433,243.677338 C580.374409,246.769774 580.467506,249.910654 580.168538,253.0263 L580.168538,253.0263 C579.139938,263.86576 570.427735,272.370425 559.573708,273.13053 L538.553323,274.616064 L531.160561,234.724518 L576.120827,219.215541 Z" opacity=".7" style="mix-blend-mode:multiply"/>
    <path fill="#1D1E1B" fill-rule="nonzero" d="M436.044313,69.3449452 C437.251084,68.8419132 438.575459,68.690842 439.864402,68.9091885 C441.167274,69.114454 442.413829,69.586455 443.526145,70.2956871 C444.626438,71.0096893 445.580394,71.9273409 446.33678,72.9993594 C446.708397,73.5245527 447.039252,74.0774694 447.32644,74.6532542 C447.568524,75.2444103 447.763759,75.8537084 447.91034,76.4755095 C447.395716,76.079367 446.980059,75.6337067 446.534712,75.2177572 C446.089365,74.8018076 445.663811,74.3957616 445.208567,74.0293298 C444.348003,73.2843208 443.442399,72.5930639 442.496898,71.9594854 C440.515673,70.7164866 438.331605,69.8315183 436.044313,69.3449452 Z"/>
    <path fill="#5B42EA" fill-rule="nonzero" d="M583.652142,229.13891 L565.679911,185.563239 C560.892456,174.002244 551.7113,164.818195 540.156573,160.031858 L540.156573,160.031858 C534.434482,157.656445 528.300086,156.434761 522.10517,156.436865 L522.10517,156.436865 C517.445906,156.435045 512.800235,156.939787 508.249926,157.942206 L469.791728,166.419655 C466.897613,167.241545 464.166038,168.554695 461.7161,170.301851 C455.992101,174.140634 451.040276,179.022031 447.118612,184.691726 L444.357459,188.65315 C444.243224,190.06456 444.259789,191.483521 444.406942,192.891875 L454.184786,297.889433 L454.184786,297.889433 C455.302594,313.435906 454.868294,329.055184 452.888331,344.515401 L449.36514,372.166144 L458.331462,378.108281 C466.10626,383.263592 474.685425,387.085929 483.716248,389.418148 L483.716248,389.418148 C488.901119,390.765218 494.203963,391.607637 499.550812,391.933653 L499.778434,391.933653 C525.370036,393.508013 551.050101,392.845264 576.526588,389.952941 L576.526588,389.952941 L576.526588,314.042142 L573.399261,266.812057 L570.271935,237.408383 L583.236484,230.357048 C583.655787,230.108746 583.832118,229.591986 583.652142,229.13891 L583.652142,229.13891 Z"/>
    <path fill="#777" fill-rule="nonzero" d="M452.601329,346.803123 C459.133087,345.476046 465.35805,343.089288 470.336041,338.434614 C488.149926,321.786727 484.191285,291.887875 479.450812,270.823 C476.105761,255.868622 471.117873,236.160535 479.74771,222.146995 C481.251994,219.710719 484.517873,216.492062 483.468833,213.421958 C482.558346,210.747996 478.698671,209.510051 476.2839,210.807417 L447.534269,226.24707 L454.184786,297.889433 C455.302594,313.435906 454.868294,329.055184 452.888331,344.515401 L452.601329,346.803123 Z" opacity=".7" style="mix-blend-mode:multiply"/>
    <path fill="#E8C6C1" fill-rule="nonzero" d="M421.387445,173.728483 L410.006352,173.094655 C396.151108,172.322177 382.295864,171.935939 368.44062,171.935939 L368.44062,171.935939 L336.118316,105.086899 L329.34904,82.3087072 L326.587888,71.0978756 C326.492432,70.7168142 326.220555,70.4044532 325.856465,70.2575392 C325.492374,70.1106251 325.08002,70.1468926 324.74712,70.3551085 L324.74712,70.3551085 C323.730665,70.9810357 323.083994,72.0645091 323.015214,73.256852 L322.461004,82.6256211 L307.784343,60.7486538 C307.140734,59.7815139 306.055686,59.2014231 304.894535,59.2036983 L304.894535,59.2036983 C302.976059,59.2036983 301.420827,60.7600237 301.420827,62.6798483 L301.420827,63.4127119 L299.540473,65.7103381 C298.494508,66.9714791 297.704512,68.4247479 297.214771,69.9886767 L297.214771,69.9886767 C296.726779,71.5397491 296.476522,73.1558759 296.472526,74.7820005 L296.472526,78.5156431 L296.472526,78.5156431 C296.475748,82.7574676 297.401031,86.9478211 299.184195,90.7960594 L299.184195,90.7960594 C302.636382,98.252121 307.160936,105.162172 312.613885,111.306335 L316.018316,115.158821 L333.446233,180.037052 C334.858786,185.301003 336.56365,190.48201 338.55288,195.555933 L338.55288,195.555933 C339.849639,198.84642 341.880657,201.796855 344.490842,204.181935 L344.490842,204.181935 C347.241904,206.688758 350.559869,208.489943 354.159823,209.430822 L354.159823,209.430822 C372.592436,214.248351 391.288846,217.991585 410.154801,220.641654 L416.716248,221.562685 C423.685628,222.541536 430.733491,220.413694 435.998984,215.740975 C441.264478,211.068255 444.218228,204.320438 444.080355,197.279152 L444.080355,197.279152 C443.84546,184.693668 433.947213,174.421282 421.387445,173.728483 Z"/>
    <path fill="#5B42EA" fill-rule="nonzero" d="M414.984343,169.143134 L414.143131,177.422512 C412.51341,193.417912 412.626235,209.54321 414.479616,225.514206 L414.984343,229.881677 L436.074003,228.198071 C450.503759,227.049916 464.634839,223.463596 477.867356,217.591357 L480.588922,216.383122 C489.453292,212.453241 495.687394,204.25238 497.106352,194.654709 L497.106352,194.654709 C498.822701,183.0314 491.762394,171.906549 480.519645,168.51921 L480.519645,168.51921 C475.166876,166.92077 469.51738,166.581833 464.012112,167.528854 L464.012112,167.528854 C457.516989,168.61432 450.942525,169.154295 444.357459,169.143134 L414.984343,169.143134 Z"/>
    <path fill="#E5C0BA" fill-rule="nonzero" d="M180.395273,131.687865 L174.833383,129.598213 C171.409158,128.31075 167.928853,127.188347 164.392467,126.231002 L163.264254,125.923992 L163.264254,99.2636044 L125.78582,86.6761778 L125.78582,125.3892 L104.359675,136.778295 L142.382422,164.775664 L174.506795,164.775664 L180.395273,131.687865 Z"/>
    <path fill="#DDB9B6" fill-rule="nonzero" d="M126.676514,90.9049985 C130.209601,100.560971 138.819645,113.079073 149.122009,116.386862 C153.923842,117.850756 159.130198,117.052859 163.274151,114.217982 L163.274151,99.2636044 L125.78582,86.6761778 L125.78582,89.7165712 C126.190897,90.0186046 126.500187,90.4312817 126.676514,90.9049985 Z" style="mix-blend-mode:multiply"/>
    <path fill="#EACDC8" fill-rule="nonzero" d="M179.959823,34.6329622 C180.867044,35.9757887 181.374941,37.5486298 181.42452,39.1687934 L182.47356,75.0593002 L182.47356,90.3206884 C182.475393,92.064706 182.343047,93.8062766 182.077696,95.5299617 L182.077696,95.5299617 C181.554953,98.9407605 179.956382,102.09504 177.515362,104.532299 L177.515362,104.532299 C175.496411,106.550822 172.980163,107.999451 170.221566,108.731409 L168.865731,109.087937 C162.604418,110.763054 156.055722,111.067073 149.666322,109.979258 L146.449926,109.434562 C140.245128,108.386699 134.575263,105.274106 130.35805,100.600585 L130.35805,100.600585 C128.961959,99.0599308 127.888492,97.2549699 127.201034,95.2922763 L122.11418,80.7835587 L116.997637,46.3389719 C116.093129,40.2707236 117.099712,34.0712171 119.877548,28.6016933 L119.877548,28.6016933 C125.002747,18.5055986 135.44252,12.2280991 146.756721,12.439081 L149.893944,12.4985023 C159.504463,12.6946713 168.417768,17.5609007 173.784343,25.5414928 L179.959823,34.6329622 Z"/>
    <path fill="#E9C9C4" fill-rule="nonzero" d="M181.42452,39.1687934 C181.374941,37.5486298 180.867044,35.9757887 179.959823,34.6329622 L173.784343,25.5414928 C168.406711,17.5797295 159.495266,12.7329864 149.893944,12.5480202 L146.756721,12.4885988 C141.480763,12.3970698 136.27649,13.7204249 131.684195,16.3212771 C132.258705,18.9929365 133.222369,21.5656271 134.544313,23.956923 C134.615575,24.031591 134.681703,24.111001 134.742245,24.1946084 C139.39055,30.6687891 145.591252,35.8691894 152.773855,39.3173468 C157.969572,41.8625621 164.046086,42.9915681 168.707386,46.5766574 C178.653471,54.2123033 176.278287,70.6225046 176.159527,81.6253614 C176.030871,93.5096352 172.042541,104.492685 160.512999,109.563308 C159.523338,109.989161 158.533678,110.355593 157.544018,110.682411 C161.366763,110.658387 165.171027,110.149242 168.865731,109.167166 L170.221566,108.731409 C176.449918,107.083387 181.111945,101.90101 182.097489,95.5299617 C182.36284,93.8062766 182.495186,92.064706 182.493353,90.3206884 L182.493353,75.0593002 L181.42452,39.1687934 Z"/>
    <path stroke="#BF9997" stroke-linecap="round" stroke-width="1.544" d="M164.738848,57.3319251 L166.955687,65.5023633 C167.972795,69.2421572 169.441731,72.8439137 171.329985,76.2279204 L173.12127,79.4267708 C173.329625,79.8021617 173.379933,80.245155 173.261068,80.6577591 C173.142203,81.0703632 172.86396,81.4185723 172.487888,81.6253614 L172.487888,81.6253614 C169.570191,83.221516 166.253855,83.9402742 162.937666,83.6952058 L162.462629,83.6952058"/>
    <path fill="#96B4FB" fill-rule="nonzero" d="M175.417282,152.049587 L175.417282,152.049587 C169.131826,154.98609 162.364081,156.75137 155.445938,157.25886 L154.505761,157.318282 C149.943223,157.647506 145.357657,157.424717 140.848449,156.654743 L134.682866,155.604966 L155.050074,185.741503 L172.032644,184.642208 L175.417282,152.049587 Z"/>
    <path fill="#84A7FA" fill-rule="nonzero" d="M165.510783,155.555448 C165.822674,163.60943 165.664058,171.674768 165.035746,179.710234 C166.114476,181.403743 167.173412,183.107156 168.182866,184.850183 L172.032644,184.602594 L175.417282,152.049587 C172.228405,153.516948 168.912524,154.690422 165.510783,155.555448 L165.510783,155.555448 Z"/>
    <path fill="#96B4FB" fill-rule="nonzero" d="M284.606499,98.5010302 L247.197341,151.316724 L247.197341,151.316724 C234.450517,149.177554 221.647612,147.398214 208.788626,145.978704 L198.219055,144.810084 C186.552885,143.521362 175.865739,151.44845 173.70517,162.993022 L173.70517,162.993022 C172.497295,169.452691 174.179605,176.117563 178.308038,181.228376 C182.43647,186.339188 188.596091,189.382272 195.161004,189.554374 L201.346381,189.722735 C219.115376,190.188587 236.896416,189.623135 254.6,188.029226 L254.6,188.029226 C258.058797,187.721192 261.390788,186.575758 264.308567,184.691726 L264.308567,184.691726 C267.077591,182.900541 269.399967,180.498613 271.097637,177.670101 L271.097637,177.670101 C273.707881,173.312329 276.073535,168.812444 278.183604,164.191353 L303.291285,109.147359 L284.606499,98.5010302 Z"/>
    <path fill="#574C76" fill-rule="nonzero" d="M236.607976,177.818654 C233.698375,173.055041 231.481536,168.390463 231.085672,162.73553 C230.930978,158.137141 231.403775,153.539124 232.49099,149.068615 C224.626489,147.926404 216.735598,146.909639 208.818316,146.018318 L198.248744,144.849698 C186.582575,143.560976 175.895429,151.488064 173.73486,163.032637 L173.73486,163.032637 C172.526985,169.492306 174.209295,176.157177 178.337728,181.26799 C182.46616,186.378802 188.625781,189.421886 195.190694,189.593989 L201.376071,189.762349 C213.634663,190.085865 225.893255,189.914204 238.151846,189.247364 C239.398818,185.870249 239.210783,182.017764 236.607976,177.818654 Z"/>
    <path fill="#96B4FB" fill-rule="nonzero" d="M113.137962,304.891251 L76.7481536,251.342694 L76.7481536,251.342694 C83.2007386,240.118658 89.3399311,228.736165 95.1657312,217.195214 L99.9556869,207.697699 C105.242688,197.21286 101.557472,184.42213 91.5039882,178.36335 L91.5039882,178.36335 C85.8789604,174.971203 79.05073,174.217005 72.8218228,176.299849 C66.5929156,178.382693 61.5894328,183.093222 59.1322009,189.187943 L56.8163959,194.892394 C50.1656471,211.383895 44.4786998,228.248406 39.7843427,245.400558 L39.7843427,245.400558 C38.8652634,248.755059 38.7735691,252.282675 39.5171344,255.680454 L39.5171344,255.680454 C40.2198925,258.902336 41.6558358,261.918582 43.7132939,264.494624 L43.7132939,264.494624 C46.8838663,268.470526 50.2737791,272.266195 53.8672083,275.863913 L96.6304284,318.686912 L113.137962,304.891251 Z"/>
    <path fill="#618EF9" fill-rule="nonzero" d="M82.6762186,240.805305 C86.9845396,233.007901 91.1477105,225.137871 95.1657312,217.195214 L99.9556869,207.697699 C103.631688,200.343335 102.993858,191.566024 98.2932963,184.821225 C93.5927352,178.076426 85.5823121,174.444424 77.4155764,175.355068 C69.2488407,176.265713 62.2338231,181.573149 59.1322009,189.187943 L57.7862629,192.515539 C68.5197023,207.232642 76.9154689,223.521527 82.6762186,240.805305 L82.6762186,240.805305 Z" opacity=".5"/>
    <path fill="#618EF9" fill-rule="nonzero" d="M229.185524,145.632079 C218.97223,141.571619 208.577499,138.026144 198.001329,134.995654 C189.223043,132.48015 178.989956,129.528888 173.586411,127.884897 C173.116379,127.755197 172.612791,127.852327 172.224604,128.147557 C171.836416,128.442787 171.608063,128.902323 171.60709,129.390238 L171.60709,129.528888 C171.608416,135.686349 171.081967,141.832577 170.03353,147.899995 L164.372674,180.710494 L144.213294,156.67455 C141.322862,153.237504 138.215576,149.989099 134.910487,146.949253 L116.512703,130.053777 C115.912126,129.504139 115.036555,129.378408 114.305761,129.736863 L111.950369,130.885676 C102.296837,135.602334 93.2456416,141.464478 84.9920236,148.345655 L79.6973412,152.742836 C75.0016861,156.655767 70.7323419,161.054259 66.9604136,165.865055 L59.9239291,174.837682 L54.4313146,182.275257 C53.6398429,183.351433 53.5926281,184.804309 54.3125554,185.929671 L61.4677991,197.061274 C63.0358961,199.458228 64.7271888,201.772168 66.5348597,203.993767 L79.9249631,220.641654 C81.2445101,222.252633 82.491482,223.903227 83.6658789,225.593435 L88.9704579,233.110238 L90.4549483,246.648406 C90.6231905,248.163651 90.7320532,249.678896 90.7815362,251.204045 L91.6425406,277.626747 C91.7349089,280.459165 91.9130478,283.284981 92.1769572,286.104195 L94.1562777,307.456274 L95.6011817,326.609762 C95.6425666,327.183972 95.9315579,327.711752 96.3929099,328.055682 C98.3128508,329.461987 103.55805,333.19563 106.893205,334.483093 L106.893205,334.483093 C112.674144,336.701661 118.743168,338.079074 124.914919,338.573264 L137.127326,339.56362 C142.947464,340.027385 148.788734,340.169552 154.62452,339.989473 L169.904874,339.504199 C179.552714,339.209268 189.142663,337.898063 198.515953,335.592292 L203.701773,334.324636 C204.567174,334.110853 205.183009,333.344571 205.206056,332.452863 L206.195716,295.146147 C206.67979,276.394048 208.432199,257.69627 211.440916,239.181121 L211.440916,239.181121 C211.823584,234.764132 212.334909,230.36365 212.974889,225.979673 L212.974889,225.979673 C213.581881,221.793768 214.073412,217.591357 214.449483,213.37244 L215.221418,204.55827 L217.101773,197.724813 L219.00192,193.466281 C224.059084,182.1168 228.284934,160.715203 230.877843,148.741798 C231.155401,147.438214 230.452944,146.124366 229.215214,145.632079 L229.185524,145.632079 Z"/>
    <path fill="#2D1F54" fill-rule="nonzero" d="M183.483013,48.3890091 L181.008863,42.4468722 C180.115119,40.2782917 178.300552,38.6222428 176.060561,37.9308482 L176.060561,37.9308482 C174.951864,37.5951938 173.783645,37.5039681 172.636337,37.663452 L166.629099,38.5349655 C161.343017,39.2970553 155.950879,38.7530422 150.923191,36.9503956 L150.923191,36.9503956 C147.833676,35.8384028 144.928104,34.2694258 142.30325,32.2957217 L133.277548,25.491975 L135.256869,31.0082587 C136.305574,33.9080191 136.750146,36.9918767 136.56322,40.0700175 L136.56322,40.0700175 C136.317357,44.0330997 135.019126,47.8587368 132.802511,51.1521028 L132.802511,51.1521028 C128.691667,57.2877444 123.89734,62.9360037 118.511817,67.9881573 L114.553176,71.7218 L109.70384,35.1479474 L120.273412,14.2514327 L139.819202,6.32858355 L167.876071,10.0820333 L184.393501,28.0272867 L184.393501,39.6837786 L183.483013,48.3890091 Z"/>
    <rect width="3.988" height="5.457" x="436.707" y="81.635" fill="#2D1F54" fill-rule="nonzero" rx="1.994"/>
    <path fill="#E8C6C1" fill-rule="nonzero" d="M458.311669,87.0426096 L460.568095,85.2401614 C462.288017,83.8580234 464.42887,83.1066254 466.634712,83.1108956 L466.694092,83.1108956 C470.04177,83.1103559 473.153556,84.8357671 474.928065,87.6764375 L474.928065,87.6764375 C476.245504,89.7871702 476.649158,92.3430631 476.046381,94.7574839 L476.046381,94.7574839 C475.388652,97.3407246 473.640224,99.5097218 471.256425,100.699621 L471.256425,100.699621 C468.603882,102.027822 465.584235,102.432119 462.676071,101.848434 L457.331905,100.778849 L458.311669,87.0426096 Z"/>
    <path fill="#EACDC8" fill-rule="nonzero" d="M124.548744,67.0473189 L121.718316,66.0569628 C119.514011,65.2929267 117.080449,65.592765 115.127179,66.8690548 L115.127179,66.8690548 C113.040167,68.2356857 111.770907,70.5531571 111.742541,73.0488772 L111.742541,73.0488772 C111.709996,75.3021051 112.302672,77.5202041 113.454653,79.4564815 L113.860414,80.1596343 C114.733564,81.6232101 116.076717,82.7473639 117.670606,83.3485811 L118.294092,83.5862666 C119.750597,84.1342082 121.34095,84.2172415 122.846529,83.8239521 L126.656721,82.8335959 L124.548744,67.0473189 Z"/>
    <path fill="#726C82" fill-rule="nonzero" d="M150.913294,50.9837422 C148.814118,51.7960569 146.782301,52.7729419 144.83678,53.9052929 C143.897294,54.4551668 142.997767,55.0707173 142.144904,55.7473553 C141.244313,56.4009904 140.452585,57.1833717 139.462925,57.9558495 C140.066385,55.5223461 141.640213,53.4427162 143.81743,52.2018803 C144.880919,51.559994 146.05069,51.1138939 147.271344,50.8847066 C148.476514,50.6339534 149.723511,50.667863 150.913294,50.9837422 Z"/>
    <path fill="#BF9997" fill-rule="nonzero" d="M167.252585,93.2818533 L150.557016,88.3300725 C150.297042,90.4216475 150.917178,92.5272868 152.269129,94.1434631 C155.67356,98.6495836 163.778877,97.0749173 167.252585,93.2818533 Z"/>
    <path fill="#DCDAE0" fill-rule="nonzero" d="M212.955096,191.020101 L176.337666,189.712831 L176.337666,189.712831 C178.420697,189.286502 180.525107,188.972437 182.641802,188.771993 C189.232939,188.167876 196.111078,188.138165 196.111078,188.138165 C201.979764,188.138165 206.007681,188.801704 212.935303,191.020101 L212.955096,191.020101 Z" style="mix-blend-mode:multiply"/>
    <path fill="#99D5CF" fill-rule="nonzero" d="M198.921713,190.505116 L199.42644,178.294025 C199.462467,177.366587 199.865555,176.491551 200.546861,175.861782 C201.228168,175.232013 202.131765,174.899207 203.058493,174.936718 L203.058493,174.936718 C203.987068,174.972729 204.863041,175.377474 205.492653,176.061427 C206.122265,176.74538 206.453626,177.652173 206.413442,178.581228 L205.908715,190.772512 L198.921713,190.505116 Z"/>
    <path stroke="#B0E6E9" stroke-linecap="round" stroke-width="1.544" d="M203.512374,180.591651 L202.692319,200.864242"/>
    <rect width="5.008" height="17.678" x="115.831" y="190.775" fill="#D6D6D6" fill-rule="nonzero" rx="1.976" transform="rotate(-21.36 118.334 199.613)"/>
    <rect width="38.678" height="21.155" x="101.092" y="198.534" fill="#F3F3F4" fill-rule="nonzero" rx=".988" transform="rotate(-21.161 120.43 209.112)"/>
    <path fill="#618EF9" fill-rule="nonzero" d="M169.063663,415.405094 C166.787445,407.363402 161.967799,397.261769 165.105022,388.863549 C167.252585,383.198712 172.824372,380.158318 176.446529,375.563066 C176.427775,375.5412 176.404005,375.524209 176.377253,375.513548 L154.604727,386.278719 L159.671787,508.548089 L160.255687,523.403432 C166.708272,502.784217 171.478434,482.303652 173.220236,460.654466 C173.655687,445.452499 173.289513,430.309954 169.063663,415.405094 Z" opacity=".6"/>
    <path stroke="#392992" stroke-linecap="round" stroke-width="1.544" d="M570.262038,237.408383 L568.213442,227.148294 C566.630358,219.209829 564.043008,211.50555 560.513885,204.221549 L560.513885,204.221549"/>
    <path fill="#2D1F54" fill-rule="nonzero" d="M174.120827,66.9978011 L174.120827,66.9978011 C172.88751,67.0255702 171.862545,66.0529372 171.824815,64.8190176 L171.745643,63.1453157 C171.704873,62.5530002 171.900949,61.9687437 172.29072,61.5211202 C172.680491,61.0734967 173.232018,60.7991872 173.823929,60.7585574 L173.823929,60.7585574 C174.417179,60.742587 174.992451,60.9632127 175.423084,61.371858 C175.853716,61.7805033 176.1044,62.3436624 176.119941,62.9373409 L176.189217,64.6110428 C176.274254,65.840893 175.34948,66.9080096 174.120827,66.9978011 L174.120827,66.9978011 Z"/>
    <rect width="4.711" height="6.447" x="146.826" y="61.475" fill="#2D1F54" fill-rule="nonzero" rx="2.351" transform="rotate(-1.97 149.181 64.699)"/>
  </g>
</svg>
