<svg xmlns="http://www.w3.org/2000/svg" xmlns:xlink="http://www.w3.org/1999/xlink" width="897" height="971" viewBox="0 0 897 971">
  <defs>
    <path id="illustration_01_bynurses-a" d="M433.672233,234.268828 L433.672233,262.358711 C433.674752,267.213145 451.385792,273.088839 455.988088,274.648825 L517.530677,295.315848 C519.006477,295.812326 530.516439,299.900232 532.061522,300.09435 C535.118665,300.478254 542.270647,303.049728 543.704278,303.536163 C551.504016,304.952629 556.389066,304.952629 558.359428,303.536163 C561.314971,301.411465 565.060433,298.953054 565.066517,295.315848 L565.066517,278.365041 C565.073687,270.011041 433.677275,230.725303 433.672233,234.268828 Z"/>
  </defs>
  <g fill="none" fill-rule="evenodd" transform="translate(-100 -68)">
    <path fill="#F5F5F6" fill-rule="nonzero" d="M111.83,987.85 L111.83,987.85 L111.83,987.85 C94.44,973.31 99.5,949.94 114.2,934.57 C140.86,906.72 180.56,910.29 215.03,901.17 C238.44,894.98 270.57,882.05 254.24,852.48 C228.57,806 338.68,798.93 363,794.55 C500,769.9 637.64,745.18 776.78,743.28 C829.3,742.57 883.28,745.44 931.35,766.6 C940.57,770.6 950.35,776.32 953.25,785.97 C972.15,848.84 825.93,825.54 816.95,864.06 C808.27,901.3 836.16,913.54 785.5,924.76 C716.44,940.06 644.77,936.54 575.07,927.88 C516.77,920.64 453.97,906.32 396.46,925.75 C382.59,930.44 366.91,941.05 360.77,954.85 C350.82,977.19 368.33,981.02 372.98,1000.45 C382.32,1039.45 307.71,1038.45 285.71,1038.4 C228.729919,1038.04789 172.769486,1023.25356 123.06,995.4 C119.092467,993.234011 115.333206,990.706636 111.83,987.85 L111.83,987.85 Z"/>
    <path fill="#423565" fill-rule="nonzero" d="M815.2,137.73 C816.151792,134.640533 817.872171,131.843196 820.2,129.6 C822.067524,127.714199 824.475446,126.456068 827.09,126 C834.09,125 842.09,126 846.09,134 C850.09,142 846.09,149 846.09,155 C846.09,161 844.09,173 834.09,175 C831.562684,175.3496 828.988239,174.957006 826.68,173.87 C815.11,169.15 809.35,156.08 813.15,144.18 L815.2,137.73 Z"/>
    <path fill="#000" fill-rule="nonzero" d="M824.7,163 C819.240066,158.474087 815.09574,152.564968 812.7,145.89 C809.833024,157.381993 815.778334,169.247133 826.7,173.83 C829.008239,174.917006 831.582684,175.3096 834.11,174.96 C839.94,173.79 843.05,169.23 844.63,164.44 C838.23,167.62 831.34,168.3 824.7,163 Z"/>
    <path fill="#2D1F54" fill-rule="nonzero" d="M251.37 976.54L251.37 976.54C248.98932 977.900213 247.432823 980.347205 247.21 983.08L246.53 991.68C246.305012 994.519902 247.823513 997.212869 250.37 998.49L253.48 1000.06C258.430407 1002.54865 264.251107 1002.61874 269.26 1000.25L269.26 1000.25C282.82 993.836667 296.06 986.796667 308.98 979.13L311.5 977.64C313.111569 976.684294 313.99403 974.85634 313.74 973L313.66 972.42C313.450531 970.849054 312.399545 969.518062 310.92 968.95L309.22 968.3C305.277959 966.787068 300.999224 966.372328 296.84 967.1L259.53 973.62C256.663159 974.120018 253.903212 975.107646 251.37 976.54L251.37 976.54zM174.51 963.45L174.51 963.45C172.12932 964.810213 170.572823 967.257205 170.35 969.99L169.67 978.59C169.443217 981.427597 170.957404 984.119924 173.5 985.4L176.62 986.97C181.570407 989.458654 187.391107 989.528738 192.4 987.16L192.4 987.16C205.96 980.753333 219.2 973.713333 232.12 966.04L234.63 964.55C236.241731 963.598543 237.127836 961.775135 236.88 959.92L236.8 959.33C236.591265 957.761047 235.539363 956.432733 234.06 955.87L232.36 955.21C228.424996 953.697349 224.153651 953.2792 220 954L182.69 960.52C179.815639 961.020932 177.048719 962.012018 174.51 963.45L174.51 963.45z"/>
    <path fill="#DDB9B6" fill-rule="nonzero" d="M316.32,260 L316.75,281.68 C316.771059,282.550284 316.888441,283.415559 317.1,284.26 L323.55,309.63 C323.749584,310.410099 323.461876,311.233809 322.82,311.72 L320.42,313.52 C318.158462,315.218969 315.616685,316.508473 312.91,317.33 L312.91,317.33 L311.38,335.39 C311.049978,339.779377 308.399531,343.6578 304.43,345.56 L304.02,345.76 C300.586604,347.404823 296.827049,348.25585 293.02,348.25 L276.02,348.25 L274.52,384.25 L213.77,376.5 L233.27,328.25 L230.27,275.25 L249.27,243.5 L277.02,239.75 L308.27,247.21 L316.32,260 Z"/>
    <path fill="#DDB9B6" fill-rule="nonzero" d="M262,334.83 C263.267683,334.101882 264.387137,333.141866 265.3,332 C265.478066,331.584781 265.625135,331.156944 265.74,330.72 C267.12,325.53 266.24,319.97 266.98,314.72 C268.18,306.26 274.19,299.18 269.84,292.06 C267.865616,290.667305 265.533684,289.869174 263.12,289.76 C257.12,289.57 251.68,292.81 246.74,296.15 C241.33,299.81 235.96,303.87 232.24,309.15 L233.32,328.27 L225.32,348.2 C229.97,352.72 238.32,354.52 243.51,351.45 C248.7,348.38 249.18,341.34 253.85,338.11 C256.23,336.41 259.4,336.26 262,334.83 Z" opacity=".4" style="mix-blend-mode:multiply"/>
    <path fill="#726C82" fill-rule="nonzero" d="M672.57 806.5L656 814.92C655.242754 815.299217 654.56414 815.818356 654 816.45L654 816.45C652.639491 817.982832 652.044141 820.04818 652.38 822.07L652.59 823.31C652.824628 824.717906 654.042677 825.749864 655.47 825.75L655.47 825.75C667.86857 825.747302 680.217998 824.191866 692.23 821.12L716.99 814.79C719.201119 814.22396 720.748265 812.232421 720.75 809.95L720.75 801.26C720.746778 799.322607 719.624627 797.561453 717.87 796.74L717.87 796.74C714.794975 795.296126 711.296533 795.032764 708.04 796L672.57 806.5zM797.07 796.48L773 838.42C771.932052 840.271951 771.369919 842.37219 771.37 844.51L771.37 845C771.368891 847.927704 773.387877 850.469056 776.24 851.13L778.15 851.58C782.02667 852.479662 786.103025 851.686936 789.36 849.4L789.36 849.4C793.514541 846.480615 797.258026 843.016294 800.49 839.1L817.13 818.91C818.398381 817.377374 818.954723 815.377453 818.66 813.41L816.97 802.29C816.790189 801.126983 816.205912 800.064661 815.32 799.29L812.12 796.5 797.07 796.48z"/>
    <path fill="#EACDC8" fill-rule="nonzero" d="M699.57,766.64 L699.57,791 L672.57,806.5 L676.16,810.98 C676.410106,811.293703 676.823485,811.427559 677.21,811.32 L718.57,799.5 L720.79,767.37 C720.998194,764.429342 719.974682,761.53446 717.964411,759.378161 C715.954141,757.221861 713.138018,755.998191 710.19,756 L710.19,756 C707.369932,755.999995 704.665658,757.12163 702.673446,759.117594 C700.681234,761.113558 699.564689,763.819937 699.57,766.64 L699.57,766.64 Z"/>
    <path fill="#E5C0BA" fill-rule="nonzero" d="M710.19,756 C704.507267,756.000463 699.835887,760.482164 699.6,766.16 C703.45,770.35 707.99,774.16 710.1,779.28 C713.03,786.46 710.3,795.83 705.85,801.81 C705.41,802.4 704.94,802.95 704.47,803.51 L718.57,799.51 L720.79,767.38 C721.001104,764.437677 719.978896,761.540114 717.968299,759.381567 C715.957701,757.22302 713.139886,755.997992 710.19,756 L710.19,756 Z" opacity=".6" style="mix-blend-mode:multiply"/>
    <path fill="#EACDC8" fill-rule="nonzero" d="M794,780.65 L795.82,803 L783.77,824.49 C783.60851,824.776178 783.597919,825.12343 783.74167,825.418917 C783.88542,825.714405 784.165165,825.920413 784.49,825.97 L795.22,827.66 C795.602797,827.732893 795.993073,827.576783 796.22,827.26 L814.36,802.75 L815.91,775.75 C816.183424,771.163188 813.295859,766.980344 808.91,765.61 L808.91,765.61 C805.617643,764.571812 802.022637,765.305178 799.4,767.55 L799.4,767.55 C795.59126,770.789237 793.580277,775.667733 794,780.65 L794,780.65 Z"/>
    <path fill="#E5C0BA" fill-rule="nonzero" d="M808.86,765.66 C805.567643,764.621812 801.972637,765.355178 799.35,767.6 C796.468857,770.069563 794.593741,773.51024 794.08,777.27 C793.77,779.54 799.76,782.72 801.29,783.63 C808.99,788.21 809.29,795.63 806.7,803.63 C804.59,810.26 799.43,823.25 791.7,827.06 L795.21,827.62 C795.592797,827.692893 795.983073,827.536783 796.21,827.22 L814.35,802.71 L815.9,775.71 C816.125954,771.144761 813.227727,767.007377 808.86,765.66 L808.86,765.66 Z" opacity=".6" style="mix-blend-mode:multiply"/>
    <path fill="#EACDC8" fill-rule="nonzero" d="M941.74 342.09L946.74 340.85 950.35 338.04C955.380451 334.131183 960.732912 330.655429 966.35 327.65L974.35 323.39C974.812553 323.143833 975.370411 323.158721 975.819175 323.429209 976.267939 323.699697 976.541643 324.186024 976.54 324.71L976.54 324.71C976.546211 326.317609 975.998887 327.878365 974.99 329.13L971.58 333.4 971.98 333.27C979.106811 330.89175 985.778232 327.321035 991.71 322.71L991.71 322.71C993.031626 321.678927 994.865119 321.610423 996.26 322.54L996.26 322.54C996.614094 322.774165 996.851491 323.148252 996.912597 323.56835 996.973702 323.988447 996.852712 324.414663 996.58 324.74L995.3 326.25C995.07956 326.513375 995.110695 326.904786 995.37 327.13L995.37 327.13C996.507745 328.082227 996.709166 329.754899 995.83 330.95L993.66 333.95C993.46451 334.22286 993.517285 334.601075 993.78 334.81L993.78 334.81C994.103422 335.068662 994.309035 335.446685 994.350429 335.858747 994.391823 336.270808 994.26551 336.682176 994 337L989.86 341.77C986.198093 346.00999 981.692164 349.439672 976.63 351.84L976.63 351.84C971.315612 354.366762 965.51423 355.704492 959.63 355.76L941.8 355.92 941.74 342.09zM594.85 282.42L586.12 268.35C583.612989 264.316197 580.092751 261.009725 575.91 258.76L569.14 255.11C564.457929 252.598844 559.541115 250.552404 554.46 249L554.46 249C553.750502 248.822626 553.000764 249.046652 552.504888 249.584199 552.009012 250.121745 551.846078 250.887086 552.08 251.58L552.08 251.58C552.799428 253.36672 554.188016 254.801953 555.95 255.58L557.41 256.24C561.380153 258.021294 564.958813 260.570197 567.94 263.74L567.94 263.74 566.67 265.74C564.403879 269.382978 562.966603 273.479725 562.46 277.74L561.38 282.8C560.860315 285.247959 561.761091 287.780182 563.71 289.35L563.71 289.35C564.16 289.71 564.61 290.05 565.07 290.35 569.186718 293.278788 573.904401 295.253314 578.88 296.13L585.74 297.42 591.25 301.2 599.16 290.2 594.85 282.42z"/>
    <path fill="#EDD3CF" fill-rule="nonzero" d="M586.12,268.35 L584.45,264.12 C583.548311,261.834472 580.977071,260.698135 578.68,261.57 L578.68,261.57 C576.829401,262.273854 575.656268,264.10459 575.79,266.08 L576.73,279.42 C576.767876,279.918516 577.019564,280.37627 577.420215,280.675321 C577.820866,280.974371 578.3313,281.085473 578.82,280.98 L578.82,280.98 C581.228405,280.438078 583.088392,278.523155 583.56,276.1 L584.32,272.1"/>
    <polygon fill="#E7C5C0" fill-rule="nonzero" points="789.07 158 791.07 212 799.61 217.28 765.07 260 729.07 254 733.07 215 747.07 212 746.07 189"/>
    <path fill="#DDB9B6" fill-rule="nonzero" d="M785.89,177.52 L785.54,168.01 L772.77,169.75 L746.07,189 L746.5,198.75 C754.238784,204.260853 764.43638,204.896327 772.799466,200.388881 C781.162551,195.881435 786.238395,187.014045 785.89,177.52 Z" style="mix-blend-mode:multiply"/>
    <path fill="#99DFE3" fill-rule="nonzero" d="M757,475.87 L753.54,473.76 L742.24,604.58 L728.4,767.58 C728.34983,768.351784 727.859172,769.025466 727.14,769.31 L727.14,769.31 C719.274352,772.417986 710.672385,773.161752 702.39,771.45 L695.1,770.15 C694.200882,769.967437 693.541288,769.196535 693.5,768.28 L689.89,598.08 C689.82,596.63 689.82,595.18 689.89,593.74 L695,473.31 C696.027216,448.907648 700.332491,424.754382 707.8,401.5 L707.8,401.5 L773.09,412.44 L813.94,406.19 L818.76,419.75 C825.239898,438.025322 827.629456,457.500217 825.76,476.8 L814.25,596.22 C813.618632,602.806563 813.421539,609.427544 813.66,616.04 L819.52,778 C819.559007,778.91274 818.974566,779.735897 818.1,780 L817.49,780.18 C808.625455,782.866751 799.134623,782.653041 790.4,779.57 L789.64,779.3 C788.958046,779.056737 788.460821,778.463892 788.34,777.75 L759.08,607.75 C758.619801,605.107585 758.37566,602.432067 758.35,599.75 L757,475.87 Z"/>
    <path fill="#77D4DA" fill-rule="nonzero" d="M705.24,410.17 C721.72,419.67 741.33,423.28 760.16,423.72 C770.42,423.96 780.8,423.9 790.93,422.06 C794.56,421.4 818.46,415.56 816.93,409.19 L815,401.5 L705.24,410.17 Z"/>
    <path fill="#DDB9B6" fill-rule="nonzero" d="M174,945.13 L173.55,965.05 C173.517809,966.455116 174.406236,967.716763 175.74,968.16 L182.58,970.44 C183.633313,970.790444 184.758003,970.869551 185.85,970.67 L187.18,970.41 C192.759466,969.370419 198.187855,967.640456 203.34,965.26 L209.81,962.14 C210.166559,961.977547 210.395392,961.621823 210.395392,961.23 C210.395392,960.838177 210.166559,960.482453 209.81,960.32 L207.09,959.15 C206.925987,959.080799 206.746474,959.056634 206.57,959.08 L193.66,960.65 L202.39,923.25 L175.67,921.82 L175.21,926.34 C174.556667,932.593333 174.153333,938.856667 174,945.13 Z"/>
    <path fill="#DDB9B6" fill-rule="nonzero" d="M209.83,962.14 C210.186559,961.977547 210.415392,961.621823 210.415392,961.23 C210.415392,960.838177 210.186559,960.482453 209.83,960.32 L207.96,959.51 C205.96,960.056667 203.936667,960.553333 201.89,961 C200.09,961.393333 198.286667,961.75 196.48,962.07 C195.42909,962.206726 194.369632,962.266884 193.31,962.25 L193.68,960.65 L193.68,960.65 L194.01,959.25 L194.01,959.15 L199.16,937.09 L200.63,930.8 L174.54,934.34 L174.54,934.34 C177.86,938.79 181.13,943.42 183.18,948.62 C184.622612,952.185306 185.014718,956.089007 184.31,959.87 C183.92,962.19 182.73,964.46 182.84,966.87 C182.847651,968.339016 183.437406,969.745077 184.48,970.78 C184.951859,970.799853 185.424494,970.769685 185.89,970.69 L187.22,970.43 C192.799466,969.390419 198.227855,967.660456 203.38,965.28 L209.83,962.14 Z" style="mix-blend-mode:multiply"/>
    <path fill="#DDB9B6" fill-rule="nonzero" d="M251.83,957.64 L251.38,977.56 C251.347809,978.965116 252.236236,980.226763 253.57,980.67 L260.41,982.95 C261.463228,983.300871 262.588027,983.379985 263.68,983.18 L265.01,982.93 C270.588676,981.882321 276.016483,980.149184 281.17,977.77 L287.64,974.65 C287.996559,974.487547 288.225392,974.131823 288.225392,973.74 C288.225392,973.348177 287.996559,972.992453 287.64,972.83 L284.92,971.66 C284.755987,971.590799 284.576474,971.566634 284.4,971.59 L271.49,973.16 L280.22,935.76 L253.5,934.33 L253.04,938.85 C252.346667,945.103333 251.943333,951.366667 251.83,957.64 Z"/>
    <path fill="#DDB9B6" fill-rule="nonzero" d="M287.64,974.66 C287.996559,974.497547 288.225392,974.141823 288.225392,973.75 C288.225392,973.358177 287.996559,973.002453 287.64,972.84 L285.77,972.04 C283.77,972.58 281.77,973.04 279.7,973.52 C277.9,973.913333 276.096667,974.27 274.29,974.59 C273.23913,974.72795 272.179824,974.791442 271.12,974.78 L271.49,973.17 L271.49,973.17 L271.82,971.77 L271.82,971.67 L277,949.61 L278.47,943.32 L252.38,946.86 L252.38,946.86 C255.7,951.31 258.97,955.94 261.02,961.14 C262.462612,964.705306 262.854718,968.609007 262.15,972.39 C261.76,974.71 260.57,976.98 260.68,979.39 C260.686556,980.859239 261.276479,982.265702 262.32,983.3 C262.791859,983.319853 263.264494,983.289685 263.73,983.21 L265.06,982.96 C270.638676,981.912321 276.066483,980.179184 281.22,977.8 L287.64,974.66 Z" style="mix-blend-mode:multiply"/>
    <path fill="#301C57" fill-rule="nonzero" d="M228.52,692.19 L251.52,791.8 C251.894228,793.439343 252.062195,795.119015 252.02,796.8 L248.37,954.87 C248.344578,955.938904 249.091355,956.871321 250.14,957.08 L259.96,959.08 C266.075725,960.320898 272.424388,959.66859 278.16,957.21 L278.16,957.21 C278.87739,956.899714 279.37875,956.235032 279.48,955.46 L301.95,787.46 C302.448236,783.414259 302.491841,779.325447 302.08,775.27 L284.17,595.27 L250.95,605.84 C224.959336,612.143128 198.043615,613.698108 171.5,610.43 L165.34,609.67 L169.61,685.9 L179.93,791.9 C180.031718,792.953612 180.048438,794.013704 179.98,795.07 L171.2,936.82 C171.094091,937.949824 171.87264,938.971943 172.99,939.17 L180.75,940.62 C186.492436,941.689633 192.420808,941.099918 197.84,938.92 L200.54,937.83 C201.237716,937.548435 201.743155,936.929838 201.88,936.19 L227.56,797 C228.341214,792.76485 228.72953,788.466588 228.72,784.16 L228.52,692.19 Z"/>
    <path fill="#000" fill-rule="nonzero" d="M228.52,692.19 L220.65,658.06 C219.33076,652.357537 214.967183,647.851586 209.31,646.35 L189.07,641 L189.07,641 C189.068959,642.501093 190.014755,643.839636 191.43,644.34 L199.43,647.22 C201.320632,647.895214 202.624075,649.635763 202.74,651.64 L204.31,679.1 C208.142141,711.178423 216.278658,742.594326 228.5,772.5 L228.5,772.5 L228.52,692.19 Z"/>
    <path fill="#2D1F54" fill-rule="nonzero" d="M297.58,811.18 C293.25,835.91 286.49,860.7 283.51,885.97 C281.51,903.04 279.19,920.09 277.06,937.15 C275.816532,946.499912 270.264909,954.727416 262.06,959.38 C262.53,959.44 263,959.48 263.48,959.52 L264.24,959.59 L265.53,959.59 L266.44,959.59 L267.64,959.59 C267.98,959.59 268.31,959.59 268.64,959.53 C268.97,959.47 269.39,959.46 269.76,959.41 C270.13,959.36 270.49,959.32 270.85,959.26 C271.21,959.2 271.55,959.15 271.85,959.08 C272.15,959.01 272.64,958.92 273.04,958.82 L273.97,958.6 C274.42,958.48 274.87,958.34 275.32,958.2 L276.06,957.96 C276.75,957.72 277.44,957.46 278.12,957.17 C278.83739,956.859714 279.33875,956.195032 279.44,955.42 L301,794.62 C299.87,800.14 298.54,805.65 297.58,811.18 Z"/>
    <path fill="#3B3D3D" fill-rule="nonzero" d="M219,332.75 L214,279.22 C213.729872,276.356681 213.780183,273.472157 214.15,270.62 C216.438575,252.868201 229.965243,238.645575 247.58,235.47 C258.663882,233.46719 269.94093,232.742453 281.19,233.31 L295.07,234.01 C298.070151,234.161203 301.077119,234.107746 304.07,233.85 C309.5,233.39 314.34,232.2 318.2,236.85 C322.25,241.66 323.98,249.29 321.42,255.21 L320.91,256.38 C319.092722,260.595216 316.108962,264.203484 312.31,266.78 C303.777192,272.580312 293.697579,275.681195 283.38,275.68 L281.28,275.68 C281.277804,283.17586 279.441035,290.55727 275.93,297.18 L268.71,310.78 L263.48,327.11 C262.04237,331.571436 257.328648,334.091907 252.82,332.81 C251.98422,332.567025 251.088913,332.910431 250.63,333.65 L248.07,337.74 C246.76705,339.826246 244.786294,341.400964 242.46,342.2 C238.077909,343.717189 233.320394,343.762833 228.91,342.33 L226.55,341.57 C224.600447,340.940768 222.846927,339.817689 221.46,338.31 C220.047366,336.779926 219.182187,334.82448 219,332.75 L219,332.75 Z"/>
    <path fill="#DDB9B6" fill-rule="nonzero" d="M283.18,421.6 L308.5,403 L310.16,399.56 C312.881207,393.921124 317.446446,389.38058 323.1,386.69 L325.7,385.45 C327.288569,384.699615 329.174865,385.001422 330.45,386.21 L339.28,394.62 C340.341569,395.621273 340.810506,397.099936 340.52,398.53 L339.05,403.27 C338.567674,405.676193 336.502031,407.440253 334.05,407.54 L334.05,407.54 L331.05,410.49 C328.45,413.03 320.43,416.74 320.19,417.08 L303.41,441.3 C300.619033,445.34069 295.951035,447.667985 291.044356,447.465062 C286.137678,447.262139 281.677789,444.557346 279.23,440.3 L279.23,440.3 C275.585744,433.971358 277.287652,425.914225 283.18,421.6 L283.18,421.6 Z"/>
    <path fill="#DDB9B6" fill-rule="nonzero" d="M339.28,394.66 L331.59,387.33 C331.149756,387.64737 330.664342,387.896819 330.15,388.07 C329.188562,388.408838 328.261141,388.837394 327.38,389.35 C327.319475,389.579838 327.239176,389.804007 327.14,390.02 L326.75,390.86 C329.19,395.81 332.88,400.92 329,406.22 C327.37,408.43 324.91,409.54 322.55,410.81 C319.129166,412.753291 316.111614,415.332976 313.66,418.41 C308,425.08 303.35,432.6 298,439.47 C295.88,442.136667 293.706667,444.786667 291.48,447.42 C296.260094,447.55174 300.779883,445.246648 303.48,441.3 L320.22,417.12 C320.46,416.78 328.48,413.07 331.08,410.53 L334.08,407.58 C336.532031,407.480253 338.597674,405.716193 339.08,403.31 L340.55,398.57 C340.833054,397.134636 340.35248,395.655075 339.28,394.66 L339.28,394.66 Z" opacity=".4" style="mix-blend-mode:multiply"/>
    <path fill="#423565" fill-rule="nonzero" d="M739.07,92 L737.58,88.33 C735.00902,82.194793 736.932747,75.097189 742.25,71.1 C742.51,70.9133333 742.78,70.7333333 743.06,70.56 L743.06,70.56 C745.679765,68.8886244 748.722483,68.0004421 751.83,68 L753.66,68 C762.342419,68.009918 770.778805,70.8853196 777.66,76.18 L780.07,78 L785.84,76.92 C792.432435,75.6828308 799.249677,76.9068033 805,80.36 L805,80.36 C808.981483,82.7504802 812.291403,86.11201 814.62,90.13 L814.62,90.13 C819.516615,98.5885527 822.31476,108.097444 822.78,117.86 L822.86,119.6 C822.988813,122.514873 822.651227,125.431613 821.86,128.24 L819.77,135.77 C818.639463,139.829448 818.75092,144.13449 820.09,148.13 L820.09,148.3 C822.528065,155.61937 821.191799,163.670649 816.52,169.81 L816.52,169.81 C811.273864,176.689693 802.654971,180.106469 794.12,178.69 L790.12,178.02 C782.522007,176.754996 776.039476,171.818242 772.8,164.83 L739.07,92 Z"/>
    <path fill="#000" fill-rule="nonzero" d="M799.41,172.93 C795.352083,171.508022 791.738388,169.04602 788.93,165.79 C787.18,163.66 785.22,158.6 782.55,157.64 C779.7,156.64 775.21,159.52 772.93,160.8 L771.43,161.69 L772.89,164.83 C776.134596,171.810524 782.616234,176.739114 790.21,178 L794.21,178.67 C800.510357,179.714858 806.96385,178.135812 812.07,174.3 C807.801678,174.899774 803.451204,174.428988 799.41,172.93 L799.41,172.93 Z"/>
    <path fill="#EACDC8" fill-rule="nonzero" d="M728,113.36 L726.1,128.28 C724.421107,141.737267 723.809199,155.306241 724.27,168.86 L724.4,172.37 C724.506813,175.765292 725.182875,179.118561 726.4,182.29 L726.71,183.1 C728.567012,187.935176 731.748513,192.149452 735.89,195.26 L735.89,195.26 C739.567482,198.011809 744.036927,199.499285 748.63,199.5 L749.42,199.5 C758.03838,199.50161 766.508999,197.261618 774,193 L774,193 C778.560765,190.410923 782.001821,186.225373 783.66,181.25 L786.03,174.12 C788.063883,168.034394 789.648142,161.807651 790.77,155.49 L794.65,133.65 C796.229499,124.714954 795.312504,115.517318 792,107.07 L792,107.07 C789.526588,100.743624 784.172732,95.9846405 777.6,94.27 L777.6,94.27 C769.354544,92.1212534 760.725195,91.8988475 752.38,93.62 L744.71,95.21 C739.17567,96.3581056 734.327633,99.6657124 731.24,104.4 L731.24,104.4 C729.4951,107.102616 728.387202,110.166431 728,113.36 L728,113.36 Z"/>
    <path fill="#E9C9C4" fill-rule="nonzero" d="M792,107.07 C789.66265,101.099721 784.752378,96.5055289 778.64,94.57 C783.76,105.86 780.28,118.93 778.54,130.57 C777.09,140.3 775.81,150.04 772.99,159.42 C772.967145,159.638779 772.930404,159.855883 772.88,160.07 C770.88,169.15 769.04,179.49 763,186.9 C757.899571,192.953906 750.740322,196.907522 742.9,198 C742.66,198.15 742.43,198.3 742.18,198.44 C744.272612,199.103204 746.454809,199.440483 748.65,199.44 L749.44,199.44 C758.046227,199.456435 766.509173,197.237324 774,193 C778.560765,190.410923 782.001821,186.225373 783.66,181.25 L786.03,174.12 C788.063883,168.034394 789.648142,161.807651 790.77,155.49 L794.65,133.65 C796.229499,124.714954 795.312504,115.517318 792,107.07 L792,107.07 Z"/>
    <path fill="#423565" fill-rule="nonzero" d="M777.07,107 L757.37,109.46 C749.209862,110.481029 741.230614,112.628123 733.66,115.84 L733.66,115.84 C729.667621,117.533562 725.10914,117.236835 721.37,115.04 L719.49,113.94 C714.455146,110.980974 711.84957,105.155565 713,99.43 L713,99.43 C713.691199,95.94738 715.710293,92.8703237 718.63,90.85 L718.63,90.85 C724.093174,87.0696279 730.699,85.3024191 737.32,85.85 L739.08,86 L783.08,92 L798.08,105 L804.08,143 L798.08,151 L793.52,145.72 C784.124864,134.849664 778.372032,121.308651 777.07,107 Z"/>
    <path stroke="#BF9997" stroke-linecap="round" stroke-width="1.5" d="M748.07,132 L737.44,163.9 C737.226553,164.540943 737.494205,165.24353 738.08,165.58 L738.86,166.02 C742.272396,167.977354 746.136096,169.01135 750.07,169.02 L750.07,169.02"/>
    <path fill="#BF9997" fill-rule="nonzero" d="M747.22,182.71 C747.094405,182.649114 747.029998,182.507399 747.066723,182.372743 C747.103447,182.238086 747.230884,182.148692 747.37,182.16 C749.455829,182.086388 751.459218,181.327209 753.07,180 C757.07,177 759.07,174 761.07,177 C763.07,180 760.07,186 756.07,186 C753.15,186 749.15,183.86 747.22,182.71 Z"/>
    <path fill="#77D4DA" fill-rule="nonzero" d="M726.07,233 L740.64,240 C748.867235,243.961073 757.724133,246.45197 766.81,247.36 L793.07,250 L766.07,272 L716.07,258 L726.07,233 Z"/>
    <path fill="#33BFC7" fill-rule="nonzero" d="M766.81,247.37 C764.98,247.19 763.17,246.93 761.36,246.62 C755.949458,252.949702 750.878981,259.562352 746.17,266.43 L766.07,272 L793.07,250 L766.81,247.37 Z"/>
    <path fill="#77D4DA" fill-rule="nonzero" d="M819.39,324.71 L841.84,357.71 C843.321183,359.883703 845.117513,361.824952 847.17,363.47 L847.89,364.04 C851.932439,367.279683 856.840444,369.255407 862,369.72 L862,369.72 C864.06612,369.90864 866.147321,369.851575 868.2,369.55 L946.26,358.13 C946.753038,358.055231 947.115637,357.628643 947.11,357.13 L947.11,338 C947.11,337.447715 946.662285,337 946.11,337 L880.11,335 L867.11,304 L862.11,293.61 C856.479359,281.879566 842.812863,276.403414 830.64,281 L830.64,281 C823.904162,283.52295 818.573679,288.813382 816,295.53 L816,295.53 C812.281258,305.224658 813.547737,316.126096 819.39,324.71 Z"/>
    <path fill="#116D6D" fill-rule="nonzero" d="M857.38,287 C856.190084,287.307317 855.026431,287.708577 853.9,288.2 C838.929321,294.93263 825.927875,305.379913 816.13,318.55 C816.986294,320.726679 818.079542,322.802509 819.39,324.74 L825.94,334.36 C826.368891,333.638964 826.743268,332.886867 827.06,332.11 C832.57,318.97 842.63,308.96 852.54,299.11 C854.54,297.17 858.63,294.25 860.84,291.47 C859.858238,289.85476 858.697581,288.3553 857.38,287 L857.38,287 Z"/>
    <path fill="#77D4DA" fill-rule="nonzero" d="M673.55,283.05 L652.82,312.5 L598.08,284.88 C597.643229,284.657749 597.109751,284.784768 596.82,285.18 L584.9,301.46 C584.584267,301.900854 584.677422,302.513019 585.11,302.84 L653.92,355 C656.446652,356.934837 659.537637,357.988582 662.72,358 L662.72,358 C667.058047,358.001241 671.171034,356.069383 673.94,352.73 L697.94,323.73 C705.349836,314.787273 708.788377,303.20748 707.46,291.67 L707.46,291.67 C706.601485,284.23366 701.399858,278.021588 694.23,275.87 L694.23,275.87 C686.509882,273.56668 678.181761,276.458165 673.55,283.05 L673.55,283.05 Z"/>
    <path fill="#22ABB2" fill-rule="nonzero" d="M736.07,213 L748.07,264 L799.07,215 L811.14,223.36 C820.39813,229.763548 828.887465,237.212688 836.44,245.56 L836.44,245.56 C841.519332,251.176682 846.156503,257.177923 850.31,263.51 L865.07,286 L849.9,297 C840.703289,303.660815 832.149406,311.166806 824.35,319.42 L819.07,325 L818.07,411 L817.07,411.38 C811.087862,413.790024 804.79604,415.345306 798.38,416 L798.38,416 C778.210083,418.027631 757.905762,418.362134 737.68,417 L716.34,415.55 C711.506511,415.207264 706.723051,414.352477 702.07,413 L702.07,413 L692.07,311 L679.07,300 C675.088186,296.662639 671.407361,292.981814 668.07,289 L668.07,289 L683.38,256.48 C683.84,255.493333 684.33,254.523333 684.85,253.57 L689.19,245.57 C693.703853,237.300856 700.271487,230.333723 708.26,225.34 L708.26,225.34 C710.811042,223.755751 713.486498,222.381236 716.26,221.23 L736.07,213 Z"/>
    <path fill="#22ABB2" fill-rule="nonzero" d="M803.75 220C803.45 219.57 803.18 219.12 802.92 218.66 800.328408 214.130048 796.05077 210.808587 791.02 209.42 791.02 209.92 791.02 210.42 791.02 210.94L791.14 213.66C794.639917 214.946906 797.574891 217.425171 799.43 220.66 799.73 221.21 800.05 221.73 800.43 222.26 803.193729 226.404124 804.247244 231.456695 803.37 236.36 801.036815 249.691584 794.694935 261.99511 785.19 271.63L775.9 281C775.524446 281.375137 775.313427 281.884182 775.313427 282.415 775.313427 282.945818 775.524446 283.454863 775.9 283.83 776.272521 284.199488 776.77532 284.407791 777.3 284.41 777.837962 284.410461 778.353427 284.194182 778.73 283.81L788 274.4C798.09065 264.188765 804.824 251.140719 807.3 237 808.350569 231.087607 807.078886 224.99786 803.75 220zM724.86 251.25L724.71 248.96C724.003822 238.459554 727.245726 228.074048 733.8 219.84 734.724557 218.683527 735.781807 217.639703 736.95 216.73L736.15 213.35C736.039839 213.271816 735.936168 213.184867 735.84 213.09L734.26 213.75C732.931964 214.811404 731.727706 216.019017 730.67 217.35 723.488917 226.361436 719.939542 237.733705 720.72 249.23L720.84 251.1C706.75201 251.622681 695.080786 262.201046 693.18 276.17L689.45 304.92C689.273077 306.323114 689.395777 307.747798 689.81 309.1L692.07 311 692.29 313.19C694.051865 314.948396 696.412538 315.97695 698.9 316.07L706.51 316.34C707.614569 316.37866 708.54134 315.514569 708.58 314.41 708.61866 313.305431 707.754569 312.37866 706.65 312.34L699.04 312.07C697.384818 312.016649 695.829487 311.265451 694.75867 310.002191 693.687852 308.738931 693.201538 307.081569 693.42 305.44L697.15 276.69C698.801097 263.744733 710.202119 254.293861 723.229048 255.071785 736.255977 255.849709 746.451238 266.590238 746.55 279.64L746.8 305.73C746.839861 308.622564 744.762978 311.111426 741.91 311.59L733.67 313C732.565431 313.093888 731.746112 314.065431 731.84 315.17 731.933888 316.274569 732.905431 317.093888 734.01 317L734.35 317 742.58 315.59C747.370382 314.790827 750.86127 310.6162 750.8 305.76L750.55 279.67C750.438028 265.050605 739.393887 252.832836 724.86 251.25L724.86 251.25z" opacity=".7" style="mix-blend-mode:multiply"/>
    <path fill="#E9C9C4" fill-rule="nonzero" d="M785.23,148.44 L787.75,146.44 C789.670219,144.899631 792.058298,144.060099 794.52,144.06 L794.59,144.06 C798.324667,144.063448 801.794041,145.990878 803.77,149.16 L803.77,149.16 C805.21932,151.500961 805.662796,154.327673 805,157 L805,157 C804.278226,159.896448 802.322732,162.330763 799.65,163.66 L799.65,163.66 C796.705312,165.159599 793.343681,165.631283 790.1,165 L784.1,163.81 L785.23,148.44 Z"/>
    <path fill="#DDB9B6" fill-rule="nonzero" d="M284.53,296.51 L282.19,294.64 C280.401624,293.20978 278.179939,292.430427 275.89,292.43 L275.83,292.43 C272.356333,292.431301 269.128594,294.222809 267.29,297.17 L267.29,297.17 C265.920999,299.360559 265.498831,302.012639 266.12,304.52 L266.12,304.52 C266.801865,307.214937 268.628741,309.476609 271.12,310.71 L271.12,310.71 C273.874161,312.088909 277.009167,312.511132 280.03,311.91 L285.57,310.8 L284.53,296.51 Z"/>
    <path fill="#2D1F54" fill-rule="nonzero" d="M764.36,131.94 C765.473241,131.199297 766.782902,130.809185 768.12,130.82 C769.440854,130.781476 770.753398,131.04125 771.96,131.58 C773.187765,132.087682 774.277597,132.879352 775.14,133.89 C776.045347,134.872487 776.640247,136.100554 776.85,137.42 L776.85,137.42 C776.856313,137.444395 776.850762,137.470339 776.83502,137.490016 C776.819279,137.509693 776.795186,137.520803 776.77,137.52 C776.742154,137.536077 776.707846,137.536077 776.68,137.52 C775.922605,136.63752 775.078355,135.833472 774.16,135.12 C773.240573,134.413701 772.231841,133.831999 771.16,133.39 C770.096756,132.926596 768.982307,132.590918 767.84,132.39 C766.695729,132.181808 765.532297,132.097987 764.37,132.14 C764.320068,132.136257 764.278964,132.099264 764.27,132.05 C764.260849,132.024118 764.260849,131.995882 764.27,131.97 L764.36,131.94 Z"/>
    <rect width="5.53" height="7.56" x="732.28" y="143.56" fill="#2D1F54" fill-rule="nonzero" rx="2.76"/>
    <path fill="#D33258" fill-rule="nonzero" d="M212.57,372.25 L217.16,362.86 C217.552609,362.057081 218.430288,361.612119 219.31,361.77 L275.68,372 C276.642185,372.175935 277.335953,373.021993 277.32,374 L277.32,381.58 L212.57,372.25 Z"/>
    <path fill="#020037" fill-rule="nonzero" d="M418.05,117.77 L418.05,163.43 C418.029962,165.048933 419.062078,166.493896 420.6,167 L564.33,213.87 C565.454707,214.238891 566.688109,214.045845 567.646317,213.350947 C568.604524,212.656048 569.171212,211.543657 569.17,210.36 L569.17,160.84 C569.16916,159.209386 568.100941,157.771556 566.54,157.3 L422.8,114.23 C421.681572,113.890104 420.468182,114.101781 419.530906,114.800298 C418.593631,115.498815 418.043963,116.60108 418.05,117.77 Z" opacity=".3"/>
    <path fill="#DDB9B6" fill-rule="nonzero" d="M162.24,433.63 L158.32,459 C157.822051,462.208962 157.727986,465.467658 158.04,468.7 L158.04,468.7 C159.112212,479.936124 168.150497,488.750249 179.41,489.54 L201.24,491.08 L208.91,449.69 L162.24,433.63 Z"/>
    <path fill="#DDB9B6" fill-rule="nonzero" d="M162.24,433.63 L158.32,459 C157.822051,462.208962 157.727986,465.467658 158.04,468.7 L158.04,468.7 C159.112212,479.936124 168.150497,488.750249 179.41,489.54 L201.24,491.08 L208.91,449.69 L162.24,433.63 Z" style="mix-blend-mode:multiply"/>
    <path fill="#DCDAE0" fill-rule="nonzero" d="M802.14,307.86 L757.36,296 L757.36,296 C759.61468,296.05985 761.864552,296.240107 764.1,296.54 C771.05,297.54 776.75,298.78 783.1,300.29 L785.44,300.85 C791.5,302.28 795.44,303.85 802.09,307.85 L802.14,307.86 Z" style="mix-blend-mode:multiply"/>
    <path fill="#99D5CF" fill-rule="nonzero" d="M787.85,304.08 L791.22,291.58 C791.751859,289.6041 793.783095,288.431889 795.76,288.96 L795.76,288.96 C796.711186,289.215321 797.521821,289.838366 798.013273,290.691841 C798.504724,291.545315 798.636658,292.559174 798.38,293.51 L795,306 L787.85,304.08 Z"/>
    <path stroke="#B0E6E9" stroke-linecap="round" stroke-width="2" d="M794.91,294.91 L789.35,315.66"/>
    <path stroke="#726C82" stroke-linecap="round" stroke-width="4" d="M704.58,311.34 L696.97,311.07 C694.75237,310.992734 692.670095,309.984044 691.234803,308.29177 C689.799511,306.599496 689.144242,304.380499 689.43,302.18 L693.17,273.43 C694.960982,259.595487 707.065267,249.448417 721,250.1 L721,250.1 C735.211132,250.752286 746.436331,262.394534 746.57,276.62 L746.82,302.72 C746.855816,306.58638 744.081103,309.907564 740.27,310.56 L732,312"/>
    <path stroke="#E3E2E6" stroke-linecap="round" stroke-width="4" d="M746.72 294.6L746.8 302.72C746.835816 306.58638 744.061103 309.907564 740.25 310.56L732 312M704.58 311.34L696.97 311.07C694.75237 310.992734 692.670095 309.984044 691.234803 308.29177 689.799511 306.599496 689.144242 304.380499 689.43 302.18L690.61 293.18"/>
    <circle cx="774.92" cy="279.44" r="11.71" fill="#C9C9C9" fill-rule="nonzero"/>
    <path stroke="#726C82" stroke-linecap="round" stroke-width="4" d="M721,250.1 L720.73,246.1 C720.002657,235.101895 723.400456,224.227513 730.26,215.6 L730.26,215.6 C734.203554,210.647224 740.188996,207.761255 746.52,207.76 L781.86,207.76 C788.88955,207.046551 795.681583,210.532658 799.2,216.66 C799.48,217.17 799.78,217.66 800.1,218.13 L800.1,218.13 C803.142843,222.706219 804.306699,228.278401 803.35,233.69 L803.35,233.69 C800.922343,247.413201 794.383757,260.075391 784.6,270 L775.32,279.44"/>
    <polygon fill="#E8C6C1" fill-rule="nonzero" points="746.7 203.38 747.07 212 791.07 212 790.71 202.25 760.02 205.13"/>
    <circle cx="774.92" cy="279.44" r="5.86" fill="#726C82" fill-rule="nonzero"/>
    <path fill="#9681CB" fill-rule="nonzero" d="M821.89,128.88 C821.62,130.5 821.25,132.1 820.89,133.71 C820.53,135.32 820.11,136.9 819.89,138.47 C819.438223,141.616387 819.673624,144.823307 820.58,147.87 C820.8,148.6 821.08,149.43 821.28,150.25 C821.489904,151.066222 821.650197,151.894404 821.76,152.73 C821.980113,154.38769 822.013656,156.064835 821.86,157.73 C821.563761,161.057789 820.469505,164.26509 818.67,167.08 C819.906502,164.085041 820.584339,160.88904 820.67,157.65 C820.746762,154.447234 820.220971,151.258566 819.12,148.25 C818.167115,144.999868 818.033135,141.564472 818.73,138.25 C819.122482,136.641445 819.603209,135.055713 820.17,133.5 C820.78,132 821.29,130.41 821.89,128.88 Z"/>
    <path fill="#3B3D3D" fill-rule="nonzero" d="M307.55,284.36 C305.200412,284.848912 302.957999,285.756716 300.93,287.04 C299.952304,287.68971 299.01707,288.401156 298.13,289.17 C297.67,289.55 297.25,290 296.77,290.4 C296.29,290.8 295.89,291.29 295.36,291.71 C295.513414,291.071475 295.717391,290.446168 295.97,289.84 C296.258411,289.244891 296.592756,288.67316 296.97,288.13 C297.750229,287.036327 298.726787,286.097068 299.85,285.36 C300.998029,284.629928 302.285238,284.146374 303.63,283.94 C304.94992,283.701549 306.310558,283.847331 307.55,284.36 L307.55,284.36 Z"/>
    <path fill="#F84F77" fill-rule="nonzero" d="M154.42,443.92 L173.07,398.76 C178.03076,386.749125 187.564745,377.204346 199.57,372.23 L199.57,372.23 C205.511375,369.768965 211.879088,368.501539 218.31,368.5 L218.31,368.5 C223.13575,368.498101 227.947387,369.021178 232.66,370.06 L272.58,378.86 C275.585172,379.702829 278.423143,381.055855 280.97,382.86 C286.912954,386.836813 292.052745,391.898574 296.12,397.78 L298.98,401.88 C299.115935,403.340176 299.115935,404.809824 298.98,406.27 L288.86,515.27 L288.86,515.27 C287.700558,531.397854 288.149438,547.601073 290.2,563.64 L293.7,591.04 C293.79817,591.793288 293.461102,592.537163 292.83,592.96 L284.55,598.44 C276.483505,603.790056 267.581463,607.757784 258.21,610.18 L258.21,610.18 C252.824779,611.567502 247.320158,612.441411 241.77,612.79 L241.54,612.79 C215.273447,614.417983 188.915324,613.772245 162.76,610.86 C162.247099,610.808458 161.857417,610.375478 161.86,609.86 L161.86,532 L165.11,483 L168.36,452.5 L154.9,445.18 C154.438333,444.947239 154.230216,444.400933 154.42,443.92 Z"/>
    <path fill="#DD9300" fill-rule="nonzero" d="M257.67,446 C257.557898,445.634414 257.527179,445.248721 257.58,444.87 C257.74,443.74 257.91,442.61 258.07,441.48 C257.621791,441.039138 257.406966,440.413182 257.49,439.79 C257.57,439.09 257.65,438.4 257.74,437.7 L257.69,437.7 C257.276667,440.326667 256.863333,442.953333 256.45,445.58 C256.881896,445.631697 257.297807,445.77488 257.67,446 Z"/>
    <path fill="#D33258" fill-rule="nonzero" d="M288.82,515.25 L291.57,485.68 C288.57,477.95 283.57,470.96 276.43,466.93 C272.43,464.65 266.12,462.84 261.89,465.8 C261.340426,466.181892 260.857326,466.651479 260.46,467.19 C260.373333,460.79 260.353333,454.386667 260.4,447.98 C259.854383,447.969588 259.32194,447.810547 258.86,447.52 C258.946178,447.89849 258.946178,448.29151 258.86,448.67 C251.86,486.86 243.74,538.3 280.54,564.5 C283.733451,566.793924 287.261588,568.581604 291,569.8 L290.21,563.62 C288.142765,547.582736 287.677136,531.379512 288.82,515.25 L288.82,515.25 Z"/>
    <path fill="#DDB9B6" fill-rule="nonzero" d="M267.09,480 L296.09,540.31 C298.216886,544.765863 301.681239,548.446957 306,550.84 L306,550.84 C312.099178,554.22007 319.375272,554.750238 325.9,552.29 L325.9,552.29 C334.128476,549.177862 341.111104,543.456181 345.78,536 L345.78,536 C361.399121,511.037328 375.175709,484.968094 387,458 L393.23,443.82 L402.78,432.87 C405.482956,429.774062 407.333615,426.027942 408.15,422 L408.15,422 C409.078246,417.410918 408.622293,412.64952 406.84,408.32 L401,394.21 C400.768012,393.64662 400.253785,393.249231 399.65011,393.166818 C399.046435,393.084405 398.444509,393.329418 398.07,393.81 L398.07,393.81 C396.888483,395.308878 396.401163,397.239978 396.73,399.12 L397.65,404.54 C398.019651,406.66267 397.588487,408.846995 396.44,410.67 L389.22,422.17 L389,414 C388.933126,411.892754 387.602848,410.033523 385.63,409.29 L385.63,409.29 C385.114486,409.093998 384.538741,409.135555 384.056719,409.403559 C383.574697,409.671564 383.235562,410.13868 383.13,410.68 L382.08,416 C381.52,418.806667 381.1,421.64 380.82,424.5 L379.91,433.68 L327.57,491.13 L309.35,440.6 C305.929214,431.130302 296.127138,425.556989 286.24,427.46 L286.24,427.46 C282.531603,428.177171 279.094447,429.907864 276.31,432.46 L276.31,432.46 C263.106153,444.548981 259.362572,463.851566 267.09,480 L267.09,480 Z"/>
    <path fill="#DDB9B6" fill-rule="nonzero" d="M403,408.23 C402.3,411.1 400.49,413.56 398.73,415.93 L395.53,420.21 C394.573061,421.751205 393.23727,423.021582 391.65,423.9 C389.7015,424.677734 387.496293,424.457586 385.74,423.31 C384.016024,422.155126 382.681065,420.506469 381.91,418.58 C379.7,413.47 380.99,406.69 385.69,403.7 C388.87,401.7 392.89,401.64 396.44,400.36 C401.53,398.5 404.08,403.62 403,408.23 Z" style="mix-blend-mode:multiply"/>
    <path fill="#F84F77" fill-rule="nonzero" d="M312.14,438.2 L300.74,405.75 C300.51,405.1 300.26,404.47 299.98,403.85 C299.937412,403.77978 299.900623,403.706203 299.87,403.63 C299.61,403.09 299.35,402.55 299.06,402.04 L299,402 C294.496353,394.059178 285.787418,389.460735 276.69,390.22 L276.69,390.22 C268.624092,390.895155 261.479866,395.69075 257.8,402.9 C253.441884,411.429549 251.679234,421.049377 252.73,430.57 L257.73,475.73 C257.76643,476.060876 257.965115,476.351933 258.259986,476.50639 C258.554858,476.660846 258.907255,476.658451 259.2,476.5 L281.2,464.5 C292.913557,458.123788 303.302711,449.57081 311.81,439.3 C312.140569,439.039345 312.2725,438.599576 312.14,438.2 Z"/>
    <polygon fill="#E4E4E4" fill-rule="nonzero" points="343.31 426.75 382.91 432.13 409.07 395.91 409.07 391.48 369.23 386.57 343.31 422.32"/>
    <polygon fill="#FFF" fill-rule="nonzero" points="409.07 391.48 369.23 386.57 343.31 422.32 382.29 427.56"/>
    <path stroke="#6C6287" stroke-linecap="round" d="M360.16 408.97L385.02 411.82M365.21 402.93L390.07 405.78M370.25 396.88L395.12 399.74"/>
    <path fill="#FFC233" fill-rule="nonzero" d="M376.15,385.25 C376.97,385.25 377.77,386.25 378.15,387.67 L379.5,387.84 C379.5,387.71 379.5,387.59 379.44,387.47 C378.91,385.34 377.62,383.96 376.15,383.96 C374.15,383.96 372.61,386.42 372.61,389.54 C372.578859,389.789612 372.694538,390.034784 372.906996,390.16946 C373.119454,390.304136 373.390546,390.304136 373.603004,390.16946 C373.815462,390.034784 373.931141,389.789612 373.9,389.54 C373.9,387 375.09,385.25 376.15,385.25 Z"/>
    <path fill="#FFC233" fill-rule="nonzero" d="M382.35,386 C383.18,386 383.97,387 384.35,388.42 L385.7,388.58 C385.7,388.46 385.7,388.33 385.63,388.21 C385.1,386.09 383.81,384.71 382.34,384.71 C380.34,384.71 378.81,387.16 378.81,390.29 C378.850589,390.615348 379.12713,390.859533 379.455,390.859533 C379.78287,390.859533 380.059411,390.615348 380.1,390.29 C380.11,387.78 381.29,386 382.35,386 Z"/>
    <path fill="#FFC233" fill-rule="nonzero" d="M388.56,386.79 C389.38,386.79 390.18,387.79 390.56,389.2 L391.91,389.37 C391.91,389.25 391.91,389.12 391.85,389 C391.32,386.87 390.03,385.5 388.56,385.5 C386.56,385.5 385.02,387.95 385.02,391.08 C385.025463,391.435074 385.314884,391.720042 385.67,391.72 C386.023462,391.72 386.31,391.433462 386.31,391.08 C386.31,388.55 387.5,386.79 388.56,386.79 Z"/>
    <path fill="#FFC233" fill-rule="nonzero" d="M394.77,387.55 C395.59,387.55 396.38,388.55 396.77,389.97 L398.12,390.13 C398.12,390.01 398.12,389.88 398.05,389.77 C397.53,387.64 396.24,386.26 394.77,386.26 C392.77,386.26 391.23,388.71 391.23,391.84 C391.198859,392.089612 391.314538,392.334784 391.526996,392.46946 C391.739454,392.604136 392.010546,392.604136 392.223004,392.46946 C392.435462,392.334784 392.551141,392.089612 392.52,391.84 C392.52,389.31 393.7,387.55 394.77,387.55 Z"/>
    <path fill="#FFC233" fill-rule="nonzero" d="M401,388.32 C401.82,388.32 402.62,389.32 403,390.73 L404.35,390.9 C404.35,390.78 404.35,390.65 404.28,390.53 C403.75,388.4 402.46,387.03 400.99,387.03 C398.99,387.03 397.46,389.48 397.46,392.61 C397.46,392.963462 397.746538,393.25 398.1,393.25 C398.455116,393.250042 398.744537,392.965074 398.75,392.61 C398.73,390.08 399.91,388.32 401,388.32 Z"/>
    <path stroke="#FFF" stroke-width=".5" d="M409.87,391.72 L382.45,429 L342.07,423.46 M342.3,425.4 L382.69,431 L409.87,393.62"/>
    <path fill="#DDB9B6" fill-rule="nonzero" d="M389.24,422.17 L389,414 C388.933126,411.892754 387.602848,410.033523 385.63,409.29 L385.63,409.29 C385.114486,409.093998 384.538741,409.135555 384.056719,409.403559 C383.574697,409.671564 383.235562,410.13868 383.13,410.68 L382.08,416 C381.52,418.806667 381.1,421.64 380.82,424.5 L379.91,433.68 L384.91,436.05 L390.08,432.99 L389.24,422.17 Z"/>
    <path fill="#6C6287" fill-rule="nonzero" d="M351.2,402 L352.91,409 L345.83,407.73 L310.22,374.26 C309.282376,373.381296 309.233163,371.90937 310.11,370.97 L312.28,368.66 C313.164992,367.724089 314.639962,367.679393 315.58,368.56 L351.2,402 Z"/>
    <path fill="#DDB9B6" fill-rule="nonzero" d="M312.17,396.21 L319.9,381.5 C320.214317,380.841469 320.862335,380.406386 321.590843,380.364757 C322.319352,380.323128 323.012713,380.681561 323.4,381.3 L323.4,381.3 C324.450976,382.833996 324.860135,384.718277 324.54,386.55 L323,395.48 C322.47545,398.442729 320.992898,401.151373 318.78,403.19 L318.78,403.19 C317.538674,404.327485 315.758918,404.660947 314.19,404.05 L314.19,404.05 C312.716835,403.467782 311.670331,402.138645 311.45,400.57 L311.45,400.57 C311.224982,399.077109 311.476953,397.551284 312.17,396.21 Z"/>
    <path fill="#BF9997" fill-rule="nonzero" d="M323.4,381.3 C324.359985,382.178101 324.994421,383.355333 325.2,384.64 C325.302066,385.30276 325.302066,385.97724 325.2,386.64 C325.12,387.26 325.03,387.85 324.93,388.45 C324.71,389.65 324.46,390.83 324.13,392.01 C323.82126,393.204005 323.416612,394.371131 322.92,395.5 C322.834646,394.270542 322.854719,393.036033 322.98,391.81 C323.075638,390.596192 323.232504,389.387987 323.45,388.19 C323.56,387.59 323.68,386.99 323.8,386.41 C323.918609,385.867781 323.982264,385.314987 323.99,384.76 C324.005597,383.580367 323.805651,382.407802 323.4,381.3 Z"/>
    <path fill="#DDB9B6" fill-rule="nonzero" d="M343.58,389.26 L336.58,379.87 C335.377121,378.252613 333.442499,377.347285 331.43,377.46 L325.43,377.81 L328.51,380.72 L330.19,382.29 L335.9,389.08 C337.481446,391.06802 339.976291,392.099979 342.5,391.81 C343.066511,391.739261 343.552408,391.372023 343.775059,390.846319 C343.99771,390.320615 343.923377,389.716103 343.58,389.26 Z"/>
    <polygon fill="#E55635" fill-rule="nonzero" points="504.36 315.13 504.46 312.86 506.69 313.22 506.59 315.5"/>
    <rect width="5.53" height="7.56" x="759.66" y="143.56" fill="#2D1F54" fill-rule="nonzero" rx="2.76"/>
    <rect width="4.68" height="5.79" x="304.19" y="295.57" fill="#3B3D3D" fill-rule="nonzero" rx="2.34"/>
    <path fill="#BF9997" fill-rule="nonzero" d="M311.77,329.46 C308.145809,329.450235 304.679646,327.975041 302.16,325.37 L302.07,325.28 C301.976117,325.185344 301.848319,325.132101 301.715,325.132101 C301.581681,325.132101 301.453883,325.185344 301.36,325.28 C301.265344,325.373883 301.212101,325.501681 301.212101,325.635 C301.212101,325.768319 301.265344,325.896117 301.36,325.99 L301.45,326.08 C304.151961,328.868359 307.86728,330.444665 311.75,330.45 L311.75,330.45 L311.83,329.45 L311.77,329.46 Z"/>
    <path fill="#22ABB2" fill-rule="nonzero" d="M804.4,348.4 C803.864566,350.164459 803.548849,351.988232 803.46,353.83 C802.99,364 805.32,374.69 807.54,384.58 C808.388857,388.486891 809.607688,392.304107 811.18,395.98 C812.29,398.52 818.18,405.1 818.12,407.31 L819.12,325 C814.71,333.27 807.08,339.57 804.4,348.4 Z" opacity=".7" style="mix-blend-mode:multiply"/>
    <path fill="#116D6D" fill-rule="nonzero" d="M731.57,470.74 C733.509005,472.348394 735.221235,474.211999 736.66,476.28 C743.01,486.33 739.45,499.55 738.33,510.55 C735.1,542.29 725.47,578.47 741.48,608.55 C745.56,562.7 753.26,477.2 753.56,473.86 C747.92,472.17 742.07,470.92 736.73,468.49 C734.61,467.49 729.37,463.75 728.29,466.41 C727.6,468.15 730.34,469.62 731.57,470.74 Z"/>
    <path fill="#77D4DA" fill-rule="nonzero" d="M813.66,616 C813.421539,609.387544 813.618632,602.766563 814.25,596.18 L818.06,556.69 C816.8,560.2 815.6,563.69 814.56,567.34 C806.19,596.57 808.5,628.11 809.42,658.8 C809.58,664.226667 809.693333,669.663333 809.76,675.11 C810.59,687.76 811.26,700.43 811.69,713.11 C812.2,728.17 813.46,743.67 812.16,758.7 C811.56,765.61 810.27,772.41 809.02,779.22 C809.02,780.06 808.91,780.9 808.85,781.74 C811.779345,781.47322 814.674126,780.910346 817.49,780.06 L818.1,779.88 C818.974566,779.615897 819.559007,778.79274 819.52,777.88 L813.66,616 Z"/>
    <path stroke="#D33258" stroke-linecap="round" d="M168.32,452.5 L169.65,443.66 C170.875198,435.544693 172.884605,427.567348 175.65,419.84 L175.65,419.84"/>
    <path fill="#FFF" d="M396.94,96.51 L396.94,393.88 C396.94315,399.956872 400.815447,405.357179 406.57,407.31 L513.36,443.44 C515.20529,444.061501 517.108082,444.496999 519.04,444.74 L519.04,444.74 C522.862548,445.220579 526.551024,446.458003 529.89,448.38 L530.18,448.54 C531.819116,449.487298 533.547437,450.271072 535.34,450.88 L583.34,467.1 C587.659916,468.538513 592.407839,467.815123 596.103348,465.155386 C599.798858,462.495649 601.992393,458.223124 602,453.67 L602,152.86 C602.008965,142.402304 595.063569,133.213953 585,130.37 L517.91,111.63 C511.985111,109.97868 505.976635,108.643463 499.91,107.63 L499.91,107.63 L481.18,102.7 C473.22,100.6 465.366667,98.1433333 457.62,95.33 L457.62,95.33 C453.453333,93.81 449.233333,92.4533333 444.96,91.26 L414.96,82.88 C410.689893,81.6787481 406.103684,82.5449493 402.565865,85.2208908 C399.028047,87.8968322 396.946305,92.0741481 396.94,96.51 Z"/>
    <path fill="#F4F6F8" d="M396.94,147.598865 L396.94,393.88 C396.94315,399.956872 400.815447,405.357179 406.57,407.31 L513.36,443.44 C515.20529,444.061501 517.108082,444.496999 519.04,444.74 C522.862548,445.220579 526.551024,446.458003 529.89,448.38 C531.819116,449.487298 533.547437,450.271072 535.34,450.88 L583.34,467.1 C587.659916,468.538513 592.407839,467.815123 596.103348,465.155386 C599.798858,462.495649 601.992393,458.223124 602,453.67 L602,212.503525 C602.008965,202.045829 396.946305,143.163013 396.94,147.598865 Z"/>
    <path fill="#FFF" d="M417,179.19021 L417,375.92883 C417.002519,380.783263 420.099451,385.097231 424.701746,386.657218 L510.108749,415.519219 C511.584549,416.015697 513.106337,416.363589 514.651419,416.557708 C517.708563,416.941612 520.65848,417.930113 523.328879,419.465476 C524.871721,420.350028 526.253973,420.976135 527.687604,421.46257 L566.076368,434.419715 C569.53129,435.568853 573.328516,434.990982 576.284059,432.866284 C579.239602,430.741587 580.993916,427.328533 581,423.691327 L581,231.038489 C581.00717,222.684489 417.005042,175.646685 417,179.19021 Z"/>
    <polyline stroke="#181818" stroke-linecap="round" stroke-width="9" points="437 208 449.55 211.57 459.04 214.48 464.72 217.15 519.474 234.591 546.99 243.35"/>
    <use fill="#D9DDE1" xlink:href="#illustration_01_bynurses-a"/>
    <path stroke="#5082F8" stroke-width="3.8" d="M563.166518,278.630026 C563.024969,278.457444 562.776719,278.226131 562.42802,277.955805 C561.587036,277.303837 560.280746,276.513471 558.546785,275.612361 C555.140479,273.842162 550.174616,271.688578 543.849709,269.222566 C532.281506,264.712251 516.407985,259.25351 498.799327,253.666386 C482.752746,248.574899 466.291329,243.709203 453.711969,240.323878 C447.48512,238.648124 442.428324,237.394685 438.930922,236.663337 C437.541905,236.372877 436.413314,236.168004 435.572233,236.052403 L435.572232,262.357725 C435.572354,262.591358 435.897087,263.113703 436.669039,263.803495 C438.413101,265.361933 441.716644,267.134413 446.105681,268.973906 C448.017569,269.775199 450.053442,270.556103 452.211257,271.330945 C453.045011,271.630335 453.86782,271.918416 454.729101,272.214101 C455.061911,272.328357 455.389074,272.439864 455.757581,272.564827 C455.943344,272.62782 456.511638,272.820106 456.592944,272.847673 L518.136499,293.51502 C518.236037,293.548506 522.971106,295.19669 524.989818,295.885982 C525.202929,295.958714 525.202929,295.958714 525.416199,296.031349 C529.159693,297.305613 531.822275,298.149356 532.298257,298.209156 C533.592639,298.3717 535.473376,298.853188 537.873051,299.591143 C538.315711,299.727272 538.772214,299.871075 539.242026,300.022122 C540.259238,300.349161 541.287732,300.693275 542.392976,301.072695 C542.81675,301.218172 543.813305,301.563971 544.184961,301.692276 C551.378042,302.987946 555.875886,302.981538 557.250381,301.993433 C557.429772,301.864472 558.105574,301.381476 558.041794,301.427125 C558.359673,301.199609 558.59867,301.027107 558.830772,300.857021 C561.857251,298.63919 563.163598,297.059081 563.166517,295.315848 L563.166518,278.630026 Z"/>
    <path fill="#D9DDE1" d="M433.672233 280.268828L433.672233 308.358711C433.674752 313.213145 451.385792 319.088839 455.988088 320.648825L517.530677 341.315848C519.006477 341.812326 530.516439 345.900232 532.061522 346.09435 535.118665 346.478254 542.270647 349.049728 543.704278 349.536163 551.504016 350.952629 556.389066 350.952629 558.359428 349.536163 561.314971 347.411465 565.060433 344.953054 565.066517 341.315848L565.066517 324.365041C565.073687 316.011041 433.677275 276.725303 433.672233 280.268828zM433.672233 326.268828L433.672233 354.358711C433.674752 359.213145 451.385792 365.088839 455.988088 366.648825L517.530677 387.315848C519.006477 387.812326 530.516439 391.900232 532.061522 392.09435 535.118665 392.478254 542.270647 395.049728 543.704278 395.536163 551.504016 396.952629 556.389066 396.952629 558.359428 395.536163 561.314971 393.411465 565.060433 390.953054 565.066517 387.315848L565.066517 370.365041C565.073687 362.011041 433.677275 322.725303 433.672233 326.268828z"/>
    <path fill="#5082F8" d="M396.94,96.51 L396.94,118.01154 C424.561332,126.317722 576.173422,169.373461 602,176.832573 L602,152.86 C602.008965,142.402304 595.063569,133.213953 585,130.37 L517.91,111.63 C511.985111,109.97868 505.976635,108.643463 499.91,107.63 L481.18,102.7 C473.22,100.6 465.366667,98.1433333 457.62,95.33 C453.453333,93.81 449.233333,92.4533333 444.96,91.26 L414.96,82.88 C410.689893,81.6787481 406.103684,82.5449493 402.565865,85.2208908 C399.028047,87.8968322 396.946305,92.0741481 396.94,96.51 Z"/>
  </g>
</svg>
